<svg width="37" height="37" viewBox="0 0 37 37" fill="none" xmlns="http://www.w3.org/2000/svg">
<path d="M18.7382 3.99023C26.9695 3.99023 33.6424 10.663 33.6424 18.8944C33.6424 27.1257 26.9695 33.7985 18.7382 33.7985C10.5069 33.7985 3.83411 27.1257 3.83411 18.8944C3.83411 10.663 10.5069 3.99023 18.7382 3.99023ZM18.7382 6.22551C11.7414 6.22551 6.06938 11.8975 6.06938 18.8944C6.06938 25.8912 11.7414 31.5632 18.7382 31.5632C25.735 31.5632 31.4071 25.8912 31.4071 18.8944C31.4071 11.8975 25.735 6.22551 18.7382 6.22551ZM13.4656 23.042C14.7309 24.648 16.6548 25.6025 18.7382 25.6025C20.8188 25.6025 22.7404 24.6506 24.0059 23.0482C24.3885 22.5638 25.0913 22.4813 25.5757 22.8639C26.0601 23.2464 26.1426 23.9493 25.7601 24.4337C24.075 26.5671 21.5102 27.8378 18.7382 27.8378C15.9625 27.8378 13.3946 26.5637 11.7098 24.4254C11.3278 23.9405 11.4112 23.2378 11.896 22.8558C12.3809 22.4738 13.0836 22.5572 13.4656 23.042ZM14.2684 14.0522C15.2965 14.0522 16.13 14.8857 16.13 15.9139C16.13 16.9421 15.2965 17.7756 14.2684 17.7756C13.2402 17.7756 12.4067 16.9421 12.4067 15.9139C12.4067 14.8857 13.2402 14.0522 14.2684 14.0522ZM23.2094 14.0522C24.2376 14.0522 25.0711 14.8857 25.0711 15.9139C25.0711 16.9421 24.2376 17.7756 23.2094 17.7756C22.1813 17.7756 21.3478 16.9421 21.3478 15.9139C21.3478 14.8857 22.1813 14.0522 23.2094 14.0522Z" fill="#8A8A8A"/>
</svg>
