<svg width="37" height="37" viewBox="0 0 37 37" fill="none" xmlns="http://www.w3.org/2000/svg">
<path d="M18.0337 6.59006C21.5229 3.09769 27.1841 3.09769 30.6758 6.58941C34.078 9.99159 34.1652 15.4534 30.9375 18.9612L30.6571 19.2553L17.5435 32.3662L17.489 32.4113C15.3115 34.3735 11.9526 34.3069 9.85535 32.2096C7.88978 30.244 7.7078 27.1703 9.30943 24.9995C9.34421 24.9319 9.38631 24.8667 9.4358 24.8054L9.51561 24.7165L9.64511 24.5858L9.85535 24.3654L9.8597 24.3697L20.9403 13.2614C21.3366 12.8641 21.9574 12.8272 22.3954 13.1513L22.5209 13.2593C22.9182 13.6556 22.9551 14.2764 22.631 14.7144L22.523 14.8399L11.2056 26.1848C10.1362 27.4896 10.2105 29.4183 11.4286 30.6364C12.6641 31.8718 14.6306 31.9306 15.9357 30.8129L29.098 17.6539C31.714 15.0347 31.714 10.7888 29.0952 8.16998C26.5583 5.63303 22.4943 5.55375 19.8619 7.93214L19.6117 8.16998L19.593 8.19131L5.3822 22.4022C4.94573 22.8386 4.23809 22.8386 3.80162 22.4022C3.40484 22.0054 3.36876 21.3845 3.69341 20.9469L3.80162 20.8216L18.0312 6.58941L18.0337 6.59006Z" fill="#8A8A8A"/>
</svg>
