<svg width="710" height="513" viewBox="0 0 710 513" fill="none" xmlns="http://www.w3.org/2000/svg">
<g opacity="0.3" filter="url(#filter0_f_5_178)">
<path d="M485 182C573.366 182 609.183 244.037 565 320.564C520.817 397.091 413.366 459.128 325 459.128C236.634 459.128 200.817 397.091 245 320.564C289.183 244.037 396.634 182 485 182ZM365 389.846C409.183 389.846 462.909 358.827 485 320.564C507.091 282.301 489.183 251.282 445 251.282C400.817 251.282 347.091 282.301 325 320.564C302.909 358.827 320.817 389.846 365 389.846Z" fill="url(#paint0_linear_5_178)"/>
</g>
<g opacity="0.3" filter="url(#filter1_f_5_178)">
<path d="M565.142 320.318C575.629 302.153 581.875 284.167 583.523 267.386C585.171 250.604 582.189 235.356 574.747 222.512C567.305 209.668 555.549 199.48 540.151 192.529C524.752 185.578 506.012 182 485 182L445.071 251.159C455.577 251.159 464.947 252.948 472.646 256.423C480.346 259.899 486.224 264.993 489.945 271.415C493.666 277.837 495.157 285.461 494.333 293.852C493.509 302.242 490.386 311.235 485.142 320.318L511.5 343.947L565.142 320.318Z" fill="url(#paint1_linear_5_178)"/>
</g>
<g opacity="0.3" filter="url(#filter2_f_5_178)">
<path d="M484.441 182C463.503 182 440.701 185.584 417.336 192.548C393.971 199.511 370.502 209.718 348.268 222.584C326.034 235.451 305.47 250.727 287.752 267.538C270.033 284.349 255.506 302.368 245 320.564L300.168 294.051L324.721 320.564C329.973 311.466 337.237 302.457 346.096 294.051C354.956 285.645 365.237 278.008 376.354 271.574C387.471 265.141 399.206 260.038 410.888 256.556C422.571 253.074 433.972 251.282 444.441 251.282L495 216.641L484.441 182Z" fill="url(#paint2_linear_5_178)"/>
</g>
<path d="M474 174C562.366 174 598.183 236.037 554 312.564C509.817 389.091 402.366 451.128 314 451.128C225.635 451.128 189.817 389.091 234 312.564C278.183 236.037 385.635 174 474 174ZM354 381.846C398.183 381.846 451.909 350.827 474 312.564C496.092 274.301 478.183 243.282 434 243.282C389.817 243.282 336.092 274.301 314 312.564C291.909 350.827 309.817 381.846 354 381.846Z" fill="url(#paint3_linear_5_178)"/>
<g filter="url(#filter3_d_5_178)">
<path d="M314.282 451.128C335.256 451.128 358.095 447.544 381.493 440.581C404.891 433.617 428.391 423.411 450.651 410.544C472.911 397.677 493.495 382.402 511.228 365.59C528.96 348.779 543.494 330.761 554 312.564L474.141 312.564C468.888 321.662 461.621 330.671 452.755 339.077C443.889 347.483 433.597 355.12 422.467 361.554C411.337 367.987 399.587 373.091 387.888 376.572C376.188 380.054 364.769 381.846 354.282 381.846L305 416.487L314.282 451.128Z" fill="url(#paint4_linear_5_178)"/>
</g>
<g filter="url(#filter4_d_5_178)">
<path d="M554.143 312.318C564.63 294.153 570.876 276.167 572.524 259.386C574.172 242.604 571.189 227.356 563.748 214.512C556.306 201.668 544.55 191.48 529.151 184.529C513.752 177.578 495.012 174 474 174L434.071 243.159C444.577 243.159 453.947 244.948 461.647 248.423C469.346 251.899 475.224 256.993 478.945 263.415C482.666 269.837 484.157 277.461 483.333 285.852C482.509 294.242 479.386 303.235 474.143 312.318L500.5 335.947L554.143 312.318Z" fill="url(#paint5_linear_5_178)"/>
</g>
<g filter="url(#filter5_d_5_178)">
<path d="M473.441 174C452.503 174 429.701 177.584 406.336 184.548C382.971 191.511 359.502 201.718 337.268 214.584C315.034 227.451 294.47 242.727 276.752 259.538C259.033 276.349 244.506 294.368 234 312.564L289.168 286.051L313.721 312.564C318.973 303.466 326.237 294.457 335.096 286.051C343.956 277.645 354.237 270.008 365.354 263.574C376.471 257.141 388.206 252.038 399.888 248.556C411.571 245.074 422.972 243.282 433.441 243.282L484 208.641L473.441 174Z" fill="url(#paint6_linear_5_178)"/>
</g>
<path d="M343.283 226H342.226C342.164 225.696 342.054 225.429 341.898 225.199C341.745 224.969 341.557 224.776 341.335 224.619C341.117 224.46 340.874 224.341 340.607 224.261C340.34 224.182 340.061 224.142 339.772 224.142C339.243 224.142 338.764 224.276 338.335 224.543C337.909 224.81 337.57 225.203 337.317 225.723C337.067 226.243 336.942 226.881 336.942 227.636C336.942 228.392 337.067 229.03 337.317 229.55C337.57 230.07 337.909 230.463 338.335 230.73C338.764 230.997 339.243 231.131 339.772 231.131C340.061 231.131 340.34 231.091 340.607 231.011C340.874 230.932 341.117 230.814 341.335 230.658C341.557 230.499 341.745 230.304 341.898 230.074C342.054 229.841 342.164 229.574 342.226 229.273H343.283C343.203 229.719 343.058 230.118 342.848 230.47C342.638 230.822 342.377 231.122 342.064 231.369C341.752 231.614 341.401 231.8 341.012 231.928C340.625 232.055 340.212 232.119 339.772 232.119C339.027 232.119 338.365 231.938 337.786 231.574C337.206 231.21 336.75 230.693 336.418 230.023C336.085 229.352 335.919 228.557 335.919 227.636C335.919 226.716 336.085 225.92 336.418 225.25C336.75 224.58 337.206 224.062 337.786 223.699C338.365 223.335 339.027 223.153 339.772 223.153C340.212 223.153 340.625 223.217 341.012 223.345C341.401 223.473 341.752 223.661 342.064 223.908C342.377 224.152 342.638 224.45 342.848 224.803C343.058 225.152 343.203 225.551 343.283 226ZM345.86 223.273V232H344.854V223.273H345.86ZM347.702 232V225.455H348.708V232H347.702ZM348.213 224.364C348.017 224.364 347.848 224.297 347.706 224.163C347.567 224.03 347.497 223.869 347.497 223.682C347.497 223.494 347.567 223.334 347.706 223.2C347.848 223.067 348.017 223 348.213 223C348.409 223 348.577 223.067 348.716 223.2C348.858 223.334 348.929 223.494 348.929 223.682C348.929 223.869 348.858 224.03 348.716 224.163C348.577 224.297 348.409 224.364 348.213 224.364ZM353.294 232.136C352.663 232.136 352.119 231.997 351.662 231.719C351.207 231.438 350.856 231.045 350.609 230.543C350.365 230.037 350.243 229.449 350.243 228.778C350.243 228.108 350.365 227.517 350.609 227.006C350.856 226.491 351.2 226.091 351.641 225.804C352.084 225.514 352.601 225.369 353.192 225.369C353.533 225.369 353.869 225.426 354.202 225.54C354.534 225.653 354.837 225.838 355.109 226.094C355.382 226.347 355.599 226.682 355.761 227.099C355.923 227.517 356.004 228.031 356.004 228.642V229.068H350.959V228.199H354.981C354.981 227.83 354.908 227.5 354.76 227.21C354.615 226.92 354.408 226.692 354.138 226.524C353.871 226.357 353.555 226.273 353.192 226.273C352.791 226.273 352.444 226.372 352.152 226.571C351.862 226.767 351.639 227.023 351.483 227.338C351.327 227.653 351.248 227.991 351.248 228.352V228.932C351.248 229.426 351.334 229.845 351.504 230.189C351.677 230.53 351.918 230.79 352.224 230.969C352.531 231.145 352.888 231.233 353.294 231.233C353.558 231.233 353.797 231.196 354.01 231.122C354.226 231.045 354.412 230.932 354.568 230.781C354.724 230.628 354.845 230.437 354.93 230.21L355.902 230.483C355.8 230.812 355.628 231.102 355.386 231.352C355.145 231.599 354.846 231.793 354.491 231.932C354.136 232.068 353.737 232.136 353.294 232.136ZM358.54 228.062V232H357.534V225.455H358.506V226.477H358.591C358.744 226.145 358.977 225.878 359.29 225.676C359.602 225.472 360.006 225.369 360.5 225.369C360.943 225.369 361.331 225.46 361.663 225.642C361.996 225.821 362.254 226.094 362.439 226.46C362.623 226.824 362.716 227.284 362.716 227.841V232H361.71V227.909C361.71 227.395 361.577 226.994 361.31 226.707C361.043 226.418 360.676 226.273 360.21 226.273C359.889 226.273 359.602 226.342 359.349 226.482C359.099 226.621 358.902 226.824 358.757 227.091C358.612 227.358 358.54 227.682 358.54 228.062ZM367.4 225.455V226.307H364.008V225.455H367.4ZM364.997 223.886H366.002V230.125C366.002 230.409 366.044 230.622 366.126 230.764C366.211 230.903 366.319 230.997 366.45 231.045C366.583 231.091 366.724 231.114 366.872 231.114C366.982 231.114 367.073 231.108 367.144 231.097C367.215 231.082 367.272 231.071 367.315 231.062L367.519 231.966C367.451 231.991 367.356 232.017 367.234 232.043C367.112 232.071 366.957 232.085 366.769 232.085C366.485 232.085 366.207 232.024 365.934 231.902C365.664 231.78 365.44 231.594 365.261 231.344C365.085 231.094 364.997 230.778 364.997 230.398V223.886ZM373.432 226.92L372.529 227.176C372.472 227.026 372.388 226.879 372.277 226.737C372.169 226.592 372.022 226.473 371.834 226.379C371.647 226.286 371.406 226.239 371.114 226.239C370.713 226.239 370.38 226.331 370.112 226.516C369.848 226.697 369.716 226.929 369.716 227.21C369.716 227.46 369.807 227.658 369.989 227.803C370.171 227.947 370.455 228.068 370.841 228.165L371.813 228.403C372.398 228.545 372.834 228.763 373.121 229.055C373.408 229.345 373.551 229.719 373.551 230.176C373.551 230.551 373.443 230.886 373.228 231.182C373.014 231.477 372.716 231.71 372.333 231.881C371.949 232.051 371.503 232.136 370.995 232.136C370.327 232.136 369.774 231.991 369.337 231.702C368.899 231.412 368.622 230.989 368.506 230.432L369.46 230.193C369.551 230.545 369.723 230.81 369.976 230.986C370.232 231.162 370.566 231.25 370.978 231.25C371.446 231.25 371.818 231.151 372.094 230.952C372.372 230.75 372.512 230.509 372.512 230.227C372.512 230 372.432 229.81 372.273 229.656C372.114 229.5 371.87 229.384 371.54 229.307L370.449 229.051C369.85 228.909 369.409 228.689 369.128 228.391C368.85 228.089 368.71 227.713 368.71 227.261C368.71 226.892 368.814 226.565 369.022 226.281C369.232 225.997 369.517 225.774 369.878 225.612C370.242 225.45 370.654 225.369 371.114 225.369C371.762 225.369 372.27 225.511 372.639 225.795C373.012 226.08 373.276 226.455 373.432 226.92ZM381.525 222.864L378.713 233.312H377.793L380.605 222.864H381.525ZM348.843 238.273H349.9V244.051C349.9 244.648 349.759 245.18 349.478 245.649C349.199 246.115 348.806 246.483 348.297 246.753C347.789 247.02 347.192 247.153 346.508 247.153C345.823 247.153 345.226 247.02 344.718 246.753C344.209 246.483 343.815 246.115 343.533 245.649C343.255 245.18 343.116 244.648 343.116 244.051V238.273H344.172V243.966C344.172 244.392 344.266 244.771 344.454 245.104C344.641 245.433 344.908 245.693 345.255 245.884C345.604 246.071 346.022 246.165 346.508 246.165C346.993 246.165 347.411 246.071 347.761 245.884C348.11 245.693 348.377 245.433 348.562 245.104C348.749 244.771 348.843 244.392 348.843 243.966V238.273ZM356.51 241.92L355.607 242.176C355.55 242.026 355.466 241.879 355.355 241.737C355.247 241.592 355.1 241.473 354.912 241.379C354.725 241.286 354.485 241.239 354.192 241.239C353.791 241.239 353.458 241.331 353.191 241.516C352.926 241.697 352.794 241.929 352.794 242.21C352.794 242.46 352.885 242.658 353.067 242.803C353.249 242.947 353.533 243.068 353.919 243.165L354.891 243.403C355.476 243.545 355.912 243.763 356.199 244.055C356.486 244.345 356.63 244.719 356.63 245.176C356.63 245.551 356.522 245.886 356.306 246.182C356.093 246.477 355.794 246.71 355.411 246.881C355.027 247.051 354.581 247.136 354.073 247.136C353.405 247.136 352.853 246.991 352.415 246.702C351.978 246.412 351.701 245.989 351.584 245.432L352.539 245.193C352.63 245.545 352.801 245.81 353.054 245.986C353.31 246.162 353.644 246.25 354.056 246.25C354.524 246.25 354.897 246.151 355.172 245.952C355.451 245.75 355.59 245.509 355.59 245.227C355.59 245 355.51 244.81 355.351 244.656C355.192 244.5 354.948 244.384 354.618 244.307L353.527 244.051C352.928 243.909 352.487 243.689 352.206 243.391C351.928 243.089 351.789 242.713 351.789 242.261C351.789 241.892 351.892 241.565 352.1 241.281C352.31 240.997 352.595 240.774 352.956 240.612C353.32 240.45 353.732 240.369 354.192 240.369C354.84 240.369 355.348 240.511 355.718 240.795C356.09 241.08 356.354 241.455 356.51 241.92ZM360.888 247.136C360.257 247.136 359.713 246.997 359.256 246.719C358.801 246.438 358.45 246.045 358.203 245.543C357.959 245.037 357.837 244.449 357.837 243.778C357.837 243.108 357.959 242.517 358.203 242.006C358.45 241.491 358.794 241.091 359.234 240.804C359.677 240.514 360.194 240.369 360.785 240.369C361.126 240.369 361.463 240.426 361.795 240.54C362.128 240.653 362.43 240.838 362.703 241.094C362.976 241.347 363.193 241.682 363.355 242.099C363.517 242.517 363.598 243.031 363.598 243.642V244.068L358.552 244.068V243.199L362.575 243.199C362.575 242.83 362.501 242.5 362.354 242.21C362.209 241.92 362.001 241.692 361.731 241.524C361.464 241.357 361.149 241.273 360.785 241.273C360.385 241.273 360.038 241.372 359.746 241.571C359.456 241.767 359.233 242.023 359.077 242.338C358.92 242.653 358.842 242.991 358.842 243.352V243.932C358.842 244.426 358.927 244.845 359.098 245.189C359.271 245.53 359.511 245.79 359.818 245.969C360.125 246.145 360.481 246.233 360.888 246.233C361.152 246.233 361.391 246.196 361.604 246.122C361.819 246.045 362.006 245.932 362.162 245.781C362.318 245.628 362.439 245.437 362.524 245.21L363.496 245.483C363.393 245.812 363.221 246.102 362.98 246.352C362.739 246.599 362.44 246.793 362.085 246.932C361.73 247.068 361.331 247.136 360.888 247.136ZM365.128 247V240.455H366.099V241.443H366.168C366.287 241.119 366.503 240.857 366.815 240.655C367.128 240.453 367.48 240.352 367.872 240.352C367.946 240.352 368.038 240.354 368.149 240.357C368.26 240.359 368.344 240.364 368.4 240.369V241.392C368.366 241.384 368.288 241.371 368.166 241.354C368.047 241.334 367.92 241.324 367.787 241.324C367.469 241.324 367.185 241.391 366.935 241.524C366.687 241.655 366.491 241.837 366.346 242.07C366.204 242.3 366.133 242.562 366.133 242.858V247H365.128ZM374.229 241.92L373.326 242.176C373.269 242.026 373.185 241.879 373.074 241.737C372.966 241.592 372.818 241.473 372.631 241.379C372.443 241.286 372.203 241.239 371.911 241.239C371.51 241.239 371.176 241.331 370.909 241.516C370.645 241.697 370.513 241.929 370.513 242.21C370.513 242.46 370.604 242.658 370.786 242.803C370.968 242.947 371.252 243.068 371.638 243.165L372.61 243.403C373.195 243.545 373.631 243.763 373.918 244.055C374.205 244.345 374.348 244.719 374.348 245.176C374.348 245.551 374.24 245.886 374.024 246.182C373.811 246.477 373.513 246.71 373.13 246.881C372.746 247.051 372.3 247.136 371.791 247.136C371.124 247.136 370.571 246.991 370.134 246.702C369.696 246.412 369.419 245.989 369.303 245.432L370.257 245.193C370.348 245.545 370.52 245.81 370.773 245.986C371.029 246.162 371.362 246.25 371.774 246.25C372.243 246.25 372.615 246.151 372.891 245.952C373.169 245.75 373.308 245.509 373.308 245.227C373.308 245 373.229 244.81 373.07 244.656C372.911 244.5 372.666 244.384 372.337 244.307L371.246 244.051C370.647 243.909 370.206 243.689 369.925 243.391C369.647 243.089 369.507 242.713 369.507 242.261C369.507 241.892 369.611 241.565 369.818 241.281C370.029 240.997 370.314 240.774 370.675 240.612C371.039 240.45 371.451 240.369 371.911 240.369C372.558 240.369 373.067 240.511 373.436 240.795C373.808 241.08 374.073 241.455 374.229 241.92Z" fill="url(#paint7_linear_5_178)"/>
<path d="M244.278 368H243.17L246.375 359.273H247.466L250.67 368H249.562L246.954 360.653H246.886L244.278 368ZM244.687 364.591H249.153V365.528H244.687V364.591ZM256.425 361.455L254.005 368H252.982L250.562 361.455H251.653L253.459 366.67H253.528L255.334 361.455H256.425ZM259.48 368.153C259.065 368.153 258.688 368.075 258.35 367.919C258.012 367.76 257.744 367.531 257.545 367.233C257.346 366.932 257.247 366.568 257.247 366.142C257.247 365.767 257.321 365.463 257.468 365.23C257.616 364.994 257.813 364.81 258.061 364.676C258.308 364.543 258.58 364.443 258.879 364.378C259.18 364.31 259.482 364.256 259.786 364.216C260.184 364.165 260.507 364.126 260.754 364.101C261.004 364.072 261.186 364.026 261.299 363.96C261.416 363.895 261.474 363.781 261.474 363.619V363.585C261.474 363.165 261.359 362.838 261.129 362.605C260.902 362.372 260.556 362.256 260.093 362.256C259.613 362.256 259.237 362.361 258.964 362.571C258.691 362.781 258.5 363.006 258.389 363.244L257.434 362.903C257.605 362.506 257.832 362.196 258.116 361.974C258.403 361.75 258.715 361.594 259.054 361.506C259.394 361.415 259.73 361.369 260.059 361.369C260.269 361.369 260.511 361.395 260.784 361.446C261.059 361.494 261.325 361.595 261.58 361.749C261.839 361.902 262.054 362.134 262.224 362.443C262.394 362.753 262.48 363.168 262.48 363.688V368H261.474V367.114H261.423C261.355 367.256 261.241 367.408 261.082 367.57C260.923 367.732 260.711 367.869 260.447 367.983C260.183 368.097 259.86 368.153 259.48 368.153ZM259.633 367.25C260.031 367.25 260.366 367.172 260.639 367.016C260.914 366.859 261.122 366.658 261.261 366.411C261.403 366.163 261.474 365.903 261.474 365.631V364.71C261.431 364.761 261.338 364.808 261.193 364.851C261.051 364.891 260.886 364.926 260.698 364.957C260.514 364.986 260.333 365.011 260.157 365.034C259.984 365.054 259.843 365.071 259.735 365.085C259.474 365.119 259.23 365.175 259.002 365.251C258.778 365.325 258.596 365.437 258.457 365.588C258.321 365.736 258.252 365.937 258.252 366.193C258.252 366.543 258.382 366.807 258.64 366.986C258.902 367.162 259.232 367.25 259.633 367.25ZM264.315 368V361.455H265.321V368H264.315ZM264.827 360.364C264.631 360.364 264.462 360.297 264.319 360.163C264.18 360.03 264.111 359.869 264.111 359.682C264.111 359.494 264.18 359.334 264.319 359.2C264.462 359.067 264.631 359 264.827 359C265.023 359 265.19 359.067 265.329 359.2C265.471 359.334 265.543 359.494 265.543 359.682C265.543 359.869 265.471 360.03 265.329 360.163C265.19 360.297 265.023 360.364 264.827 360.364ZM268.169 359.273V368H267.163V359.273H268.169ZM271.937 368.153C271.522 368.153 271.145 368.075 270.807 367.919C270.469 367.76 270.201 367.531 270.002 367.233C269.803 366.932 269.704 366.568 269.704 366.142C269.704 365.767 269.778 365.463 269.925 365.23C270.073 364.994 270.27 364.81 270.518 364.676C270.765 364.543 271.038 364.443 271.336 364.378C271.637 364.31 271.94 364.256 272.243 364.216C272.641 364.165 272.964 364.126 273.211 364.101C273.461 364.072 273.643 364.026 273.756 363.96C273.873 363.895 273.931 363.781 273.931 363.619V363.585C273.931 363.165 273.816 362.838 273.586 362.605C273.359 362.372 273.013 362.256 272.55 362.256C272.07 362.256 271.694 362.361 271.421 362.571C271.148 362.781 270.957 363.006 270.846 363.244L269.891 362.903C270.062 362.506 270.289 362.196 270.573 361.974C270.86 361.75 271.172 361.594 271.511 361.506C271.851 361.415 272.187 361.369 272.516 361.369C272.726 361.369 272.968 361.395 273.241 361.446C273.516 361.494 273.782 361.595 274.038 361.749C274.296 361.902 274.511 362.134 274.681 362.443C274.851 362.753 274.937 363.168 274.937 363.688V368H273.931V367.114H273.88C273.812 367.256 273.698 367.408 273.539 367.57C273.38 367.732 273.168 367.869 272.904 367.983C272.64 368.097 272.317 368.153 271.937 368.153ZM272.09 367.25C272.488 367.25 272.823 367.172 273.096 367.016C273.371 366.859 273.579 366.658 273.718 366.411C273.86 366.163 273.931 365.903 273.931 365.631V364.71C273.888 364.761 273.795 364.808 273.65 364.851C273.508 364.891 273.343 364.926 273.155 364.957C272.971 364.986 272.79 365.011 272.614 365.034C272.441 365.054 272.3 365.071 272.192 365.085C271.931 365.119 271.687 365.175 271.459 365.251C271.235 365.325 271.053 365.437 270.914 365.588C270.778 365.736 270.709 365.937 270.709 366.193C270.709 366.543 270.839 366.807 271.097 366.986C271.359 367.162 271.69 367.25 272.09 367.25ZM276.909 368V359.273L277.914 359.273V362.494H278C278.073 362.381 278.176 362.236 278.306 362.06C278.44 361.881 278.63 361.722 278.877 361.582C279.127 361.44 279.465 361.369 279.892 361.369C280.443 361.369 280.929 361.507 281.349 361.783C281.769 362.058 282.098 362.449 282.333 362.955C282.569 363.46 282.687 364.057 282.687 364.744C282.687 365.437 282.569 366.038 282.333 366.547C282.098 367.053 281.771 367.445 281.353 367.723C280.936 367.999 280.454 368.136 279.909 368.136C279.488 368.136 279.152 368.067 278.899 367.928C278.646 367.786 278.451 367.625 278.315 367.446C278.179 367.264 278.073 367.114 278 366.994H277.88V368L276.909 368ZM277.897 364.727C277.897 365.222 277.97 365.658 278.115 366.036C278.259 366.411 278.471 366.705 278.75 366.918C279.028 367.128 279.369 367.233 279.772 367.233C280.193 367.233 280.544 367.122 280.825 366.901C281.109 366.676 281.322 366.375 281.464 365.997C281.609 365.616 281.681 365.193 281.681 364.727C281.681 364.267 281.61 363.852 281.468 363.483C281.329 363.111 281.117 362.817 280.833 362.601C280.552 362.382 280.198 362.273 279.772 362.273C279.363 362.273 279.019 362.376 278.741 362.584C278.463 362.788 278.252 363.075 278.11 363.445C277.968 363.811 277.897 364.239 277.897 364.727ZM285.231 359.273V368H284.225V359.273H285.231ZM289.817 368.136C289.187 368.136 288.643 367.997 288.185 367.719C287.731 367.437 287.38 367.045 287.133 366.543C286.888 366.037 286.766 365.449 286.766 364.778C286.766 364.108 286.888 363.517 287.133 363.006C287.38 362.491 287.724 362.091 288.164 361.804C288.607 361.514 289.124 361.369 289.715 361.369C290.056 361.369 290.393 361.426 290.725 361.54C291.057 361.653 291.36 361.838 291.633 362.094C291.905 362.347 292.123 362.682 292.285 363.099C292.447 363.517 292.528 364.031 292.528 364.642V365.068H287.482V364.199H291.505C291.505 363.83 291.431 363.5 291.283 363.21C291.138 362.92 290.931 362.692 290.661 362.524C290.394 362.357 290.079 362.273 289.715 362.273C289.315 362.273 288.968 362.372 288.675 362.571C288.386 362.767 288.163 363.023 288.006 363.338C287.85 363.653 287.772 363.991 287.772 364.352V364.932C287.772 365.426 287.857 365.845 288.028 366.189C288.201 366.53 288.441 366.79 288.748 366.969C289.055 367.145 289.411 367.233 289.817 367.233C290.082 367.233 290.32 367.196 290.533 367.122C290.749 367.045 290.935 366.932 291.092 366.781C291.248 366.628 291.368 366.437 291.454 366.21L292.425 366.483C292.323 366.812 292.151 367.102 291.91 367.352C291.668 367.599 291.37 367.793 291.015 367.932C290.66 368.068 290.261 368.136 289.817 368.136ZM231.015 378.21V377.273H237.561V378.21H234.816V386H233.76V378.21H231.015ZM240.851 386.136C240.22 386.136 239.676 385.997 239.218 385.719C238.764 385.438 238.413 385.045 238.166 384.543C237.922 384.037 237.799 383.449 237.799 382.778C237.799 382.108 237.922 381.517 238.166 381.006C238.413 380.491 238.757 380.091 239.197 379.804C239.64 379.514 240.157 379.369 240.748 379.369C241.089 379.369 241.426 379.426 241.758 379.54C242.091 379.653 242.393 379.838 242.666 380.094C242.939 380.347 243.156 380.682 243.318 381.099C243.48 381.517 243.561 382.031 243.561 382.642V383.068H238.515V382.199H242.538C242.538 381.83 242.464 381.5 242.316 381.21C242.172 380.92 241.964 380.692 241.694 380.524C241.427 380.357 241.112 380.273 240.748 380.273C240.348 380.273 240.001 380.372 239.709 380.571C239.419 380.767 239.196 381.023 239.039 381.338C238.883 381.653 238.805 381.991 238.805 382.352V382.932C238.805 383.426 238.89 383.845 239.061 384.189C239.234 384.53 239.474 384.79 239.781 384.969C240.088 385.145 240.444 385.233 240.851 385.233C241.115 385.233 241.353 385.196 241.566 385.122C241.782 385.045 241.968 384.932 242.125 384.781C242.281 384.628 242.402 384.437 242.487 384.21L243.459 384.483C243.356 384.812 243.184 385.102 242.943 385.352C242.701 385.599 242.403 385.793 242.048 385.932C241.693 386.068 241.294 386.136 240.851 386.136ZM247.75 386.136C247.136 386.136 246.608 385.991 246.164 385.702C245.721 385.412 245.38 385.013 245.142 384.504C244.903 383.996 244.784 383.415 244.784 382.761C244.784 382.097 244.906 381.51 245.15 381.001C245.397 380.49 245.741 380.091 246.182 379.804C246.625 379.514 247.142 379.369 247.733 379.369C248.193 379.369 248.608 379.455 248.977 379.625C249.346 379.795 249.649 380.034 249.885 380.341C250.12 380.648 250.267 381.006 250.324 381.415H249.318C249.241 381.116 249.071 380.852 248.807 380.622C248.545 380.389 248.193 380.273 247.75 380.273C247.358 380.273 247.014 380.375 246.718 380.58C246.426 380.781 246.197 381.067 246.032 381.436C245.87 381.803 245.789 382.233 245.789 382.727C245.789 383.233 245.869 383.673 246.028 384.048C246.19 384.423 246.417 384.714 246.71 384.922C247.005 385.129 247.352 385.233 247.75 385.233C248.011 385.233 248.248 385.188 248.461 385.097C248.674 385.006 248.855 384.875 249.003 384.705C249.15 384.534 249.255 384.33 249.318 384.091H250.324C250.267 384.477 250.126 384.825 249.902 385.135C249.68 385.442 249.386 385.686 249.02 385.868C248.656 386.047 248.233 386.136 247.75 386.136ZM252.799 382.062V386H251.794V377.273H252.799V380.477H252.885C253.038 380.139 253.268 379.871 253.575 379.672C253.885 379.47 254.297 379.369 254.811 379.369C255.257 379.369 255.647 379.459 255.983 379.638C256.318 379.814 256.578 380.085 256.762 380.452C256.95 380.815 257.044 381.278 257.044 381.841V386H256.038V381.909C256.038 381.389 255.903 380.987 255.633 380.703C255.366 380.416 254.995 380.273 254.521 380.273C254.191 380.273 253.896 380.342 253.635 380.482C253.376 380.621 253.172 380.824 253.021 381.091C252.873 381.358 252.799 381.682 252.799 382.062ZM259.889 382.062V386H258.884V379.455H259.855V380.477H259.94C260.094 380.145 260.327 379.878 260.639 379.676C260.952 379.472 261.355 379.369 261.849 379.369C262.293 379.369 262.68 379.46 263.013 379.642C263.345 379.821 263.604 380.094 263.788 380.46C263.973 380.824 264.065 381.284 264.065 381.841V386H263.06V381.909C263.06 381.395 262.926 380.994 262.659 380.707C262.392 380.418 262.026 380.273 261.56 380.273C261.239 380.273 260.952 380.342 260.699 380.482C260.449 380.621 260.251 380.824 260.107 381.091C259.962 381.358 259.889 381.682 259.889 382.062ZM268.562 386.136C267.971 386.136 267.453 385.996 267.007 385.714C266.564 385.433 266.217 385.04 265.967 384.534C265.72 384.028 265.596 383.437 265.596 382.761C265.596 382.08 265.72 381.484 265.967 380.976C266.217 380.467 266.564 380.072 267.007 379.791C267.453 379.51 267.971 379.369 268.562 379.369C269.153 379.369 269.67 379.51 270.113 379.791C270.559 380.072 270.906 380.467 271.153 380.976C271.403 381.484 271.528 382.08 271.528 382.761C271.528 383.437 271.403 384.028 271.153 384.534C270.906 385.04 270.559 385.433 270.113 385.714C269.67 385.996 269.153 386.136 268.562 386.136ZM268.562 385.233C269.011 385.233 269.38 385.118 269.67 384.888C269.96 384.658 270.174 384.355 270.314 383.98C270.453 383.605 270.522 383.199 270.522 382.761C270.522 382.324 270.453 381.916 270.314 381.538C270.174 381.161 269.96 380.855 269.67 380.622C269.38 380.389 269.011 380.273 268.562 380.273C268.113 380.273 267.744 380.389 267.454 380.622C267.164 380.855 266.95 381.161 266.811 381.538C266.672 381.916 266.602 382.324 266.602 382.761C266.602 383.199 266.672 383.605 266.811 383.98C266.95 384.355 267.164 384.658 267.454 384.888C267.744 385.118 268.113 385.233 268.562 385.233ZM274.069 377.273V386H273.063V377.273H274.069ZM278.57 386.136C277.979 386.136 277.461 385.996 277.015 385.714C276.571 385.433 276.225 385.04 275.975 384.534C275.728 384.028 275.604 383.437 275.604 382.761C275.604 382.08 275.728 381.484 275.975 380.976C276.225 380.467 276.571 380.072 277.015 379.791C277.461 379.51 277.979 379.369 278.57 379.369C279.161 379.369 279.678 379.51 280.121 379.791C280.567 380.072 280.914 380.467 281.161 380.976C281.411 381.484 281.536 382.08 281.536 382.761C281.536 383.437 281.411 384.028 281.161 384.534C280.914 385.04 280.567 385.433 280.121 385.714C279.678 385.996 279.161 386.136 278.57 386.136ZM278.57 385.233C279.019 385.233 279.388 385.118 279.678 384.888C279.968 384.658 280.182 384.355 280.321 383.98C280.461 383.605 280.53 383.199 280.53 382.761C280.53 382.324 280.461 381.916 280.321 381.538C280.182 381.161 279.968 380.855 279.678 380.622C279.388 380.389 279.019 380.273 278.57 380.273C278.121 380.273 277.752 380.389 277.462 380.622C277.172 380.855 276.958 381.161 276.819 381.538C276.679 381.916 276.61 382.324 276.61 382.761C276.61 383.199 276.679 383.605 276.819 383.98C276.958 384.355 277.172 384.658 277.462 384.888C277.752 385.118 278.121 385.233 278.57 385.233ZM285.713 388.591C285.227 388.591 284.81 388.528 284.46 388.403C284.111 388.281 283.82 388.119 283.587 387.918C283.357 387.719 283.173 387.506 283.037 387.278L283.838 386.716C283.929 386.835 284.044 386.972 284.183 387.125C284.323 387.281 284.513 387.416 284.754 387.53C284.999 387.646 285.318 387.705 285.713 387.705C286.242 387.705 286.678 387.577 287.021 387.321C287.365 387.065 287.537 386.665 287.537 386.119V384.79H287.452C287.378 384.909 287.273 385.057 287.136 385.233C287.003 385.406 286.81 385.561 286.557 385.697C286.307 385.831 285.969 385.898 285.543 385.898C285.014 385.898 284.54 385.773 284.119 385.523C283.702 385.273 283.371 384.909 283.126 384.432C282.885 383.955 282.764 383.375 282.764 382.693C282.764 382.023 282.882 381.439 283.118 380.942C283.354 380.442 283.682 380.055 284.102 379.783C284.523 379.507 285.009 379.369 285.56 379.369C285.986 379.369 286.324 379.44 286.574 379.582C286.827 379.722 287.02 379.881 287.153 380.06C287.29 380.236 287.395 380.381 287.469 380.494H287.571V379.455H288.543V386.187C288.543 386.75 288.415 387.207 288.159 387.56C287.906 387.915 287.565 388.175 287.136 388.339C286.71 388.507 286.236 388.591 285.713 388.591ZM285.679 384.994C286.082 384.994 286.423 384.902 286.702 384.717C286.98 384.533 287.192 384.267 287.337 383.92C287.482 383.574 287.554 383.159 287.554 382.676C287.554 382.205 287.483 381.788 287.341 381.428C287.199 381.067 286.989 380.784 286.71 380.58C286.432 380.375 286.088 380.273 285.679 380.273C285.253 380.273 284.898 380.381 284.614 380.597C284.332 380.812 284.121 381.102 283.979 381.466C283.84 381.83 283.77 382.233 283.77 382.676C283.77 383.131 283.841 383.533 283.983 383.882C284.128 384.229 284.341 384.501 284.622 384.7C284.906 384.896 285.259 384.994 285.679 384.994ZM290.384 386V379.455H291.389V386H290.384ZM290.895 378.364C290.699 378.364 290.53 378.297 290.388 378.163C290.249 378.03 290.179 377.869 290.179 377.682C290.179 377.494 290.249 377.334 290.388 377.2C290.53 377.067 290.699 377 290.895 377C291.091 377 291.259 377.067 291.398 377.2C291.54 377.334 291.611 377.494 291.611 377.682C291.611 377.869 291.54 378.03 291.398 378.163C291.259 378.297 291.091 378.364 290.895 378.364ZM295.976 386.136C295.345 386.136 294.801 385.997 294.343 385.719C293.889 385.437 293.538 385.045 293.291 384.543C293.047 384.037 292.924 383.449 292.924 382.778C292.924 382.108 293.047 381.517 293.291 381.006C293.538 380.491 293.882 380.091 294.322 379.804C294.765 379.514 295.282 379.369 295.873 379.369C296.214 379.369 296.551 379.426 296.883 379.54C297.216 379.653 297.518 379.838 297.791 380.094C298.064 380.347 298.281 380.682 298.443 381.099C298.605 381.517 298.686 382.031 298.686 382.642V383.068H293.64V382.199H297.663C297.663 381.83 297.589 381.5 297.441 381.21C297.297 380.92 297.089 380.692 296.819 380.524C296.552 380.357 296.237 380.273 295.873 380.273C295.473 380.273 295.126 380.372 294.834 380.571C294.544 380.767 294.321 381.023 294.164 381.338C294.008 381.653 293.93 381.991 293.93 382.352V382.932C293.93 383.426 294.015 383.845 294.186 384.189C294.359 384.53 294.599 384.79 294.906 384.969C295.213 385.145 295.569 385.233 295.976 385.233C296.24 385.233 296.478 385.196 296.691 385.122C296.907 385.045 297.093 384.932 297.25 384.781C297.406 384.628 297.527 384.437 297.612 384.21L298.584 384.483C298.481 384.812 298.309 385.102 298.068 385.352C297.826 385.599 297.528 385.793 297.173 385.932C296.818 386.068 296.419 386.136 295.976 386.136ZM304.852 380.92L303.949 381.176C303.892 381.026 303.808 380.879 303.697 380.737C303.589 380.592 303.441 380.473 303.254 380.379C303.066 380.286 302.826 380.239 302.534 380.239C302.133 380.239 301.799 380.331 301.532 380.516C301.268 380.697 301.136 380.929 301.136 381.21C301.136 381.46 301.227 381.658 301.409 381.803C301.591 381.947 301.875 382.068 302.261 382.165L303.233 382.403C303.818 382.545 304.254 382.763 304.541 383.055C304.828 383.345 304.971 383.719 304.971 384.176C304.971 384.551 304.863 384.886 304.647 385.182C304.434 385.477 304.136 385.71 303.753 385.881C303.369 386.051 302.923 386.136 302.414 386.136C301.747 386.136 301.194 385.991 300.757 385.702C300.319 385.412 300.042 384.989 299.926 384.432L300.88 384.193C300.971 384.545 301.143 384.81 301.396 384.986C301.652 385.162 301.986 385.25 302.397 385.25C302.866 385.25 303.238 385.151 303.514 384.952C303.792 384.75 303.932 384.509 303.932 384.227C303.932 384 303.852 383.81 303.693 383.656C303.534 383.5 303.289 383.384 302.96 383.307L301.869 383.051C301.27 382.909 300.829 382.689 300.548 382.391C300.27 382.089 300.13 381.713 300.13 381.261C300.13 380.892 300.234 380.565 300.441 380.281C300.652 379.997 300.937 379.774 301.298 379.612C301.662 379.45 302.074 379.369 302.534 379.369C303.182 379.369 303.69 379.511 304.059 379.795C304.432 380.08 304.696 380.455 304.852 380.92Z" fill="url(#paint8_linear_5_178)"/>
<path d="M505.805 238.273H507.066L510.032 245.517H510.135L513.101 238.273H514.362V247H513.373V240.369H513.288L510.561 247H509.606L506.879 240.369H506.794V247H505.805V238.273ZM518.271 247.153C517.856 247.153 517.479 247.075 517.141 246.919C516.803 246.76 516.535 246.531 516.336 246.233C516.137 245.932 516.038 245.568 516.038 245.142C516.038 244.767 516.112 244.463 516.259 244.23C516.407 243.994 516.604 243.81 516.852 243.676C517.099 243.543 517.372 243.443 517.67 243.378C517.971 243.31 518.274 243.256 518.577 243.216C518.975 243.165 519.298 243.126 519.545 243.101C519.795 243.072 519.977 243.026 520.09 242.96C520.207 242.895 520.265 242.781 520.265 242.619V242.585C520.265 242.165 520.15 241.838 519.92 241.605C519.693 241.372 519.347 241.256 518.884 241.256C518.404 241.256 518.028 241.361 517.755 241.571C517.482 241.781 517.291 242.006 517.18 242.244L516.225 241.903C516.396 241.506 516.623 241.196 516.907 240.974C517.194 240.75 517.506 240.594 517.845 240.506C518.185 240.415 518.521 240.369 518.85 240.369C519.06 240.369 519.302 240.395 519.575 240.446C519.85 240.494 520.116 240.595 520.372 240.749C520.63 240.902 520.845 241.134 521.015 241.443C521.185 241.753 521.271 242.168 521.271 242.687V247H520.265V246.114H520.214C520.146 246.256 520.032 246.408 519.873 246.57C519.714 246.732 519.502 246.869 519.238 246.983C518.974 247.097 518.651 247.153 518.271 247.153ZM518.424 246.25C518.822 246.25 519.157 246.172 519.43 246.016C519.705 245.859 519.913 245.658 520.052 245.411C520.194 245.163 520.265 244.903 520.265 244.631V243.71C520.222 243.761 520.129 243.808 519.984 243.851C519.842 243.891 519.677 243.926 519.489 243.957C519.305 243.986 519.124 244.011 518.948 244.034C518.775 244.054 518.634 244.071 518.526 244.085C518.265 244.119 518.021 244.175 517.793 244.251C517.569 244.325 517.387 244.437 517.248 244.588C517.112 244.736 517.043 244.937 517.043 245.193C517.043 245.543 517.173 245.807 517.431 245.986C517.693 246.162 518.024 246.25 518.424 246.25ZM523.106 247V240.455H524.078V241.443H524.146C524.265 241.119 524.481 240.857 524.794 240.655C525.106 240.453 525.459 240.352 525.851 240.352C525.924 240.352 526.017 240.354 526.128 240.357C526.238 240.359 526.322 240.364 526.379 240.369V241.392C526.345 241.384 526.267 241.371 526.145 241.354C526.025 241.334 525.899 241.324 525.765 241.324C525.447 241.324 525.163 241.391 524.913 241.524C524.666 241.655 524.47 241.837 524.325 242.07C524.183 242.3 524.112 242.562 524.112 242.858V247H523.106ZM528.509 244.614L528.492 243.369H528.696L531.56 240.455H532.804L529.753 243.54H529.668L528.509 244.614ZM527.571 247V238.273H528.577V247H527.571ZM531.73 247L529.173 243.761L529.889 243.062L533.009 247H531.73ZM536.573 247.136C535.943 247.136 535.399 246.997 534.941 246.719C534.487 246.437 534.136 246.045 533.889 245.543C533.644 245.037 533.522 244.449 533.522 243.778C533.522 243.108 533.644 242.517 533.889 242.006C534.136 241.491 534.479 241.091 534.92 240.804C535.363 240.514 535.88 240.369 536.471 240.369C536.812 240.369 537.149 240.426 537.481 240.54C537.813 240.653 538.116 240.838 538.389 241.094C538.661 241.347 538.879 241.682 539.041 242.099C539.202 242.517 539.283 243.031 539.283 243.642V244.068H534.238V243.199H538.261C538.261 242.83 538.187 242.5 538.039 242.21C537.894 241.92 537.687 241.692 537.417 241.524C537.15 241.357 536.835 241.273 536.471 241.273C536.07 241.273 535.724 241.372 535.431 241.571C535.141 241.767 534.918 242.023 534.762 242.338C534.606 242.653 534.528 242.991 534.528 243.352V243.932C534.528 244.426 534.613 244.845 534.783 245.189C534.957 245.53 535.197 245.79 535.504 245.969C535.81 246.145 536.167 246.233 536.573 246.233C536.837 246.233 537.076 246.196 537.289 246.122C537.505 246.045 537.691 245.932 537.847 245.781C538.004 245.628 538.124 245.437 538.21 245.21L539.181 245.483C539.079 245.812 538.907 246.102 538.666 246.352C538.424 246.599 538.126 246.793 537.771 246.932C537.416 247.068 537.016 247.136 536.573 247.136ZM543.66 240.455V241.307H540.268V240.455H543.66ZM541.256 238.886H542.262V245.125C542.262 245.409 542.303 245.622 542.386 245.764C542.471 245.903 542.579 245.997 542.71 246.045C542.843 246.091 542.984 246.114 543.131 246.114C543.242 246.114 543.333 246.108 543.404 246.097C543.475 246.082 543.532 246.071 543.575 246.062L543.779 246.966C543.711 246.991 543.616 247.017 543.494 247.043C543.372 247.071 543.217 247.085 543.029 247.085C542.745 247.085 542.467 247.024 542.194 246.902C541.924 246.78 541.7 246.594 541.521 246.344C541.345 246.094 541.256 245.778 541.256 245.398V238.886ZM481.052 262.153C480.637 262.153 480.261 262.075 479.923 261.919C479.585 261.76 479.316 261.531 479.117 261.233C478.918 260.932 478.819 260.568 478.819 260.142C478.819 259.767 478.893 259.463 479.041 259.23C479.188 258.994 479.386 258.81 479.633 258.676C479.88 258.543 480.153 258.443 480.451 258.378C480.752 258.31 481.055 258.256 481.359 258.216C481.756 258.165 482.079 258.126 482.326 258.101C482.576 258.072 482.758 258.026 482.872 257.96C482.988 257.895 483.046 257.781 483.046 257.619V257.585C483.046 257.165 482.931 256.838 482.701 256.605C482.474 256.372 482.129 256.256 481.666 256.256C481.185 256.256 480.809 256.361 480.536 256.571C480.264 256.781 480.072 257.006 479.961 257.244L479.006 256.903C479.177 256.506 479.404 256.196 479.688 255.974C479.975 255.75 480.288 255.594 480.626 255.506C480.967 255.415 481.302 255.369 481.631 255.369C481.842 255.369 482.083 255.395 482.356 255.446C482.631 255.494 482.897 255.595 483.153 255.749C483.411 255.902 483.626 256.134 483.796 256.443C483.967 256.753 484.052 257.168 484.052 257.688V262H483.046V261.114H482.995C482.927 261.256 482.813 261.408 482.654 261.57C482.495 261.732 482.283 261.869 482.019 261.983C481.755 262.097 481.433 262.153 481.052 262.153ZM481.205 261.25C481.603 261.25 481.938 261.172 482.211 261.016C482.487 260.859 482.694 260.658 482.833 260.411C482.975 260.163 483.046 259.903 483.046 259.631V258.71C483.004 258.761 482.91 258.808 482.765 258.851C482.623 258.891 482.458 258.926 482.271 258.957C482.086 258.986 481.906 259.011 481.729 259.034C481.556 259.054 481.416 259.071 481.308 259.085C481.046 259.119 480.802 259.175 480.575 259.251C480.35 259.325 480.168 259.437 480.029 259.588C479.893 259.736 479.825 259.937 479.825 260.193C479.825 260.543 479.954 260.807 480.212 260.986C480.474 261.162 480.805 261.25 481.205 261.25ZM486.893 258.062V262H485.887V255.455H486.859V256.477H486.944C487.098 256.145 487.331 255.878 487.643 255.676C487.956 255.472 488.359 255.369 488.853 255.369C489.297 255.369 489.684 255.46 490.017 255.642C490.349 255.821 490.608 256.094 490.792 256.46C490.977 256.824 491.069 257.284 491.069 257.841V262H490.064V257.909C490.064 257.395 489.93 256.994 489.663 256.707C489.396 256.418 489.03 256.273 488.564 256.273C488.243 256.273 487.956 256.342 487.703 256.482C487.453 256.621 487.255 256.824 487.111 257.091C486.966 257.358 486.893 257.682 486.893 258.062ZM495.379 262.136C494.833 262.136 494.352 261.999 493.934 261.723C493.516 261.445 493.19 261.053 492.954 260.547C492.718 260.038 492.6 259.438 492.6 258.744C492.6 258.057 492.718 257.46 492.954 256.955C493.19 256.449 493.518 256.058 493.938 255.783C494.359 255.507 494.845 255.369 495.396 255.369C495.822 255.369 496.158 255.44 496.406 255.582C496.656 255.722 496.846 255.881 496.977 256.06C497.11 256.236 497.214 256.381 497.288 256.494H497.373V253.273H498.379V262H497.407V260.994H497.288C497.214 261.114 497.109 261.264 496.972 261.446C496.836 261.625 496.641 261.786 496.389 261.928C496.136 262.067 495.799 262.136 495.379 262.136ZM495.515 261.233C495.918 261.233 496.259 261.128 496.538 260.918C496.816 260.705 497.028 260.411 497.173 260.036C497.318 259.658 497.39 259.222 497.39 258.727C497.39 258.239 497.319 257.811 497.177 257.445C497.035 257.075 496.825 256.788 496.546 256.584C496.268 256.376 495.924 256.273 495.515 256.273C495.089 256.273 494.734 256.382 494.45 256.601C494.168 256.817 493.957 257.111 493.815 257.483C493.675 257.852 493.606 258.267 493.606 258.727C493.606 259.193 493.677 259.616 493.819 259.997C493.964 260.375 494.177 260.676 494.458 260.901C494.742 261.122 495.095 261.233 495.515 261.233ZM506.394 262.136C505.781 262.136 505.252 261.991 504.809 261.702C504.366 261.412 504.025 261.013 503.786 260.504C503.548 259.996 503.428 259.415 503.428 258.761C503.428 258.097 503.55 257.51 503.795 257.001C504.042 256.49 504.386 256.091 504.826 255.804C505.269 255.514 505.786 255.369 506.377 255.369C506.837 255.369 507.252 255.455 507.622 255.625C507.991 255.795 508.293 256.034 508.529 256.341C508.765 256.648 508.911 257.006 508.968 257.415H507.962C507.886 257.116 507.715 256.852 507.451 256.622C507.19 256.389 506.837 256.273 506.394 256.273C506.002 256.273 505.658 256.375 505.363 256.58C505.07 256.781 504.842 257.067 504.677 257.436C504.515 257.803 504.434 258.233 504.434 258.727C504.434 259.233 504.514 259.673 504.673 260.048C504.835 260.423 505.062 260.714 505.354 260.922C505.65 261.129 505.997 261.233 506.394 261.233C506.656 261.233 506.893 261.188 507.106 261.097C507.319 261.006 507.499 260.875 507.647 260.705C507.795 260.534 507.9 260.33 507.962 260.091H508.968C508.911 260.477 508.771 260.825 508.546 261.135C508.325 261.442 508.031 261.686 507.664 261.868C507.3 262.047 506.877 262.136 506.394 262.136ZM513.097 262.136C512.506 262.136 511.988 261.996 511.542 261.714C511.099 261.433 510.752 261.04 510.502 260.534C510.255 260.028 510.131 259.437 510.131 258.761C510.131 258.08 510.255 257.484 510.502 256.976C510.752 256.467 511.099 256.072 511.542 255.791C511.988 255.51 512.506 255.369 513.097 255.369C513.688 255.369 514.205 255.51 514.649 255.791C515.095 256.072 515.441 256.467 515.688 256.976C515.938 257.484 516.063 258.08 516.063 258.761C516.063 259.437 515.938 260.028 515.688 260.534C515.441 261.04 515.095 261.433 514.649 261.714C514.205 261.996 513.688 262.136 513.097 262.136ZM513.097 261.233C513.546 261.233 513.916 261.118 514.205 260.888C514.495 260.658 514.71 260.355 514.849 259.98C514.988 259.605 515.058 259.199 515.058 258.761C515.058 258.324 514.988 257.916 514.849 257.538C514.71 257.161 514.495 256.855 514.205 256.622C513.916 256.389 513.546 256.273 513.097 256.273C512.649 256.273 512.279 256.389 511.989 256.622C511.7 256.855 511.485 257.161 511.346 257.538C511.207 257.916 511.137 258.324 511.137 258.761C511.137 259.199 511.207 259.605 511.346 259.98C511.485 260.355 511.7 260.658 511.989 260.888C512.279 261.118 512.649 261.233 513.097 261.233ZM517.598 262V255.455H518.57V256.477H518.655C518.792 256.128 519.012 255.857 519.316 255.663C519.62 255.467 519.985 255.369 520.411 255.369C520.843 255.369 521.202 255.467 521.489 255.663C521.779 255.857 522.005 256.128 522.167 256.477H522.235C522.402 256.139 522.654 255.871 522.989 255.672C523.324 255.47 523.726 255.369 524.195 255.369C524.78 255.369 525.259 255.553 525.631 255.919C526.003 256.283 526.189 256.849 526.189 257.619V262H525.184V257.619C525.184 257.136 525.052 256.791 524.787 256.584C524.523 256.376 524.212 256.273 523.854 256.273C523.394 256.273 523.037 256.412 522.785 256.69C522.532 256.966 522.405 257.315 522.405 257.739V262H521.383V257.517C521.383 257.145 521.262 256.845 521.02 256.618C520.779 256.388 520.468 256.273 520.087 256.273C519.826 256.273 519.581 256.342 519.354 256.482C519.13 256.621 518.948 256.814 518.809 257.061C518.672 257.305 518.604 257.588 518.604 257.909V262H517.598ZM528.028 264.455V255.455H529V256.494H529.119C529.193 256.381 529.295 256.236 529.426 256.06C529.559 255.881 529.75 255.722 529.997 255.582C530.247 255.44 530.585 255.369 531.011 255.369C531.562 255.369 532.048 255.507 532.468 255.783C532.889 256.058 533.217 256.449 533.453 256.955C533.689 257.46 533.807 258.057 533.807 258.744C533.807 259.437 533.689 260.038 533.453 260.547C533.217 261.053 532.89 261.445 532.473 261.723C532.055 261.999 531.574 262.136 531.028 262.136C530.608 262.136 530.271 262.067 530.018 261.928C529.765 261.786 529.571 261.625 529.434 261.446C529.298 261.264 529.193 261.114 529.119 260.994H529.034V264.455H528.028ZM529.017 258.727C529.017 259.222 529.089 259.658 529.234 260.036C529.379 260.411 529.591 260.705 529.869 260.918C530.147 261.128 530.488 261.233 530.892 261.233C531.312 261.233 531.663 261.122 531.944 260.901C532.228 260.676 532.441 260.375 532.584 259.997C532.728 259.616 532.801 259.193 532.801 258.727C532.801 258.267 532.73 257.852 532.588 257.483C532.449 257.111 532.237 256.817 531.953 256.601C531.672 256.382 531.318 256.273 530.892 256.273C530.483 256.273 530.139 256.376 529.861 256.584C529.582 256.788 529.372 257.075 529.23 257.445C529.088 257.811 529.017 258.239 529.017 258.727ZM538.085 262.136C537.454 262.136 536.91 261.997 536.453 261.719C535.998 261.437 535.647 261.045 535.4 260.543C535.156 260.037 535.034 259.449 535.034 258.778C535.034 258.108 535.156 257.517 535.4 257.006C535.647 256.491 535.991 256.091 536.432 255.804C536.875 255.514 537.392 255.369 537.983 255.369C538.324 255.369 538.66 255.426 538.993 255.54C539.325 255.653 539.628 255.838 539.9 256.094C540.173 256.347 540.39 256.682 540.552 257.099C540.714 257.517 540.795 258.031 540.795 258.642V259.068H535.75V258.199H539.772C539.772 257.83 539.699 257.5 539.551 257.21C539.406 256.92 539.199 256.692 538.929 256.524C538.662 256.357 538.346 256.273 537.983 256.273C537.582 256.273 537.236 256.372 536.943 256.571C536.653 256.767 536.43 257.023 536.274 257.338C536.118 257.653 536.039 257.991 536.039 258.352V258.932C536.039 259.426 536.125 259.845 536.295 260.189C536.468 260.53 536.709 260.79 537.015 260.969C537.322 261.145 537.679 261.233 538.085 261.233C538.349 261.233 538.588 261.196 538.801 261.122C539.017 261.045 539.203 260.932 539.359 260.781C539.515 260.628 539.636 260.437 539.721 260.21L540.693 260.483C540.591 260.812 540.419 261.102 540.177 261.352C539.936 261.599 539.637 261.793 539.282 261.932C538.927 262.068 538.528 262.136 538.085 262.136ZM545.172 255.455V256.307H541.78V255.455L545.172 255.455ZM542.768 253.886H543.774V260.125C543.774 260.409 543.815 260.622 543.897 260.764C543.983 260.903 544.091 260.997 544.221 261.045C544.355 261.091 544.495 261.114 544.643 261.114C544.754 261.114 544.845 261.108 544.916 261.097C544.987 261.082 545.044 261.071 545.086 261.062L545.291 261.966C545.223 261.991 545.128 262.017 545.005 262.043C544.883 262.071 544.728 262.085 544.541 262.085C544.257 262.085 543.978 262.024 543.706 261.902C543.436 261.78 543.211 261.594 543.032 261.344C542.856 261.094 542.768 260.778 542.768 260.398V253.886ZM546.684 262V255.455H547.69V262H546.684ZM547.196 254.364C547 254.364 546.831 254.297 546.689 254.163C546.549 254.03 546.48 253.869 546.48 253.682C546.48 253.494 546.549 253.334 546.689 253.2C546.831 253.067 547 253 547.196 253C547.392 253 547.559 253.067 547.699 253.2C547.841 253.334 547.912 253.494 547.912 253.682C547.912 253.869 547.841 254.03 547.699 254.163C547.559 254.297 547.392 254.364 547.196 254.364ZM552.379 255.455V256.307H548.987V255.455H552.379ZM549.975 253.886H550.981V260.125C550.981 260.409 551.022 260.622 551.104 260.764C551.19 260.903 551.298 260.997 551.428 261.045C551.562 261.091 551.702 261.114 551.85 261.114C551.961 261.114 552.052 261.108 552.123 261.097C552.194 261.082 552.251 261.071 552.293 261.062L552.498 261.966C552.43 261.991 552.335 262.017 552.212 262.043C552.09 262.071 551.935 262.085 551.748 262.085C551.464 262.085 551.185 262.024 550.913 261.902C550.643 261.78 550.418 261.594 550.239 261.344C550.063 261.094 549.975 260.778 549.975 260.398V253.886ZM556.48 262.136C555.889 262.136 555.371 261.996 554.925 261.714C554.482 261.433 554.135 261.04 553.885 260.534C553.638 260.028 553.514 259.437 553.514 258.761C553.514 258.08 553.638 257.484 553.885 256.976C554.135 256.467 554.482 256.072 554.925 255.791C555.371 255.51 555.889 255.369 556.48 255.369C557.071 255.369 557.588 255.51 558.031 255.791C558.477 256.072 558.824 256.467 559.071 256.976C559.321 257.484 559.446 258.08 559.446 258.761C559.446 259.437 559.321 260.028 559.071 260.534C558.824 261.04 558.477 261.433 558.031 261.714C557.588 261.996 557.071 262.136 556.48 262.136ZM556.48 261.233C556.929 261.233 557.298 261.118 557.588 260.888C557.878 260.658 558.092 260.355 558.232 259.98C558.371 259.605 558.44 259.199 558.44 258.761C558.44 258.324 558.371 257.916 558.232 257.538C558.092 257.161 557.878 256.855 557.588 256.622C557.298 256.389 556.929 256.273 556.48 256.273C556.031 256.273 555.662 256.389 555.372 256.622C555.082 256.855 554.868 257.161 554.729 257.538C554.59 257.916 554.52 258.324 554.52 258.761C554.52 259.199 554.59 259.605 554.729 259.98C554.868 260.355 555.082 260.658 555.372 260.888C555.662 261.118 556.031 261.233 556.48 261.233ZM560.981 262V255.455H561.953V256.443H562.021C562.14 256.119 562.356 255.857 562.669 255.655C562.981 255.453 563.334 255.352 563.726 255.352C563.799 255.352 563.892 255.354 564.003 255.357C564.113 255.359 564.197 255.364 564.254 255.369V256.392C564.22 256.384 564.142 256.371 564.02 256.354C563.9 256.334 563.774 256.324 563.64 256.324C563.322 256.324 563.038 256.391 562.788 256.524C562.541 256.655 562.345 256.837 562.2 257.07C562.058 257.3 561.987 257.562 561.987 257.858V262H560.981ZM570.082 256.92L569.179 257.176C569.122 257.026 569.038 256.879 568.928 256.737C568.82 256.592 568.672 256.473 568.484 256.379C568.297 256.286 568.057 256.239 567.764 256.239C567.364 256.239 567.03 256.331 566.763 256.516C566.499 256.697 566.367 256.929 566.367 257.21C566.367 257.46 566.457 257.658 566.639 257.803C566.821 257.947 567.105 258.068 567.492 258.165L568.463 258.403C569.048 258.545 569.484 258.763 569.771 259.055C570.058 259.345 570.202 259.719 570.202 260.176C570.202 260.551 570.094 260.886 569.878 261.182C569.665 261.477 569.367 261.71 568.983 261.881C568.599 262.051 568.153 262.136 567.645 262.136C566.977 262.136 566.425 261.991 565.987 261.702C565.55 261.412 565.273 260.989 565.156 260.432L566.111 260.193C566.202 260.545 566.374 260.81 566.626 260.986C566.882 261.162 567.216 261.25 567.628 261.25C568.097 261.25 568.469 261.151 568.744 260.952C569.023 260.75 569.162 260.509 569.162 260.227C569.162 260 569.082 259.81 568.923 259.656C568.764 259.5 568.52 259.384 568.19 259.307L567.099 259.051C566.5 258.909 566.06 258.689 565.778 258.391C565.5 258.089 565.361 257.713 565.361 257.261C565.361 256.892 565.465 256.565 565.672 256.281C565.882 255.997 566.168 255.774 566.528 255.612C566.892 255.45 567.304 255.369 567.764 255.369C568.412 255.369 568.921 255.511 569.29 255.795C569.662 256.08 569.926 256.455 570.082 256.92Z" fill="url(#paint9_linear_5_178)"/>
<path d="M408.338 382V373.273H411.389C411.997 373.273 412.499 373.378 412.894 373.588C413.289 373.795 413.583 374.075 413.776 374.428C413.969 374.777 414.066 375.165 414.066 375.591C414.066 375.966 413.999 376.276 413.865 376.52C413.735 376.764 413.561 376.957 413.345 377.099C413.132 377.241 412.901 377.347 412.651 377.415V377.5C412.918 377.517 413.186 377.611 413.456 377.781C413.726 377.952 413.952 378.196 414.134 378.514C414.316 378.832 414.406 379.222 414.406 379.682C414.406 380.119 414.307 380.513 414.108 380.862C413.909 381.212 413.595 381.489 413.166 381.693C412.737 381.898 412.179 382 411.492 382H408.338ZM409.395 381.062H411.492C412.182 381.062 412.672 380.929 412.962 380.662C413.255 380.392 413.401 380.065 413.401 379.682C413.401 379.386 413.326 379.114 413.175 378.864C413.024 378.611 412.81 378.409 412.531 378.259C412.253 378.105 411.924 378.028 411.543 378.028H409.395V381.062ZM409.395 377.108H411.355C411.674 377.108 411.96 377.045 412.216 376.92C412.475 376.795 412.679 376.619 412.83 376.392C412.983 376.165 413.06 375.898 413.06 375.591C413.06 375.207 412.926 374.882 412.659 374.615C412.392 374.345 411.969 374.21 411.389 374.21H409.395V377.108ZM420.132 379.324V375.455H421.137V382H420.132V380.892H420.063C419.91 381.224 419.671 381.507 419.348 381.74C419.024 381.97 418.615 382.085 418.12 382.085C417.711 382.085 417.348 381.996 417.029 381.817C416.711 381.635 416.461 381.362 416.279 380.999C416.098 380.632 416.007 380.17 416.007 379.614V375.455H417.012V379.545C417.012 380.023 417.146 380.403 417.413 380.688C417.683 380.972 418.027 381.114 418.444 381.114C418.694 381.114 418.948 381.05 419.207 380.922C419.468 380.794 419.687 380.598 419.863 380.334C420.042 380.07 420.132 379.733 420.132 379.324ZM427.616 376.92L426.712 377.176C426.655 377.026 426.572 376.879 426.461 376.737C426.353 376.592 426.205 376.473 426.018 376.379C425.83 376.286 425.59 376.239 425.297 376.239C424.897 376.239 424.563 376.331 424.296 376.516C424.032 376.697 423.9 376.929 423.9 377.21C423.9 377.46 423.991 377.658 424.172 377.803C424.354 377.947 424.638 378.068 425.025 378.165L425.996 378.403C426.582 378.545 427.018 378.763 427.305 379.055C427.592 379.345 427.735 379.719 427.735 380.176C427.735 380.551 427.627 380.886 427.411 381.182C427.198 381.477 426.9 381.71 426.516 381.881C426.133 382.051 425.687 382.136 425.178 382.136C424.511 382.136 423.958 381.991 423.52 381.702C423.083 381.412 422.806 380.989 422.69 380.432L423.644 380.193C423.735 380.545 423.907 380.81 424.16 380.986C424.415 381.162 424.749 381.25 425.161 381.25C425.63 381.25 426.002 381.151 426.278 380.952C426.556 380.75 426.695 380.509 426.695 380.227C426.695 380 426.616 379.81 426.457 379.656C426.297 379.5 426.053 379.384 425.724 379.307L424.633 379.051C424.033 378.909 423.593 378.689 423.312 378.391C423.033 378.089 422.894 377.713 422.894 377.261C422.894 376.892 422.998 376.565 423.205 376.281C423.415 375.997 423.701 375.774 424.062 375.612C424.425 375.45 424.837 375.369 425.297 375.369C425.945 375.369 426.454 375.511 426.823 375.795C427.195 376.08 427.459 376.455 427.616 376.92ZM429.249 382V375.455H430.255V382H429.249ZM429.76 374.364C429.564 374.364 429.395 374.297 429.253 374.163C429.114 374.03 429.044 373.869 429.044 373.682C429.044 373.494 429.114 373.334 429.253 373.2C429.395 373.067 429.564 373 429.76 373C429.956 373 430.124 373.067 430.263 373.2C430.405 373.334 430.476 373.494 430.476 373.682C430.476 373.869 430.405 374.03 430.263 374.163C430.124 374.297 429.956 374.364 429.76 374.364ZM433.102 378.062V382H432.096V375.455H433.068V376.477H433.153C433.307 376.145 433.54 375.878 433.852 375.676C434.165 375.472 434.568 375.369 435.062 375.369C435.506 375.369 435.893 375.46 436.226 375.642C436.558 375.821 436.817 376.094 437.001 376.46C437.186 376.824 437.278 377.284 437.278 377.841V382H436.273V377.909C436.273 377.395 436.139 376.994 435.872 376.707C435.605 376.418 435.239 376.273 434.773 376.273C434.452 376.273 434.165 376.342 433.912 376.482C433.662 376.621 433.464 376.824 433.319 377.091C433.175 377.358 433.102 377.682 433.102 378.062ZM441.86 382.136C441.23 382.136 440.686 381.997 440.228 381.719C439.774 381.438 439.423 381.045 439.176 380.543C438.931 380.037 438.809 379.449 438.809 378.778C438.809 378.108 438.931 377.517 439.176 377.006C439.423 376.491 439.767 376.091 440.207 375.804C440.65 375.514 441.167 375.369 441.758 375.369C442.099 375.369 442.436 375.426 442.768 375.54C443.1 375.653 443.403 375.838 443.676 376.094C443.948 376.347 444.166 376.682 444.328 377.099C444.49 377.517 444.571 378.031 444.571 378.642V379.068H439.525V378.199H443.548C443.548 377.83 443.474 377.5 443.326 377.21C443.181 376.92 442.974 376.692 442.704 376.524C442.437 376.357 442.122 376.273 441.758 376.273C441.357 376.273 441.011 376.372 440.718 376.571C440.429 376.767 440.205 377.023 440.049 377.338C439.893 377.653 439.815 377.991 439.815 378.352V378.932C439.815 379.426 439.9 379.845 440.071 380.189C440.244 380.53 440.484 380.79 440.791 380.969C441.098 381.145 441.454 381.233 441.86 381.233C442.125 381.233 442.363 381.196 442.576 381.122C442.792 381.045 442.978 380.932 443.134 380.781C443.291 380.628 443.411 380.437 443.497 380.21L444.468 380.483C444.366 380.812 444.194 381.102 443.953 381.352C443.711 381.599 443.413 381.793 443.058 381.932C442.703 382.068 442.304 382.136 441.86 382.136ZM450.737 376.92L449.833 377.176C449.777 377.026 449.693 376.879 449.582 376.737C449.474 376.592 449.326 376.473 449.139 376.379C448.951 376.286 448.711 376.239 448.419 376.239C448.018 376.239 447.684 376.331 447.417 376.516C447.153 376.697 447.021 376.929 447.021 377.21C447.021 377.46 447.112 377.658 447.294 377.803C447.475 377.947 447.759 378.068 448.146 378.165L449.117 378.403C449.703 378.545 450.139 378.763 450.426 379.055C450.713 379.345 450.856 379.719 450.856 380.176C450.856 380.551 450.748 380.886 450.532 381.182C450.319 381.477 450.021 381.71 449.637 381.881C449.254 382.051 448.808 382.136 448.299 382.136C447.632 382.136 447.079 381.991 446.642 381.702C446.204 381.412 445.927 380.989 445.811 380.432L446.765 380.193C446.856 380.545 447.028 380.81 447.281 380.986C447.536 381.162 447.87 381.25 448.282 381.25C448.751 381.25 449.123 381.151 449.399 380.952C449.677 380.75 449.816 380.509 449.816 380.227C449.816 380 449.737 379.81 449.578 379.656C449.419 379.5 449.174 379.384 448.845 379.307L447.754 379.051C447.154 378.909 446.714 378.689 446.433 378.391C446.154 378.089 446.015 377.713 446.015 377.261C446.015 376.892 446.119 376.565 446.326 376.281C446.536 375.997 446.822 375.774 447.183 375.612C447.546 375.45 447.958 375.369 448.419 375.369C449.066 375.369 449.575 375.511 449.944 375.795C450.316 376.08 450.58 376.455 450.737 376.92ZM457.006 376.92L456.103 377.176C456.046 377.026 455.962 376.879 455.851 376.737C455.743 376.592 455.596 376.473 455.408 376.379C455.221 376.286 454.981 376.239 454.688 376.239C454.288 376.239 453.954 376.331 453.687 376.516C453.422 376.697 453.29 376.929 453.29 377.21C453.29 377.46 453.381 377.658 453.563 377.803C453.745 377.947 454.029 378.068 454.415 378.165L455.387 378.403C455.972 378.545 456.408 378.763 456.695 379.055C456.982 379.345 457.126 379.719 457.126 380.176C457.126 380.551 457.018 380.886 456.802 381.182C456.589 381.477 456.29 381.71 455.907 381.881C455.523 382.051 455.077 382.136 454.569 382.136C453.901 382.136 453.349 381.991 452.911 381.702C452.474 381.412 452.197 380.989 452.08 380.432L453.035 380.193C453.126 380.545 453.297 380.81 453.55 380.986C453.806 381.162 454.14 381.25 454.552 381.25C455.02 381.25 455.393 381.151 455.668 380.952C455.947 380.75 456.086 380.509 456.086 380.227C456.086 380 456.006 379.81 455.847 379.656C455.688 379.5 455.444 379.384 455.114 379.307L454.023 379.051C453.424 378.909 452.984 378.689 452.702 378.391C452.424 378.089 452.285 377.713 452.285 377.261C452.285 376.892 452.388 376.565 452.596 376.281C452.806 375.997 453.092 375.774 453.452 375.612C453.816 375.45 454.228 375.369 454.688 375.369C455.336 375.369 455.844 375.511 456.214 375.795C456.586 376.08 456.85 376.455 457.006 376.92ZM404.311 399.455V390.455H405.283V391.494H405.402C405.476 391.381 405.578 391.236 405.709 391.06C405.843 390.881 406.033 390.722 406.28 390.582C406.53 390.44 406.868 390.369 407.294 390.369C407.845 390.369 408.331 390.507 408.752 390.783C409.172 391.058 409.5 391.449 409.736 391.955C409.972 392.46 410.09 393.057 410.09 393.744C410.09 394.438 409.972 395.038 409.736 395.547C409.5 396.053 409.174 396.445 408.756 396.723C408.338 396.999 407.857 397.136 407.311 397.136C406.891 397.136 406.554 397.067 406.301 396.928C406.049 396.786 405.854 396.625 405.718 396.446C405.581 396.264 405.476 396.114 405.402 395.994H405.317V399.455H404.311ZM405.3 393.727C405.3 394.222 405.372 394.658 405.517 395.036C405.662 395.411 405.874 395.705 406.152 395.918C406.431 396.128 406.772 396.233 407.175 396.233C407.595 396.233 407.946 396.122 408.228 395.901C408.512 395.676 408.725 395.375 408.867 394.997C409.012 394.616 409.084 394.193 409.084 393.727C409.084 393.267 409.013 392.852 408.871 392.483C408.732 392.111 408.52 391.817 408.236 391.601C407.955 391.382 407.601 391.273 407.175 391.273C406.766 391.273 406.422 391.376 406.144 391.584C405.865 391.788 405.655 392.075 405.513 392.445C405.371 392.811 405.3 393.239 405.3 393.727ZM411.624 397V390.455H412.595V391.443H412.664C412.783 391.119 412.999 390.857 413.311 390.655C413.624 390.453 413.976 390.352 414.368 390.352C414.442 390.352 414.534 390.354 414.645 390.357C414.756 390.359 414.84 390.364 414.897 390.369V391.392C414.862 391.384 414.784 391.371 414.662 391.354C414.543 391.334 414.416 391.324 414.283 391.324C413.965 391.324 413.681 391.391 413.431 391.524C413.183 391.655 412.987 391.837 412.843 392.07C412.701 392.3 412.63 392.562 412.63 392.858V397H411.624ZM418.549 397.136C417.958 397.136 417.439 396.996 416.993 396.714C416.55 396.433 416.203 396.04 415.953 395.534C415.706 395.028 415.583 394.437 415.583 393.761C415.583 393.08 415.706 392.484 415.953 391.976C416.203 391.467 416.55 391.072 416.993 390.791C417.439 390.51 417.958 390.369 418.549 390.369C419.139 390.369 419.656 390.51 420.1 390.791C420.546 391.072 420.892 391.467 421.139 391.976C421.389 392.484 421.514 393.08 421.514 393.761C421.514 394.437 421.389 395.028 421.139 395.534C420.892 396.04 420.546 396.433 420.1 396.714C419.656 396.996 419.139 397.136 418.549 397.136ZM418.549 396.233C418.997 396.233 419.367 396.118 419.656 395.888C419.946 395.658 420.161 395.355 420.3 394.98C420.439 394.605 420.509 394.199 420.509 393.761C420.509 393.324 420.439 392.916 420.3 392.538C420.161 392.161 419.946 391.855 419.656 391.622C419.367 391.389 418.997 391.273 418.549 391.273C418.1 391.273 417.73 391.389 417.441 391.622C417.151 391.855 416.936 392.161 416.797 392.538C416.658 392.916 416.588 393.324 416.588 393.761C416.588 394.199 416.658 394.605 416.797 394.98C416.936 395.355 417.151 395.658 417.441 395.888C417.73 396.118 418.1 396.233 418.549 396.233ZM425.709 397.136C425.095 397.136 424.567 396.991 424.123 396.702C423.68 396.412 423.339 396.013 423.101 395.504C422.862 394.996 422.743 394.415 422.743 393.761C422.743 393.097 422.865 392.51 423.109 392.001C423.356 391.49 423.7 391.091 424.141 390.804C424.584 390.514 425.101 390.369 425.692 390.369C426.152 390.369 426.567 390.455 426.936 390.625C427.305 390.795 427.608 391.034 427.844 391.341C428.079 391.648 428.226 392.006 428.283 392.415H427.277C427.2 392.116 427.03 391.852 426.766 391.622C426.504 391.389 426.152 391.273 425.709 391.273C425.317 391.273 424.973 391.375 424.677 391.58C424.385 391.781 424.156 392.067 423.991 392.436C423.829 392.803 423.748 393.233 423.748 393.727C423.748 394.233 423.828 394.673 423.987 395.048C424.149 395.423 424.376 395.714 424.669 395.922C424.964 396.129 425.311 396.233 425.709 396.233C425.97 396.233 426.207 396.188 426.42 396.097C426.633 396.006 426.814 395.875 426.962 395.705C427.109 395.534 427.214 395.33 427.277 395.091H428.283C428.226 395.477 428.085 395.825 427.861 396.135C427.639 396.442 427.345 396.686 426.979 396.868C426.615 397.047 426.192 397.136 425.709 397.136ZM432.497 397.136C431.866 397.136 431.322 396.997 430.865 396.719C430.41 396.438 430.06 396.045 429.812 395.543C429.568 395.037 429.446 394.449 429.446 393.778C429.446 393.108 429.568 392.517 429.812 392.006C430.06 391.491 430.403 391.091 430.844 390.804C431.287 390.514 431.804 390.369 432.395 390.369C432.736 390.369 433.072 390.426 433.405 390.54C433.737 390.653 434.04 390.838 434.312 391.094C434.585 391.347 434.802 391.682 434.964 392.099C435.126 392.517 435.207 393.031 435.207 393.642V394.068H430.162V393.199H434.185C434.185 392.83 434.111 392.5 433.963 392.21C433.818 391.92 433.611 391.692 433.341 391.524C433.074 391.357 432.758 391.273 432.395 391.273C431.994 391.273 431.648 391.372 431.355 391.571C431.065 391.767 430.842 392.023 430.686 392.338C430.53 392.653 430.452 392.991 430.452 393.352V393.932C430.452 394.426 430.537 394.845 430.707 395.189C430.881 395.53 431.121 395.79 431.427 395.969C431.734 396.145 432.091 396.233 432.497 396.233C432.761 396.233 433 396.196 433.213 396.122C433.429 396.045 433.615 395.932 433.771 395.781C433.927 395.628 434.048 395.437 434.133 395.21L435.105 395.483C435.003 395.812 434.831 396.102 434.589 396.352C434.348 396.599 434.05 396.793 433.694 396.932C433.339 397.068 432.94 397.136 432.497 397.136ZM441.373 391.92L440.47 392.176C440.413 392.026 440.329 391.879 440.219 391.737C440.111 391.592 439.963 391.473 439.775 391.379C439.588 391.286 439.348 391.239 439.055 391.239C438.655 391.239 438.321 391.331 438.054 391.516C437.79 391.697 437.658 391.929 437.658 392.21C437.658 392.46 437.748 392.658 437.93 392.803C438.112 392.947 438.396 393.068 438.783 393.165L439.754 393.403C440.339 393.545 440.775 393.763 441.062 394.055C441.349 394.345 441.493 394.719 441.493 395.176C441.493 395.551 441.385 395.886 441.169 396.182C440.956 396.477 440.658 396.71 440.274 396.881C439.891 397.051 439.444 397.136 438.936 397.136C438.268 397.136 437.716 396.991 437.278 396.702C436.841 396.412 436.564 395.989 436.447 395.432L437.402 395.193C437.493 395.545 437.665 395.81 437.918 395.986C438.173 396.162 438.507 396.25 438.919 396.25C439.388 396.25 439.76 396.151 440.035 395.952C440.314 395.75 440.453 395.509 440.453 395.227C440.453 395 440.373 394.81 440.214 394.656C440.055 394.5 439.811 394.384 439.481 394.307L438.391 394.051C437.791 393.909 437.351 393.689 437.069 393.391C436.791 393.089 436.652 392.713 436.652 392.261C436.652 391.892 436.756 391.565 436.963 391.281C437.173 390.997 437.459 390.774 437.819 390.612C438.183 390.45 438.595 390.369 439.055 390.369C439.703 390.369 440.212 390.511 440.581 390.795C440.953 391.08 441.217 391.455 441.373 391.92ZM447.643 391.92L446.74 392.176C446.683 392.026 446.599 391.879 446.488 391.737C446.38 391.592 446.232 391.473 446.045 391.379C445.857 391.286 445.617 391.239 445.325 391.239C444.924 391.239 444.59 391.331 444.323 391.516C444.059 391.697 443.927 391.929 443.927 392.21C443.927 392.46 444.018 392.658 444.2 392.803C444.382 392.947 444.666 393.068 445.052 393.165L446.024 393.403C446.609 393.545 447.045 393.763 447.332 394.055C447.619 394.345 447.762 394.719 447.762 395.176C447.762 395.551 447.654 395.886 447.438 396.182C447.225 396.477 446.927 396.71 446.544 396.881C446.16 397.051 445.714 397.136 445.205 397.136C444.538 397.136 443.985 396.991 443.548 396.702C443.11 396.412 442.833 395.989 442.717 395.432L443.671 395.193C443.762 395.545 443.934 395.81 444.187 395.986C444.443 396.162 444.777 396.25 445.188 396.25C445.657 396.25 446.029 396.151 446.305 395.952C446.583 395.75 446.723 395.509 446.723 395.227C446.723 395 446.643 394.81 446.484 394.656C446.325 394.5 446.08 394.384 445.751 394.307L444.66 394.051C444.061 393.909 443.62 393.689 443.339 393.391C443.061 393.089 442.921 392.713 442.921 392.261C442.921 391.892 443.025 391.565 443.232 391.281C443.443 390.997 443.728 390.774 444.089 390.612C444.453 390.45 444.865 390.369 445.325 390.369C445.973 390.369 446.481 390.511 446.85 390.795C447.223 391.08 447.487 391.455 447.643 391.92ZM452.02 397.136C451.39 397.136 450.846 396.997 450.388 396.719C449.934 396.438 449.583 396.045 449.336 395.543C449.092 395.037 448.969 394.449 448.969 393.778C448.969 393.108 449.092 392.517 449.336 392.006C449.583 391.491 449.927 391.091 450.367 390.804C450.81 390.514 451.327 390.369 451.918 390.369C452.259 390.369 452.596 390.426 452.928 390.54C453.261 390.653 453.563 390.838 453.836 391.094C454.109 391.347 454.326 391.682 454.488 392.099C454.65 392.517 454.731 393.031 454.731 393.642V394.068L449.685 394.068V393.199L453.708 393.199C453.708 392.83 453.634 392.5 453.486 392.21C453.342 391.92 453.134 391.692 452.864 391.524C452.597 391.357 452.282 391.273 451.918 391.273C451.518 391.273 451.171 391.372 450.878 391.571C450.589 391.767 450.366 392.023 450.209 392.338C450.053 392.653 449.975 392.991 449.975 393.352V393.932C449.975 394.426 450.06 394.845 450.231 395.189C450.404 395.53 450.644 395.79 450.951 395.969C451.258 396.145 451.614 396.233 452.02 396.233C452.285 396.233 452.523 396.196 452.736 396.122C452.952 396.045 453.138 395.932 453.295 395.781C453.451 395.628 453.572 395.437 453.657 395.21L454.628 395.483C454.526 395.812 454.354 396.102 454.113 396.352C453.871 396.599 453.573 396.793 453.218 396.932C452.863 397.068 452.464 397.136 452.02 397.136ZM460.897 391.92L459.993 392.176C459.937 392.026 459.853 391.879 459.742 391.737C459.634 391.592 459.486 391.473 459.299 391.379C459.111 391.286 458.871 391.239 458.579 391.239C458.178 391.239 457.844 391.331 457.577 391.516C457.313 391.697 457.181 391.929 457.181 392.21C457.181 392.46 457.272 392.658 457.454 392.803C457.636 392.947 457.92 393.068 458.306 393.165L459.278 393.403C459.863 393.545 460.299 393.763 460.586 394.055C460.873 394.345 461.016 394.719 461.016 395.176C461.016 395.551 460.908 395.886 460.692 396.182C460.479 396.477 460.181 396.71 459.797 396.881C459.414 397.051 458.968 397.136 458.459 397.136C457.792 397.136 457.239 396.991 456.802 396.702C456.364 396.412 456.087 395.989 455.971 395.432L456.925 395.193C457.016 395.545 457.188 395.81 457.441 395.986C457.697 396.162 458.03 396.25 458.442 396.25C458.911 396.25 459.283 396.151 459.559 395.952C459.837 395.75 459.976 395.509 459.976 395.227C459.976 395 459.897 394.81 459.738 394.656C459.579 394.5 459.334 394.384 459.005 394.307L457.914 394.051C457.315 393.909 456.874 393.689 456.593 393.391C456.315 393.089 456.175 392.713 456.175 392.261C456.175 391.892 456.279 391.565 456.486 391.281C456.697 390.997 456.982 390.774 457.343 390.612C457.707 390.45 458.118 390.369 458.579 390.369C459.226 390.369 459.735 390.511 460.104 390.795C460.476 391.08 460.741 391.455 460.897 391.92Z" fill="url(#paint10_linear_5_178)"/>
<g filter="url(#filter6_f_5_178)">
<ellipse cx="329.704" cy="256.305" rx="195.5" ry="101" transform="rotate(-30.5276 329.704 256.305)" fill="#30DFBC" fill-opacity="0.1"/>
</g>
<defs>
<filter id="filter0_f_5_178" x="220.075" y="176" width="369.849" height="289.128" filterUnits="userSpaceOnUse" color-interpolation-filters="sRGB">
<feFlood flood-opacity="0" result="BackgroundImageFix"/>
<feBlend mode="normal" in="SourceGraphic" in2="BackgroundImageFix" result="shape"/>
<feGaussianBlur stdDeviation="3" result="effect1_foregroundBlur_5_178"/>
</filter>
<filter id="filter1_f_5_178" x="439.071" y="176" width="150.893" height="173.947" filterUnits="userSpaceOnUse" color-interpolation-filters="sRGB">
<feFlood flood-opacity="0" result="BackgroundImageFix"/>
<feBlend mode="normal" in="SourceGraphic" in2="BackgroundImageFix" result="shape"/>
<feGaussianBlur stdDeviation="3" result="effect1_foregroundBlur_5_178"/>
</filter>
<filter id="filter2_f_5_178" x="239" y="176" width="262" height="150.564" filterUnits="userSpaceOnUse" color-interpolation-filters="sRGB">
<feFlood flood-opacity="0" result="BackgroundImageFix"/>
<feBlend mode="normal" in="SourceGraphic" in2="BackgroundImageFix" result="shape"/>
<feGaussianBlur stdDeviation="3" result="effect1_foregroundBlur_5_178"/>
</filter>
<filter id="filter3_d_5_178" x="301" y="312.564" width="257" height="146.564" filterUnits="userSpaceOnUse" color-interpolation-filters="sRGB">
<feFlood flood-opacity="0" result="BackgroundImageFix"/>
<feColorMatrix in="SourceAlpha" type="matrix" values="0 0 0 0 0 0 0 0 0 0 0 0 0 0 0 0 0 0 127 0" result="hardAlpha"/>
<feOffset dy="4"/>
<feGaussianBlur stdDeviation="2"/>
<feComposite in2="hardAlpha" operator="out"/>
<feColorMatrix type="matrix" values="0 0 0 0 0.244613 0 0 0 0 0.107435 0 0 0 0 0.309167 0 0 0 0.29 0"/>
<feBlend mode="normal" in2="BackgroundImageFix" result="effect1_dropShadow_5_178"/>
<feBlend mode="normal" in="SourceGraphic" in2="effect1_dropShadow_5_178" result="shape"/>
</filter>
<filter id="filter4_d_5_178" x="430.072" y="174" width="146.893" height="169.947" filterUnits="userSpaceOnUse" color-interpolation-filters="sRGB">
<feFlood flood-opacity="0" result="BackgroundImageFix"/>
<feColorMatrix in="SourceAlpha" type="matrix" values="0 0 0 0 0 0 0 0 0 0 0 0 0 0 0 0 0 0 127 0" result="hardAlpha"/>
<feOffset dy="4"/>
<feGaussianBlur stdDeviation="2"/>
<feComposite in2="hardAlpha" operator="out"/>
<feColorMatrix type="matrix" values="0 0 0 0 0.244613 0 0 0 0 0.107435 0 0 0 0 0.309167 0 0 0 0.29 0"/>
<feBlend mode="normal" in2="BackgroundImageFix" result="effect1_dropShadow_5_178"/>
<feBlend mode="normal" in="SourceGraphic" in2="effect1_dropShadow_5_178" result="shape"/>
</filter>
<filter id="filter5_d_5_178" x="230" y="174" width="258" height="146.564" filterUnits="userSpaceOnUse" color-interpolation-filters="sRGB">
<feFlood flood-opacity="0" result="BackgroundImageFix"/>
<feColorMatrix in="SourceAlpha" type="matrix" values="0 0 0 0 0 0 0 0 0 0 0 0 0 0 0 0 0 0 127 0" result="hardAlpha"/>
<feOffset dy="4"/>
<feGaussianBlur stdDeviation="2"/>
<feComposite in2="hardAlpha" operator="out"/>
<feColorMatrix type="matrix" values="0 0 0 0 0.244613 0 0 0 0 0.107435 0 0 0 0 0.309167 0 0 0 0.29 0"/>
<feBlend mode="normal" in2="BackgroundImageFix" result="effect1_dropShadow_5_178"/>
<feBlend mode="normal" in="SourceGraphic" in2="effect1_dropShadow_5_178" result="shape"/>
</filter>
<filter id="filter6_f_5_178" x="29.6155" y="0.278442" width="600.177" height="512.052" filterUnits="userSpaceOnUse" color-interpolation-filters="sRGB">
<feFlood flood-opacity="0" result="BackgroundImageFix"/>
<feBlend mode="normal" in="SourceGraphic" in2="BackgroundImageFix" result="shape"/>
<feGaussianBlur stdDeviation="62" result="effect1_foregroundBlur_5_178"/>
</filter>
<linearGradient id="paint0_linear_5_178" x1="165" y1="459.128" x2="645" y2="182" gradientUnits="userSpaceOnUse">
<stop stop-color="#15F3C0"/>
<stop offset="1" stop-color="#09022B"/>
</linearGradient>
<linearGradient id="paint1_linear_5_178" x1="485" y1="182" x2="577.747" y2="327.179" gradientUnits="userSpaceOnUse">
<stop stop-color="#15F3C0"/>
<stop offset="1" stop-color="#09022B"/>
</linearGradient>
<linearGradient id="paint2_linear_5_178" x1="245" y1="320.564" x2="478.099" y2="135.517" gradientUnits="userSpaceOnUse">
<stop stop-color="#15F3C0"/>
<stop offset="1" stop-color="#09022B"/>
</linearGradient>
<linearGradient id="paint3_linear_5_178" x1="306.5" y1="470.5" x2="312.5" y2="245" gradientUnits="userSpaceOnUse">
<stop stop-color="#15F3C0"/>
<stop offset="1" stop-color="#09022B"/>
</linearGradient>
<linearGradient id="paint4_linear_5_178" x1="554" y1="312.564" x2="320.494" y2="496.249" gradientUnits="userSpaceOnUse">
<stop stop-color="#15F3C0"/>
<stop offset="1" stop-color="#09022B"/>
</linearGradient>
<linearGradient id="paint5_linear_5_178" x1="474" y1="174" x2="566.747" y2="319.179" gradientUnits="userSpaceOnUse">
<stop stop-color="#15F3C0"/>
<stop offset="1" stop-color="#09022B"/>
</linearGradient>
<linearGradient id="paint6_linear_5_178" x1="234" y1="312.564" x2="467.099" y2="127.517" gradientUnits="userSpaceOnUse">
<stop stop-color="#15F3C0"/>
<stop offset="1" stop-color="#09022B"/>
</linearGradient>
<linearGradient id="paint7_linear_5_178" x1="358.5" y1="220" x2="358.5" y2="250" gradientUnits="userSpaceOnUse">
<stop stop-color="white"/>
<stop offset="1" stop-color="white" stop-opacity="0.7"/>
</linearGradient>
<linearGradient id="paint8_linear_5_178" x1="268" y1="355" x2="268" y2="391" gradientUnits="userSpaceOnUse">
<stop stop-color="white"/>
<stop offset="1" stop-color="white" stop-opacity="0.7"/>
</linearGradient>
<linearGradient id="paint9_linear_5_178" x1="524.5" y1="235" x2="524.5" y2="265" gradientUnits="userSpaceOnUse">
<stop stop-color="white"/>
<stop offset="1" stop-color="white" stop-opacity="0.7"/>
</linearGradient>
<linearGradient id="paint10_linear_5_178" x1="432.5" y1="370" x2="432.5" y2="400" gradientUnits="userSpaceOnUse">
<stop stop-color="white"/>
<stop offset="1" stop-color="white" stop-opacity="0.7"/>
</linearGradient>
</defs>
</svg>
