<svg width="37" height="37" viewBox="0 0 37 37" fill="none" xmlns="http://www.w3.org/2000/svg">
<path d="M27.6183 17.4033C28.1841 17.4033 28.6517 17.8238 28.7257 18.3693L28.7359 18.521L28.7359 19.2661C28.7359 24.5702 24.6304 28.9155 19.4238 29.2975L19.4223 32.6777C19.4223 33.2949 18.9219 33.7953 18.3047 33.7953C17.7389 33.7953 17.2713 33.3749 17.1972 32.8293L17.187 32.6777L17.1871 29.2976C12.0954 28.9248 8.05646 24.7619 7.87946 19.6182L7.87341 19.2661L7.87341 18.521C7.87341 17.9037 8.3738 17.4033 8.99105 17.4033C9.55686 17.4033 10.0245 17.8238 10.0985 18.3693L10.1087 18.521L10.1087 19.2661C10.1087 23.4788 13.4384 26.9139 17.6097 27.083L17.9321 27.0895L18.6772 27.0895C22.89 27.0895 26.325 23.7598 26.4942 19.5885L26.5007 19.2661L26.5007 18.521C26.5007 17.9037 27.0011 17.4033 27.6183 17.4033ZM18.3047 3.9917C21.5967 3.9917 24.2654 6.66041 24.2654 9.95242L24.2654 18.8935C24.2654 22.1855 21.5967 24.8542 18.3047 24.8542C15.0127 24.8542 12.344 22.1855 12.344 18.8935L12.344 9.95242C12.344 6.66041 15.0127 3.9917 18.3047 3.9917ZM18.3047 6.22697C16.2472 6.22697 14.5792 7.89491 14.5792 9.95242L14.5792 18.8935C14.5792 20.951 16.2472 22.619 18.3047 22.619C20.3622 22.619 22.0301 20.951 22.0301 18.8935L22.0301 9.95242C22.0301 7.89491 20.3622 6.22697 18.3047 6.22697Z" fill="#8A8A8A"/>
</svg>
