<svg width="500" height="298" viewBox="0 0 500 298" fill="none" xmlns="http://www.w3.org/2000/svg">
<circle cx="192.5" cy="64" r="4" fill="white"/>
<circle opacity="0.1" cx="192.5" cy="64" r="10" fill="white"/>
<circle cx="134.5" cy="165" r="4" fill="white"/>
<circle opacity="0.1" cx="134.5" cy="165" r="10" fill="white"/>
<circle cx="308.5" cy="64" r="4" fill="white"/>
<circle opacity="0.1" cx="308.5" cy="64" r="10" fill="white"/>
<circle cx="366.5" cy="165" r="4" fill="white"/>
<circle opacity="0.1" cx="366.5" cy="165" r="10" fill="white"/>
<circle cx="308.5" cy="266" r="4" fill="white"/>
<circle opacity="0.1" cx="308.5" cy="266" r="10" fill="white"/>
<circle cx="192.5" cy="266" r="4" fill="white"/>
<circle opacity="0.1" cx="192.5" cy="266" r="10" fill="white"/>
<path opacity="0.7" d="M298.211 82.3616L345.923 165L298.211 247.638L202.789 247.638L155.077 165L202.789 82.3616L298.211 82.3616Z" stroke="white"/>
<path d="M308.711 64.175L366.923 165L308.711 265.825L192.289 265.825L134.077 165L192.289 64.175L308.711 64.175Z" stroke="white" stroke-opacity="0.5"/>
<path opacity="0.6" d="M192.5 64L166.55 32H0.5" stroke="white"/>
<path opacity="0.6" d="M308.5 64L334.45 32H499.5" stroke="white"/>
<path opacity="0.6" d="M192.5 265L166.55 297L0.5 297" stroke="white"/>
<path opacity="0.6" d="M308.5 265L334.45 297L499.5 297" stroke="white"/>
<path opacity="0.6" d="M134.5 164L113.973 192.999L0.5 192.999" stroke="white"/>
<path opacity="0.6" d="M366.5 165L387.027 136.001L499.5 136.001" stroke="white"/>
<path opacity="0.85" d="M2.05185 16L2.05185 4.36364L9.30753 4.36364L9.30753 5.875L3.80753 5.875L3.80753 9.05682L6.4098 9.05682C7.27344 9.05682 8.00639 9.19697 8.60866 9.47727C9.21473 9.75758 9.67685 10.1534 9.99503 10.6648C10.317 11.1761 10.478 11.7784 10.478 12.4716C10.478 13.1648 10.317 13.7765 9.99503 14.3068C9.67685 14.8371 9.21473 15.2519 8.60866 15.5511C8.00639 15.8504 7.27344 16 6.4098 16H2.05185ZM3.80753 14.5227L6.4098 14.5227C6.9098 14.5227 7.33215 14.4242 7.67685 14.2273C8.02533 14.0303 8.28859 13.7746 8.46662 13.4602C8.64844 13.1458 8.73935 12.8087 8.73935 12.4489C8.73935 11.9261 8.53859 11.4773 8.13707 11.1023C7.73556 10.7235 7.1598 10.5341 6.4098 10.5341L3.80753 10.5341L3.80753 14.5227ZM14.0803 13.6193L17.9268 7.27273H19.7564L19.7564 16H18.0916L18.0916 9.64773L14.2621 16H12.4155V7.27273H14.0803V13.6193ZM21.5234 13.6932H23.2621C23.2848 14.0492 23.4458 14.3239 23.745 14.517C24.0481 14.7102 24.4401 14.8068 24.9212 14.8068C25.4098 14.8068 25.8265 14.7027 26.1712 14.4943C26.5159 14.2822 26.6882 13.9545 26.6882 13.5114C26.6882 13.2462 26.6219 13.0152 26.4893 12.8182C26.3606 12.6174 26.1768 12.4621 25.9382 12.3523C25.7034 12.2424 25.425 12.1875 25.103 12.1875H23.6825L23.6825 10.8523H25.103C25.584 10.8523 25.9439 10.7424 26.1825 10.5227C26.4212 10.303 26.5405 10.0284 26.5405 9.69886C26.5405 9.3428 26.4117 9.05682 26.1541 8.84091C25.9003 8.62121 25.5462 8.51136 25.0916 8.51136C24.6295 8.51136 24.245 8.61553 23.9382 8.82386C23.6314 9.02841 23.4704 9.29356 23.4553 9.61932H21.7393C21.7507 9.13068 21.8984 8.70265 22.1825 8.33523C22.4704 7.96402 22.8568 7.67614 23.3416 7.47159C23.8303 7.26326 24.3852 7.15909 25.0064 7.15909C25.6541 7.15909 26.2147 7.26326 26.6882 7.47159C27.1617 7.67992 27.5272 7.9678 27.7848 8.33523C28.0462 8.70265 28.1768 9.125 28.1768 9.60227C28.1768 10.0833 28.0329 10.4773 27.745 10.7841C27.4609 11.0871 27.0897 11.3049 26.6314 11.4375V11.5284C26.9685 11.5511 27.2678 11.6534 27.5291 11.8352C27.7905 12.017 27.995 12.2576 28.1428 12.5568C28.2905 12.8561 28.3643 13.1951 28.3643 13.5739C28.3643 14.108 28.2166 14.5701 27.9212 14.9602C27.6295 15.3504 27.2242 15.6515 26.7053 15.8636C26.1901 16.072 25.6011 16.1761 24.9382 16.1761C24.2943 16.1761 23.7166 16.0758 23.2053 15.875C22.6977 15.6705 22.2943 15.3826 21.995 15.0114C21.6996 14.6402 21.5424 14.2008 21.5234 13.6932ZM36.0334 10.9034V12.375H31.3061L31.3061 10.9034H36.0334ZM31.7834 7.27273L31.7834 16H30.1186L30.1186 7.27273L31.7834 7.27273ZM37.2209 7.27273V16H35.5618V7.27273L37.2209 7.27273ZM43.255 16.1761C42.3951 16.1761 41.6546 15.9924 41.0334 15.625C40.416 15.2538 39.9387 14.733 39.6016 14.0625C39.2682 13.3883 39.1016 12.5985 39.1016 11.6932C39.1016 10.7992 39.2682 10.0114 39.6016 9.32955C39.9387 8.64773 40.4084 8.11553 41.0107 7.73295C41.6167 7.35038 42.325 7.15909 43.1357 7.15909C43.6281 7.15909 44.1054 7.24053 44.5675 7.40341C45.0296 7.56629 45.4444 7.82197 45.8118 8.17045C46.1792 8.51894 46.469 8.97159 46.6811 9.52841C46.8932 10.0814 46.9993 10.7538 46.9993 11.5455V12.1477H40.0618V10.875H45.3345C45.3345 10.428 45.2436 10.0322 45.0618 9.6875C44.88 9.33902 44.6243 9.06439 44.2947 8.86364C43.969 8.66288 43.5864 8.5625 43.147 8.5625C42.6697 8.5625 42.2531 8.67992 41.897 8.91477C41.5447 9.14583 41.272 9.44886 41.0788 9.82386C40.8894 10.1951 40.7947 10.5985 40.7947 11.0341V12.0284C40.7947 12.6117 40.897 13.108 41.1016 13.517C41.3099 13.9261 41.5997 14.2386 41.9709 14.4545C42.3421 14.6667 42.7758 14.7727 43.272 14.7727C43.594 14.7727 43.8875 14.7273 44.1527 14.6364C44.4179 14.5417 44.647 14.4015 44.8402 14.2159C45.0334 14.0303 45.1811 13.8011 45.2834 13.5284L46.8913 13.8182C46.7625 14.2917 46.5315 14.7064 46.1982 15.0625C45.8686 15.4148 45.4538 15.6894 44.9538 15.8864C44.4576 16.0795 43.8913 16.1761 43.255 16.1761ZM52.5604 16.1761C51.7157 16.1761 50.9884 15.9848 50.3786 15.6023C49.7725 15.2159 49.3066 14.6837 48.9808 14.0057C48.6551 13.3277 48.4922 12.5511 48.4922 11.6761C48.4922 10.7898 48.6589 10.0076 48.9922 9.32955C49.3255 8.64773 49.7952 8.11553 50.4013 7.73295C51.0073 7.35038 51.7214 7.15909 52.5433 7.15909C53.2062 7.15909 53.7971 7.2822 54.3161 7.52841C54.835 7.77083 55.2536 8.11174 55.5717 8.55114C55.8937 8.99053 56.085 9.50379 56.1456 10.0909H54.4922C54.4013 9.68182 54.1929 9.32955 53.8672 9.03409C53.5452 8.73864 53.1134 8.59091 52.5717 8.59091C52.0982 8.59091 51.6835 8.71591 51.3274 8.96591C50.9751 9.21212 50.7005 9.56439 50.5036 10.0227C50.3066 10.4773 50.2081 11.0152 50.2081 11.6364C50.2081 12.2727 50.3047 12.822 50.4979 13.2841C50.6911 13.7462 50.9638 14.1042 51.3161 14.358C51.6721 14.6117 52.0907 14.7386 52.5717 14.7386C52.8937 14.7386 53.1854 14.6799 53.4467 14.5625C53.7119 14.4413 53.9335 14.2689 54.1115 14.0455C54.2933 13.822 54.4202 13.553 54.4922 13.2386H56.1456C56.085 13.803 55.9013 14.3068 55.5945 14.75C55.2876 15.1932 54.8767 15.5417 54.3615 15.7955C53.8501 16.0492 53.2498 16.1761 52.5604 16.1761ZM63.1044 10.3466V11.8182L57.9453 11.8182V10.3466L63.1044 10.3466ZM65.3686 16V7.27273L72.4879 7.27273V16H70.8232V8.73864H67.022V16H65.3686ZM74.7592 19.2727V7.27273L76.4183 7.27273V8.6875H76.5604C76.6589 8.50568 76.8009 8.29545 76.9865 8.05682C77.1721 7.81818 77.4297 7.60985 77.7592 7.43182C78.0888 7.25 78.5244 7.15909 79.0661 7.15909C79.7706 7.15909 80.3994 7.33712 80.9524 7.69318C81.5054 8.04924 81.9392 8.5625 82.2536 9.23295C82.5717 9.90341 82.7308 10.7102 82.7308 11.6534C82.7308 12.5966 82.5736 13.4053 82.2592 14.0795C81.9448 14.75 81.513 15.267 80.9638 15.6307C80.4145 15.9905 79.7876 16.1705 79.0831 16.1705C78.5528 16.1705 78.1191 16.0814 77.782 15.9034C77.4486 15.7254 77.1873 15.517 76.9979 15.2784C76.8085 15.0398 76.6626 14.8277 76.5604 14.642H76.4581V19.2727H74.7592ZM76.424 11.6364C76.424 12.25 76.513 12.7879 76.6911 13.25C76.8691 13.7121 77.1267 14.0739 77.4638 14.3352C77.8009 14.5928 78.2138 14.7216 78.7024 14.7216C79.21 14.7216 79.6342 14.5871 79.9751 14.3182C80.3161 14.0455 80.5736 13.6761 80.7479 13.2102C80.9259 12.7443 81.0149 12.2197 81.0149 11.6364C81.0149 11.0606 80.9278 10.5436 80.7536 10.0852C80.5831 9.62689 80.3255 9.26515 79.9808 9C79.6399 8.73485 79.2138 8.60227 78.7024 8.60227C78.21 8.60227 77.7933 8.72917 77.4524 8.98295C77.1153 9.23674 76.8596 9.59091 76.6854 10.0455C76.5111 10.5 76.424 11.0303 76.424 11.6364ZM88.3104 16.1761C87.4922 16.1761 86.7782 15.9886 86.1683 15.6136C85.5585 15.2386 85.085 14.714 84.7479 14.0398C84.4107 13.3655 84.2422 12.5777 84.2422 11.6761C84.2422 10.7708 84.4107 9.97917 84.7479 9.30114C85.085 8.62311 85.5585 8.09659 86.1683 7.72159C86.7782 7.34659 87.4922 7.15909 88.3104 7.15909C89.1286 7.15909 89.8426 7.34659 90.4524 7.72159C91.0623 8.09659 91.5357 8.62311 91.8729 9.30114C92.21 9.97917 92.3786 10.7708 92.3786 11.6761C92.3786 12.5777 92.21 13.3655 91.8729 14.0398C91.5357 14.714 91.0623 15.2386 90.4524 15.6136C89.8426 15.9886 89.1286 16.1761 88.3104 16.1761ZM88.3161 14.75C88.8464 14.75 89.2857 14.6098 89.6342 14.3295C89.9827 14.0492 90.2403 13.6761 90.407 13.2102C90.5774 12.7443 90.6626 12.2311 90.6626 11.6705C90.6626 11.1136 90.5774 10.6023 90.407 10.1364C90.2403 9.66667 89.9827 9.28977 89.6342 9.00568C89.2857 8.72159 88.8464 8.57955 88.3161 8.57955C87.782 8.57955 87.3388 8.72159 86.9865 9.00568C86.638 9.28977 86.3786 9.66667 86.2081 10.1364C86.0414 10.6023 85.9581 11.1136 85.9581 11.6705C85.9581 12.2311 86.0414 12.7443 86.2081 13.2102C86.3786 13.6761 86.638 14.0492 86.9865 14.3295C87.3388 14.6098 87.782 14.75 88.3161 14.75ZM101.394 7.27273V14.608H102.673V18.8125H100.996V16L94.2749 16V7.27273H95.9396V14.5341H99.7351V7.27273H101.394ZM108.224 16.1761C107.364 16.1761 106.623 15.9924 106.002 15.625C105.385 15.2538 104.907 14.733 104.57 14.0625C104.237 13.3883 104.07 12.5985 104.07 11.6932C104.07 10.7992 104.237 10.0114 104.57 9.32955C104.907 8.64773 105.377 8.11553 105.979 7.73295C106.585 7.35038 107.294 7.15909 108.104 7.15909C108.597 7.15909 109.074 7.24053 109.536 7.40341C109.998 7.56629 110.413 7.82197 110.781 8.17045C111.148 8.51894 111.438 8.97159 111.65 9.52841C111.862 10.0814 111.968 10.7538 111.968 11.5455V12.1477L105.031 12.1477V10.875L110.303 10.875C110.303 10.428 110.212 10.0322 110.031 9.6875C109.849 9.33902 109.593 9.06439 109.263 8.86364C108.938 8.66288 108.555 8.5625 108.116 8.5625C107.638 8.5625 107.222 8.67992 106.866 8.91477C106.513 9.14583 106.241 9.44886 106.048 9.82386C105.858 10.1951 105.763 10.5985 105.763 11.0341V12.0284C105.763 12.6117 105.866 13.108 106.07 13.517C106.279 13.9261 106.568 14.2386 106.94 14.4545C107.311 14.6667 107.745 14.7727 108.241 14.7727C108.563 14.7727 108.856 14.7273 109.121 14.6364C109.387 14.5417 109.616 14.4015 109.809 14.2159C110.002 14.0303 110.15 13.8011 110.252 13.5284L111.86 13.8182C111.731 14.2917 111.5 14.7064 111.167 15.0625C110.837 15.4148 110.423 15.6894 109.923 15.8864C109.426 16.0795 108.86 16.1761 108.224 16.1761ZM117.529 16.1761C116.684 16.1761 115.957 15.9848 115.347 15.6023C114.741 15.2159 114.275 14.6837 113.95 14.0057C113.624 13.3277 113.461 12.5511 113.461 11.6761C113.461 10.7898 113.628 10.0076 113.961 9.32955C114.294 8.64773 114.764 8.11553 115.37 7.73295C115.976 7.35038 116.69 7.15909 117.512 7.15909C118.175 7.15909 118.766 7.2822 119.285 7.52841C119.804 7.77083 120.222 8.11174 120.54 8.55114C120.862 8.99053 121.054 9.50379 121.114 10.0909H119.461C119.37 9.68182 119.162 9.32955 118.836 9.03409C118.514 8.73864 118.082 8.59091 117.54 8.59091C117.067 8.59091 116.652 8.71591 116.296 8.96591C115.944 9.21212 115.669 9.56439 115.472 10.0227C115.275 10.4773 115.177 11.0152 115.177 11.6364C115.177 12.2727 115.273 12.822 115.467 13.2841C115.66 13.7462 115.933 14.1042 116.285 14.358C116.641 14.6117 117.059 14.7386 117.54 14.7386C117.862 14.7386 118.154 14.6799 118.415 14.5625C118.681 14.4413 118.902 14.2689 119.08 14.0455C119.262 13.822 119.389 13.553 119.461 13.2386H121.114C121.054 13.803 120.87 14.3068 120.563 14.75C120.256 15.1932 119.845 15.5417 119.33 15.7955C118.819 16.0492 118.219 16.1761 117.529 16.1761ZM126.607 16.1761C125.763 16.1761 125.035 15.9848 124.425 15.6023C123.819 15.2159 123.353 14.6837 123.028 14.0057C122.702 13.3277 122.539 12.5511 122.539 11.6761C122.539 10.7898 122.706 10.0076 123.039 9.32955C123.372 8.64773 123.842 8.11553 124.448 7.73295C125.054 7.35038 125.768 7.15909 126.59 7.15909C127.253 7.15909 127.844 7.2822 128.363 7.52841C128.882 7.77083 129.3 8.11174 129.619 8.55114C129.941 8.99053 130.132 9.50379 130.192 10.0909H128.539C128.448 9.68182 128.24 9.32955 127.914 9.03409C127.592 8.73864 127.16 8.59091 126.619 8.59091C126.145 8.59091 125.73 8.71591 125.374 8.96591C125.022 9.21212 124.747 9.56439 124.55 10.0227C124.353 10.4773 124.255 11.0152 124.255 11.6364C124.255 12.2727 124.352 12.822 124.545 13.2841C124.738 13.7462 125.011 14.1042 125.363 14.358C125.719 14.6117 126.138 14.7386 126.619 14.7386C126.941 14.7386 127.232 14.6799 127.494 14.5625C127.759 14.4413 127.98 14.2689 128.158 14.0455C128.34 13.822 128.467 13.553 128.539 13.2386H130.192C130.132 13.803 129.948 14.3068 129.641 14.75C129.335 15.1932 128.924 15.5417 128.408 15.7955C127.897 16.0492 127.297 16.1761 126.607 16.1761ZM133.288 10.2727H135.822C136.89 10.2727 137.712 10.5379 138.288 11.0682C138.863 11.5985 139.151 12.2822 139.151 13.1193C139.151 13.6648 139.022 14.1553 138.765 14.5909C138.507 15.0265 138.13 15.3712 137.634 15.625C137.138 15.875 136.534 16 135.822 16H132.009V7.27273H133.674V14.5341H135.822C136.31 14.5341 136.712 14.4072 137.026 14.1534C137.341 13.8958 137.498 13.5682 137.498 13.1705C137.498 12.75 137.341 12.4072 137.026 12.142C136.712 11.8731 136.31 11.7386 135.822 11.7386H133.288V10.2727ZM140.39 16V7.27273L142.089 7.27273V16H140.39Z" fill="url(#paint0_linear_509_702)"/>
<path opacity="0.85" d="M470.102 118.449L469.949 122.75H468.199V120H467.381V118.449H470.102ZM459.778 120V108.364H461.46V118.477H467.074V108.364H468.761V120H459.778ZM475.653 120.176C474.794 120.176 474.053 119.992 473.432 119.625C472.814 119.254 472.337 118.733 472 118.062C471.667 117.388 471.5 116.598 471.5 115.693C471.5 114.799 471.667 114.011 472 113.33C472.337 112.648 472.807 112.116 473.409 111.733C474.015 111.35 474.723 111.159 475.534 111.159C476.027 111.159 476.504 111.241 476.966 111.403C477.428 111.566 477.843 111.822 478.21 112.17C478.578 112.519 478.867 112.972 479.08 113.528C479.292 114.081 479.398 114.754 479.398 115.545V116.148H472.46V114.875H477.733C477.733 114.428 477.642 114.032 477.46 113.688C477.278 113.339 477.023 113.064 476.693 112.864C476.367 112.663 475.985 112.562 475.545 112.562C475.068 112.562 474.652 112.68 474.295 112.915C473.943 113.146 473.67 113.449 473.477 113.824C473.288 114.195 473.193 114.598 473.193 115.034V116.028C473.193 116.612 473.295 117.108 473.5 117.517C473.708 117.926 473.998 118.239 474.369 118.455C474.741 118.667 475.174 118.773 475.67 118.773C475.992 118.773 476.286 118.727 476.551 118.636C476.816 118.542 477.045 118.402 477.239 118.216C477.432 118.03 477.58 117.801 477.682 117.528L479.29 117.818C479.161 118.292 478.93 118.706 478.597 119.062C478.267 119.415 477.852 119.689 477.352 119.886C476.856 120.08 476.29 120.176 475.653 120.176ZM480.595 120L480.589 118.528H480.902C481.144 118.528 481.347 118.477 481.51 118.375C481.677 118.269 481.813 118.091 481.919 117.841C482.025 117.591 482.107 117.246 482.163 116.807C482.22 116.364 482.262 115.807 482.288 115.136L482.442 111.273H488.533V120H486.868V112.739H484.016L483.879 115.705C483.845 116.424 483.771 117.053 483.658 117.591C483.548 118.129 483.387 118.578 483.175 118.938C482.963 119.294 482.69 119.561 482.357 119.739C482.023 119.913 481.618 120 481.141 120H480.595ZM492.463 117.619L496.31 111.273H498.139V120H496.474V113.648L492.645 120H490.798V111.273H492.463V117.619Z" fill="url(#paint1_linear_509_702)"/>
<path opacity="0.85" d="M1.77841 269.364H3.51705L3.51705 277.909H3.625L9.54545 269.364H11.1705L11.1705 281H9.41477V272.466H9.30682L3.39773 281H1.77841L1.77841 269.364ZM19.5099 275.903L19.5099 277.375H14.7827V275.903H19.5099ZM15.2599 272.273V281H13.5952V272.273H15.2599ZM20.6974 272.273L20.6974 281H19.0384L19.0384 272.273H20.6974ZM22.1179 283.517V279.528H22.8281C23.0099 279.362 23.1634 279.163 23.2884 278.932C23.4171 278.701 23.5251 278.426 23.6122 278.108C23.7031 277.79 23.7789 277.419 23.8395 276.994C23.9001 276.566 23.9531 276.078 23.9986 275.528L24.2713 272.273H30.2031L30.2031 279.528H31.544V283.517H29.8849V281H23.7997V283.517H22.1179ZM24.6463 279.528H28.544L28.544 273.727H25.794L25.6122 275.528C25.5251 276.445 25.4152 277.241 25.2827 277.915C25.1501 278.585 24.938 279.123 24.6463 279.528ZM34.8693 278.619L38.7159 272.273H40.5455V281H38.8807V274.648L35.0511 281H33.2045V272.273H34.8693V278.619ZM42.8295 281V272.273H44.5284V275.932H45.3466L48.2273 272.273H50.3295L46.9489 276.517L50.3693 281H48.2614L45.6307 277.511H44.5284V281H42.8295ZM54.2287 281.193C53.6757 281.193 53.1757 281.091 52.7287 280.886C52.2817 280.678 51.9276 280.377 51.6662 279.983C51.4086 279.589 51.2798 279.106 51.2798 278.534C51.2798 278.042 51.3745 277.636 51.5639 277.318C51.7533 277 52.009 276.748 52.331 276.562C52.6529 276.377 53.0128 276.237 53.4105 276.142C53.8082 276.047 54.2135 275.975 54.6264 275.926C55.1491 275.866 55.5734 275.816 55.8991 275.778C56.2249 275.737 56.4616 275.67 56.6094 275.58C56.7571 275.489 56.831 275.341 56.831 275.136V275.097C56.831 274.6 56.6908 274.216 56.4105 273.943C56.134 273.67 55.7211 273.534 55.1719 273.534C54.5999 273.534 54.1491 273.661 53.8196 273.915C53.4938 274.165 53.2685 274.443 53.1435 274.75L51.5469 274.386C51.7363 273.856 52.0128 273.428 52.3764 273.102C52.7438 272.773 53.1662 272.534 53.6435 272.386C54.1207 272.235 54.6226 272.159 55.1491 272.159C55.4976 272.159 55.867 272.201 56.2571 272.284C56.651 272.364 57.0185 272.511 57.3594 272.727C57.7041 272.943 57.9863 273.252 58.206 273.653C58.4257 274.051 58.5355 274.568 58.5355 275.205V281H56.8764V279.807H56.8082C56.6984 280.027 56.5336 280.242 56.3139 280.455C56.0942 280.667 55.812 280.843 55.4673 280.983C55.1226 281.123 54.7098 281.193 54.2287 281.193ZM54.598 279.83C55.0677 279.83 55.4692 279.737 55.8026 279.551C56.1397 279.366 56.3954 279.123 56.5696 278.824C56.7476 278.521 56.8366 278.197 56.8366 277.852V276.727C56.776 276.788 56.6586 276.845 56.4844 276.898C56.3139 276.947 56.1188 276.991 55.8991 277.028C55.6795 277.062 55.4654 277.095 55.2571 277.125C55.0488 277.152 54.8745 277.174 54.7344 277.193C54.4048 277.235 54.1037 277.305 53.831 277.403C53.562 277.502 53.3461 277.644 53.1832 277.83C53.0241 278.011 52.9446 278.254 52.9446 278.557C52.9446 278.977 53.0999 279.295 53.4105 279.511C53.7211 279.723 54.117 279.83 54.598 279.83ZM59.7159 273.739V272.273H67.0795V273.739H64.233V281H62.5739V273.739H59.7159ZM72.1463 281.176C71.3281 281.176 70.6141 280.989 70.0043 280.614C69.3944 280.239 68.9209 279.714 68.5838 279.04C68.2467 278.366 68.0781 277.578 68.0781 276.676C68.0781 275.771 68.2467 274.979 68.5838 274.301C68.9209 273.623 69.3944 273.097 70.0043 272.722C70.6141 272.347 71.3281 272.159 72.1463 272.159C72.9645 272.159 73.6785 272.347 74.2884 272.722C74.8982 273.097 75.3717 273.623 75.7088 274.301C76.0459 274.979 76.2145 275.771 76.2145 276.676C76.2145 277.578 76.0459 278.366 75.7088 279.04C75.3717 279.714 74.8982 280.239 74.2884 280.614C73.6785 280.989 72.9645 281.176 72.1463 281.176ZM72.152 279.75C72.6823 279.75 73.1217 279.61 73.4702 279.33C73.8187 279.049 74.0762 278.676 74.2429 278.21C74.4134 277.744 74.4986 277.231 74.4986 276.67C74.4986 276.114 74.4134 275.602 74.2429 275.136C74.0762 274.667 73.8187 274.29 73.4702 274.006C73.1217 273.722 72.6823 273.58 72.152 273.58C71.6179 273.58 71.1747 273.722 70.8224 274.006C70.474 274.29 70.2145 274.667 70.044 275.136C69.8774 275.602 69.794 276.114 69.794 276.67C69.794 277.231 69.8774 277.744 70.044 278.21C70.2145 278.676 70.474 279.049 70.8224 279.33C71.1747 279.61 71.6179 279.75 72.152 279.75ZM78.1108 284.273V272.273H79.7699V273.688H79.9119C80.0104 273.506 80.1525 273.295 80.3381 273.057C80.5237 272.818 80.7813 272.61 81.1108 272.432C81.4403 272.25 81.8759 272.159 82.4176 272.159C83.1222 272.159 83.7509 272.337 84.304 272.693C84.857 273.049 85.2907 273.562 85.6051 274.233C85.9233 274.903 86.0824 275.71 86.0824 276.653C86.0824 277.597 85.9252 278.405 85.6108 279.08C85.2964 279.75 84.8646 280.267 84.3153 280.631C83.7661 280.991 83.1392 281.17 82.4347 281.17C81.9044 281.17 81.4706 281.081 81.1335 280.903C80.8002 280.725 80.5388 280.517 80.3494 280.278C80.16 280.04 80.0142 279.828 79.9119 279.642H79.8097V284.273H78.1108ZM79.7756 276.636C79.7756 277.25 79.8646 277.788 80.0426 278.25C80.2206 278.712 80.4782 279.074 80.8153 279.335C81.1525 279.593 81.5653 279.722 82.054 279.722C82.5616 279.722 82.9858 279.587 83.3267 279.318C83.6676 279.045 83.9252 278.676 84.0994 278.21C84.2775 277.744 84.3665 277.22 84.3665 276.636C84.3665 276.061 84.2794 275.544 84.1051 275.085C83.9347 274.627 83.6771 274.265 83.3324 274C82.9915 273.735 82.5653 273.602 82.054 273.602C81.5616 273.602 81.1449 273.729 80.804 273.983C80.4669 274.237 80.2112 274.591 80.0369 275.045C79.8627 275.5 79.7756 276.03 79.7756 276.636ZM89.2642 275.273H91.7983C92.8665 275.273 93.6884 275.538 94.2642 276.068C94.84 276.598 95.1278 277.282 95.1278 278.119C95.1278 278.665 94.9991 279.155 94.7415 279.591C94.4839 280.027 94.107 280.371 93.6108 280.625C93.1146 280.875 92.5104 281 91.7983 281H87.9858V272.273H89.6506V279.534H91.7983C92.2869 279.534 92.6884 279.407 93.0028 279.153C93.3172 278.896 93.4744 278.568 93.4744 278.17C93.4744 277.75 93.3172 277.407 93.0028 277.142C92.6884 276.873 92.2869 276.739 91.7983 276.739H89.2642V275.273ZM96.3665 281V272.273H98.0653V281H96.3665Z" fill="url(#paint2_linear_509_702)"/>
<path opacity="0.85" d="M1.77841 165.364H3.90909L7.61364 174.409H7.75L11.4545 165.364H13.5852L13.5852 177H11.9148V168.58H11.8068L8.375 176.983H6.98864L3.55682 168.574H3.44886L3.44886 177H1.77841L1.77841 165.364ZM19.7628 177.176C18.9029 177.176 18.1624 176.992 17.5412 176.625C16.9238 176.254 16.4465 175.733 16.1094 175.062C15.776 174.388 15.6094 173.598 15.6094 172.693C15.6094 171.799 15.776 171.011 16.1094 170.33C16.4465 169.648 16.9162 169.116 17.5185 168.733C18.1245 168.35 18.8329 168.159 19.6435 168.159C20.1359 168.159 20.6132 168.241 21.0753 168.403C21.5374 168.566 21.9522 168.822 22.3196 169.17C22.687 169.519 22.9768 169.972 23.1889 170.528C23.401 171.081 23.5071 171.754 23.5071 172.545V173.148H16.5696L16.5696 171.875H21.8423C21.8423 171.428 21.7514 171.032 21.5696 170.688C21.3878 170.339 21.1321 170.064 20.8026 169.864C20.4768 169.663 20.0942 169.562 19.6548 169.562C19.1776 169.562 18.7609 169.68 18.4048 169.915C18.0526 170.146 17.7798 170.449 17.5866 170.824C17.3973 171.195 17.3026 171.598 17.3026 172.034L17.3026 173.028C17.3026 173.612 17.4048 174.108 17.6094 174.517C17.8177 174.926 18.1075 175.239 18.4787 175.455C18.8499 175.667 19.2836 175.773 19.7798 175.773C20.1018 175.773 20.3954 175.727 20.6605 175.636C20.9257 175.542 21.1548 175.402 21.348 175.216C21.5412 175.03 21.6889 174.801 21.7912 174.528L23.3991 174.818C23.2704 175.292 23.0393 175.706 22.706 176.062C22.3764 176.415 21.9616 176.689 21.4616 176.886C20.9654 177.08 20.3991 177.176 19.7628 177.176ZM24.6222 169.739V168.273H31.9858V169.739H29.1392L29.1392 177H27.4801L27.4801 169.739H24.6222ZM33.7827 180.273V168.273H35.4418V169.688H35.5838C35.6823 169.506 35.8243 169.295 36.0099 169.057C36.1955 168.818 36.4531 168.61 36.7827 168.432C37.1122 168.25 37.5478 168.159 38.0895 168.159C38.794 168.159 39.4228 168.337 39.9759 168.693C40.5289 169.049 40.9626 169.562 41.277 170.233C41.5952 170.903 41.7543 171.71 41.7543 172.653C41.7543 173.597 41.5971 174.405 41.2827 175.08C40.9683 175.75 40.5365 176.267 39.9872 176.631C39.438 176.991 38.8111 177.17 38.1065 177.17C37.5762 177.17 37.1425 177.081 36.8054 176.903C36.4721 176.725 36.2107 176.517 36.0213 176.278C35.8319 176.04 35.6861 175.828 35.5838 175.642H35.4815V180.273H33.7827ZM35.4474 172.636C35.4474 173.25 35.5365 173.788 35.7145 174.25C35.8925 174.712 36.1501 175.074 36.4872 175.335C36.8243 175.593 37.2372 175.722 37.7259 175.722C38.2334 175.722 38.6577 175.587 38.9986 175.318C39.3395 175.045 39.5971 174.676 39.7713 174.21C39.9493 173.744 40.0384 173.22 40.0384 172.636C40.0384 172.061 39.9512 171.544 39.777 171.085C39.6065 170.627 39.349 170.265 39.0043 170C38.6634 169.735 38.2372 169.602 37.7259 169.602C37.2334 169.602 36.8168 169.729 36.4759 169.983C36.1387 170.237 35.883 170.591 35.7088 171.045C35.5346 171.5 35.4474 172.03 35.4474 172.636ZM45.3224 174.619L49.169 168.273H50.9986V177H49.3338V170.648L45.5043 177H43.6577V168.273H45.3224V174.619ZM53.2827 177V168.273H54.9815V171.932H55.7997L58.6804 168.273H60.7827L57.402 172.517L60.8224 177H58.7145L56.0838 173.511H54.9815V177H53.2827ZM63.8068 174.619L67.6534 168.273H69.483V177H67.8182V170.648L63.9886 177H62.142V168.273H63.8068V174.619Z" fill="url(#paint3_linear_509_702)"/>
<path opacity="0.85" d="M427.443 8.14773H425.67C425.602 7.76894 425.475 7.43561 425.29 7.14773C425.104 6.85985 424.877 6.61553 424.608 6.41477C424.339 6.21401 424.038 6.0625 423.705 5.96023C423.375 5.85795 423.025 5.80682 422.653 5.80682C421.983 5.80682 421.383 5.97538 420.852 6.3125C420.326 6.64962 419.909 7.14394 419.602 7.79545C419.299 8.44697 419.148 9.24242 419.148 10.1818C419.148 11.1288 419.299 11.928 419.602 12.5795C419.909 13.2311 420.328 13.7235 420.858 14.0568C421.388 14.3902 421.985 14.5568 422.648 14.5568C423.015 14.5568 423.364 14.5076 423.693 14.4091C424.027 14.3068 424.328 14.1572 424.597 13.9602C424.866 13.7633 425.093 13.5227 425.278 13.2386C425.468 12.9508 425.598 12.6212 425.67 12.25L427.443 12.2557C427.348 12.8277 427.165 13.3542 426.892 13.8352C426.623 14.3125 426.277 14.7254 425.852 15.0739C425.432 15.4186 424.951 15.6856 424.409 15.875C423.867 16.0644 423.277 16.1591 422.636 16.1591C421.629 16.1591 420.731 15.9205 419.943 15.4432C419.155 14.9621 418.534 14.2746 418.08 13.3807C417.629 12.4867 417.403 11.4205 417.403 10.1818C417.403 8.93939 417.631 7.87311 418.085 6.98295C418.54 6.08901 419.161 5.40341 419.949 4.92614C420.737 4.44508 421.633 4.20455 422.636 4.20455C423.254 4.20455 423.83 4.29356 424.364 4.47159C424.902 4.64583 425.384 4.90341 425.812 5.24432C426.241 5.58144 426.595 5.99432 426.875 6.48295C427.155 6.9678 427.345 7.52273 427.443 8.14773ZM428.919 8.73864V7.27273L436.283 7.27273V8.73864H433.436V16H431.777V8.73864H428.919ZM438.08 19.2727V7.27273H439.739V8.6875H439.881C439.979 8.50568 440.121 8.29545 440.307 8.05682C440.492 7.81818 440.75 7.60985 441.08 7.43182C441.409 7.25 441.845 7.15909 442.386 7.15909C443.091 7.15909 443.72 7.33712 444.273 7.69318C444.826 8.04924 445.259 8.5625 445.574 9.23295C445.892 9.90341 446.051 10.7102 446.051 11.6534C446.051 12.5966 445.894 13.4053 445.58 14.0795C445.265 14.75 444.833 15.267 444.284 15.6307C443.735 15.9905 443.108 16.1705 442.403 16.1705C441.873 16.1705 441.439 16.0814 441.102 15.9034C440.769 15.7254 440.508 15.517 440.318 15.2784C440.129 15.0398 439.983 14.8277 439.881 14.642H439.778V19.2727H438.08ZM439.744 11.6364C439.744 12.25 439.833 12.7879 440.011 13.25C440.189 13.7121 440.447 14.0739 440.784 14.3352C441.121 14.5928 441.534 14.7216 442.023 14.7216C442.53 14.7216 442.955 14.5871 443.295 14.3182C443.636 14.0455 443.894 13.6761 444.068 13.2102C444.246 12.7443 444.335 12.2197 444.335 11.6364C444.335 11.0606 444.248 10.5436 444.074 10.0852C443.903 9.62689 443.646 9.26515 443.301 9C442.96 8.73485 442.534 8.60227 442.023 8.60227C441.53 8.60227 441.114 8.72917 440.773 8.98295C440.436 9.23674 440.18 9.59091 440.006 10.0455C439.831 10.5 439.744 11.0303 439.744 11.6364ZM450.494 16.1932C449.941 16.1932 449.441 16.0909 448.994 15.8864C448.547 15.678 448.193 15.3769 447.932 14.983C447.674 14.589 447.545 14.1061 447.545 13.5341C447.545 13.0417 447.64 12.6364 447.83 12.3182C448.019 12 448.275 11.7481 448.597 11.5625C448.919 11.3769 449.278 11.2367 449.676 11.142C450.074 11.0473 450.479 10.9754 450.892 10.9261C451.415 10.8655 451.839 10.8163 452.165 10.7784C452.491 10.7367 452.727 10.6705 452.875 10.5795C453.023 10.4886 453.097 10.3409 453.097 10.1364V10.0966C453.097 9.60038 452.956 9.21591 452.676 8.94318C452.4 8.67045 451.987 8.53409 451.438 8.53409C450.866 8.53409 450.415 8.66098 450.085 8.91477C449.759 9.16477 449.534 9.44318 449.409 9.75L447.812 9.38636C448.002 8.85606 448.278 8.42803 448.642 8.10227C449.009 7.77273 449.432 7.53409 449.909 7.38636C450.386 7.23485 450.888 7.15909 451.415 7.15909C451.763 7.15909 452.133 7.20076 452.523 7.28409C452.917 7.36364 453.284 7.51136 453.625 7.72727C453.97 7.94318 454.252 8.25189 454.472 8.65341C454.691 9.05114 454.801 9.56818 454.801 10.2045V16H453.142V14.8068H453.074C452.964 15.0265 452.799 15.2424 452.58 15.4545C452.36 15.6667 452.078 15.8428 451.733 15.983C451.388 16.1231 450.975 16.1932 450.494 16.1932ZM450.864 14.8295C451.333 14.8295 451.735 14.7367 452.068 14.5511C452.405 14.3655 452.661 14.1231 452.835 13.8239C453.013 13.5208 453.102 13.197 453.102 12.8523V11.7273C453.042 11.7879 452.924 11.8447 452.75 11.8977C452.58 11.947 452.384 11.9905 452.165 12.0284C451.945 12.0625 451.731 12.0947 451.523 12.125C451.314 12.1515 451.14 12.1742 451 12.1932C450.67 12.2348 450.369 12.3049 450.097 12.4034C449.828 12.5019 449.612 12.6439 449.449 12.8295C449.29 13.0114 449.21 13.2538 449.21 13.5568C449.21 13.9773 449.366 14.2955 449.676 14.5114C449.987 14.7235 450.383 14.8295 450.864 14.8295ZM455.982 8.73864V7.27273L463.345 7.27273V8.73864H460.499V16H458.839V8.73864H455.982ZM468.497 16.1761C467.637 16.1761 466.897 15.9924 466.276 15.625C465.658 15.2538 465.181 14.733 464.844 14.0625C464.51 13.3883 464.344 12.5985 464.344 11.6932C464.344 10.7992 464.51 10.0114 464.844 9.32955C465.181 8.64773 465.651 8.11553 466.253 7.73295C466.859 7.35038 467.567 7.15909 468.378 7.15909C468.87 7.15909 469.348 7.24053 469.81 7.40341C470.272 7.56629 470.687 7.82197 471.054 8.17045C471.421 8.51894 471.711 8.97159 471.923 9.52841C472.135 10.0814 472.241 10.7538 472.241 11.5455V12.1477L465.304 12.1477V10.875L470.577 10.875C470.577 10.428 470.486 10.0322 470.304 9.6875C470.122 9.33902 469.866 9.06439 469.537 8.86364C469.211 8.66288 468.829 8.5625 468.389 8.5625C467.912 8.5625 467.495 8.67992 467.139 8.91477C466.787 9.14583 466.514 9.44886 466.321 9.82386C466.132 10.1951 466.037 10.5985 466.037 11.0341V12.0284C466.037 12.6117 466.139 13.108 466.344 13.517C466.552 13.9261 466.842 14.2386 467.213 14.4545C467.584 14.6667 468.018 14.7727 468.514 14.7727C468.836 14.7727 469.13 14.7273 469.395 14.6364C469.66 14.5417 469.889 14.4015 470.082 14.2159C470.276 14.0303 470.423 13.8011 470.526 13.5284L472.134 13.8182C472.005 14.2917 471.774 14.7064 471.44 15.0625C471.111 15.4148 470.696 15.6894 470.196 15.8864C469.7 16.0795 469.134 16.1761 468.497 16.1761ZM479.706 7.27273V8.73864L475.803 8.73864V16H474.126V7.27273L479.706 7.27273ZM483.166 13.6193L487.013 7.27273H488.842V16H487.178V9.64773L483.348 16H481.501V7.27273H483.166V13.6193ZM496.331 16V8.72159H494.24C493.744 8.72159 493.357 8.83712 493.081 9.06818C492.804 9.29924 492.666 9.60227 492.666 9.97727C492.666 10.3485 492.793 10.6477 493.047 10.875C493.304 11.0985 493.664 11.2102 494.126 11.2102H496.825V12.5852H494.126C493.482 12.5852 492.926 12.4792 492.456 12.267C491.99 12.0511 491.63 11.7462 491.376 11.3523C491.126 10.9583 491.001 10.4924 491.001 9.95455C491.001 9.4053 491.13 8.93182 491.388 8.53409C491.649 8.13258 492.022 7.82197 492.507 7.60227C492.996 7.38258 493.573 7.27273 494.24 7.27273L497.928 7.27273V16H496.331ZM490.604 16L493.064 11.5909H494.803L492.342 16H490.604Z" fill="url(#paint4_linear_509_702)"/>
<path opacity="0.85" d="M407.682 281L403.773 275.784H402.534V281H400.778V269.364H402.534V274.278H403.108L407.506 269.364H409.648L404.994 274.574L409.824 281H407.682ZM414.349 281.176C413.531 281.176 412.817 280.989 412.207 280.614C411.598 280.239 411.124 279.714 410.787 279.04C410.45 278.366 410.281 277.578 410.281 276.676C410.281 275.771 410.45 274.979 410.787 274.301C411.124 273.623 411.598 273.097 412.207 272.722C412.817 272.347 413.531 272.159 414.349 272.159C415.168 272.159 415.882 272.347 416.491 272.722C417.101 273.097 417.575 273.623 417.912 274.301C418.249 274.979 418.418 275.771 418.418 276.676C418.418 277.578 418.249 278.366 417.912 279.04C417.575 279.714 417.101 280.239 416.491 280.614C415.882 280.989 415.168 281.176 414.349 281.176ZM414.355 279.75C414.885 279.75 415.325 279.61 415.673 279.33C416.022 279.049 416.279 278.676 416.446 278.21C416.616 277.744 416.702 277.231 416.702 276.67C416.702 276.114 416.616 275.602 416.446 275.136C416.279 274.667 416.022 274.29 415.673 274.006C415.325 273.722 414.885 273.58 414.355 273.58C413.821 273.58 413.378 273.722 413.026 274.006C412.677 274.29 412.418 274.667 412.247 275.136C412.08 275.602 411.997 276.114 411.997 276.67C411.997 277.231 412.08 277.744 412.247 278.21C412.418 278.676 412.677 279.049 413.026 279.33C413.378 279.61 413.821 279.75 414.355 279.75ZM425.212 278.898L428.03 272.273H429.496L425.842 281H424.581L421.001 272.273H422.45L425.212 278.898ZM421.979 272.273V281H420.314V272.273H421.979ZM428.49 281V272.273H430.143V281H428.49ZM432.408 281V272.273H439.527V281H437.862V273.739H434.061V281H432.408ZM445.474 281.176C444.656 281.176 443.942 280.989 443.332 280.614C442.723 280.239 442.249 279.714 441.912 279.04C441.575 278.366 441.406 277.578 441.406 276.676C441.406 275.771 441.575 274.979 441.912 274.301C442.249 273.623 442.723 273.097 443.332 272.722C443.942 272.347 444.656 272.159 445.474 272.159C446.293 272.159 447.007 272.347 447.616 272.722C448.226 273.097 448.7 273.623 449.037 274.301C449.374 274.979 449.543 275.771 449.543 276.676C449.543 277.578 449.374 278.366 449.037 279.04C448.7 279.714 448.226 280.239 447.616 280.614C447.007 280.989 446.293 281.176 445.474 281.176ZM445.48 279.75C446.01 279.75 446.45 279.61 446.798 279.33C447.147 279.049 447.404 278.676 447.571 278.21C447.741 277.744 447.827 277.231 447.827 276.67C447.827 276.114 447.741 275.602 447.571 275.136C447.404 274.667 447.147 274.29 446.798 274.006C446.45 273.722 446.01 273.58 445.48 273.58C444.946 273.58 444.503 273.722 444.151 274.006C443.802 274.29 443.543 274.667 443.372 275.136C443.205 275.602 443.122 276.114 443.122 276.67C443.122 277.231 443.205 277.744 443.372 278.21C443.543 278.676 443.802 279.049 444.151 279.33C444.503 279.61 444.946 279.75 445.48 279.75ZM457.354 275.903V277.375H452.626V275.903H457.354ZM453.104 272.273V281H451.439V272.273H453.104ZM458.541 272.273V281H456.882V272.273H458.541ZM464.575 281.176C463.715 281.176 462.975 280.992 462.354 280.625C461.736 280.254 461.259 279.733 460.922 279.062C460.589 278.388 460.422 277.598 460.422 276.693C460.422 275.799 460.589 275.011 460.922 274.33C461.259 273.648 461.729 273.116 462.331 272.733C462.937 272.35 463.645 272.159 464.456 272.159C464.948 272.159 465.426 272.241 465.888 272.403C466.35 272.566 466.765 272.822 467.132 273.17C467.5 273.519 467.789 273.972 468.001 274.528C468.214 275.081 468.32 275.754 468.32 276.545V277.148H461.382V275.875H466.655C466.655 275.428 466.564 275.032 466.382 274.688C466.2 274.339 465.945 274.064 465.615 273.864C465.289 273.663 464.907 273.562 464.467 273.562C463.99 273.562 463.573 273.68 463.217 273.915C462.865 274.146 462.592 274.449 462.399 274.824C462.21 275.195 462.115 275.598 462.115 276.034V277.028C462.115 277.612 462.217 278.108 462.422 278.517C462.63 278.926 462.92 279.239 463.291 279.455C463.662 279.667 464.096 279.773 464.592 279.773C464.914 279.773 465.208 279.727 465.473 279.636C465.738 279.542 465.967 279.402 466.161 279.216C466.354 279.03 466.501 278.801 466.604 278.528L468.212 278.818C468.083 279.292 467.852 279.706 467.518 280.062C467.189 280.415 466.774 280.689 466.274 280.886C465.778 281.08 465.212 281.176 464.575 281.176ZM476.119 275.903V277.375H471.392V275.903H476.119ZM471.869 272.273V281H470.205V272.273H471.869ZM477.307 272.273V281H475.648V272.273H477.307ZM478.497 273.739V272.273H485.861V273.739H483.014V281H481.355V273.739H478.497ZM488.936 275.273H491.47C492.538 275.273 493.36 275.538 493.936 276.068C494.512 276.598 494.8 277.282 494.8 278.119C494.8 278.665 494.671 279.155 494.413 279.591C494.156 280.027 493.779 280.371 493.283 280.625C492.786 280.875 492.182 281 491.47 281H487.658V272.273H489.322V279.534H491.47C491.959 279.534 492.36 279.407 492.675 279.153C492.989 278.896 493.146 278.568 493.146 278.17C493.146 277.75 492.989 277.407 492.675 277.142C492.36 276.873 491.959 276.739 491.47 276.739H488.936V275.273ZM496.038 281V272.273H497.737V281H496.038Z" fill="url(#paint5_linear_509_702)"/>
<path opacity="0.85" d="M206.626 150.705H208.722C209.609 150.705 210.395 150.9 211.08 151.29C211.77 151.676 212.309 152.22 212.7 152.92C213.094 153.617 213.29 154.428 213.29 155.352C213.29 156.269 213.094 157.074 212.7 157.767C212.309 158.46 211.77 159.002 211.08 159.392C210.395 159.778 209.609 159.972 208.722 159.972H206.626C205.739 159.972 204.951 159.78 204.262 159.398C203.573 159.011 203.031 158.473 202.637 157.784C202.247 157.095 202.052 156.29 202.052 155.369C202.052 154.441 202.249 153.627 202.643 152.926C203.037 152.225 203.576 151.68 204.262 151.29C204.951 150.9 205.739 150.705 206.626 150.705ZM206.626 152.222C206.02 152.222 205.503 152.348 205.075 152.602C204.647 152.852 204.319 153.212 204.092 153.682C203.864 154.152 203.751 154.714 203.751 155.369C203.751 156.009 203.864 156.561 204.092 157.023C204.323 157.481 204.652 157.835 205.08 158.085C205.508 158.331 206.023 158.455 206.626 158.455H208.728C209.33 158.455 209.844 158.331 210.268 158.085C210.696 157.835 211.022 157.479 211.245 157.017C211.472 156.551 211.586 155.996 211.586 155.352C211.586 154.705 211.472 154.148 211.245 153.682C211.022 153.212 210.696 152.852 210.268 152.602C209.844 152.348 209.33 152.222 208.728 152.222H206.626ZM208.54 149.159V161.477H206.819V149.159H208.54ZM215.337 164.273V152.273H216.996V153.688H217.138C217.237 153.506 217.379 153.295 217.565 153.057C217.75 152.818 218.008 152.61 218.337 152.432C218.667 152.25 219.103 152.159 219.644 152.159C220.349 152.159 220.978 152.337 221.531 152.693C222.084 153.049 222.517 153.562 222.832 154.233C223.15 154.903 223.309 155.71 223.309 156.653C223.309 157.597 223.152 158.405 222.837 159.08C222.523 159.75 222.091 160.267 221.542 160.631C220.993 160.991 220.366 161.17 219.661 161.17C219.131 161.17 218.697 161.081 218.36 160.903C218.027 160.725 217.765 160.517 217.576 160.278C217.387 160.04 217.241 159.828 217.138 159.642H217.036V164.273H215.337ZM217.002 156.636C217.002 157.25 217.091 157.788 217.269 158.25C217.447 158.712 217.705 159.074 218.042 159.335C218.379 159.593 218.792 159.722 219.281 159.722C219.788 159.722 220.212 159.587 220.553 159.318C220.894 159.045 221.152 158.676 221.326 158.21C221.504 157.744 221.593 157.22 221.593 156.636C221.593 156.061 221.506 155.544 221.332 155.085C221.161 154.627 220.904 154.265 220.559 154C220.218 153.735 219.792 153.602 219.281 153.602C218.788 153.602 218.371 153.729 218.031 153.983C217.693 154.237 217.438 154.591 217.263 155.045C217.089 155.5 217.002 156.03 217.002 156.636ZM228.974 161.176C228.114 161.176 227.373 160.992 226.752 160.625C226.135 160.254 225.657 159.733 225.32 159.062C224.987 158.388 224.82 157.598 224.82 156.693C224.82 155.799 224.987 155.011 225.32 154.33C225.657 153.648 226.127 153.116 226.729 152.733C227.335 152.35 228.044 152.159 228.854 152.159C229.347 152.159 229.824 152.241 230.286 152.403C230.748 152.566 231.163 152.822 231.531 153.17C231.898 153.519 232.188 153.972 232.4 154.528C232.612 155.081 232.718 155.754 232.718 156.545V157.148H225.781V155.875H231.053C231.053 155.428 230.962 155.032 230.781 154.688C230.599 154.339 230.343 154.064 230.013 153.864C229.688 153.663 229.305 153.562 228.866 153.562C228.388 153.562 227.972 153.68 227.616 153.915C227.263 154.146 226.991 154.449 226.798 154.824C226.608 155.195 226.513 155.598 226.513 156.034V157.028C226.513 157.612 226.616 158.108 226.82 158.517C227.029 158.926 227.318 159.239 227.69 159.455C228.061 159.667 228.495 159.773 228.991 159.773C229.313 159.773 229.606 159.727 229.871 159.636C230.137 159.542 230.366 159.402 230.559 159.216C230.752 159.03 230.9 158.801 231.002 158.528L232.61 158.818C232.481 159.292 232.25 159.706 231.917 160.062C231.587 160.415 231.173 160.689 230.673 160.886C230.176 161.08 229.61 161.176 228.974 161.176ZM236.268 158.619L240.114 152.273H241.944V161H240.279V154.648L236.45 161H234.603V152.273H236.268V158.619ZM239.387 149.318H240.785C240.785 149.958 240.558 150.479 240.103 150.881C239.652 151.278 239.042 151.477 238.273 151.477C237.508 151.477 236.9 151.278 236.45 150.881C235.999 150.479 235.773 149.958 235.773 149.318H237.165C237.165 149.602 237.249 149.854 237.415 150.074C237.582 150.29 237.868 150.398 238.273 150.398C238.671 150.398 238.955 150.29 239.126 150.074C239.3 149.858 239.387 149.606 239.387 149.318ZM249.126 158.898L251.944 152.273H253.41L249.756 161H248.495L244.915 152.273H246.364L249.126 158.898ZM245.893 152.273V161H244.228V152.273H245.893ZM252.404 161V152.273H254.058V161H252.404ZM256.322 161V152.273H259.941C260.926 152.273 261.706 152.483 262.282 152.903C262.858 153.32 263.146 153.886 263.146 154.602C263.146 155.114 262.983 155.519 262.657 155.818C262.331 156.117 261.899 156.318 261.362 156.42C261.752 156.466 262.11 156.583 262.435 156.773C262.761 156.958 263.022 157.208 263.219 157.523C263.42 157.837 263.521 158.212 263.521 158.648C263.521 159.11 263.401 159.519 263.163 159.875C262.924 160.227 262.577 160.504 262.123 160.705C261.672 160.902 261.129 161 260.492 161H256.322ZM257.918 159.58H260.492C260.913 159.58 261.242 159.479 261.481 159.278C261.719 159.078 261.839 158.805 261.839 158.46C261.839 158.055 261.719 157.737 261.481 157.506C261.242 157.271 260.913 157.153 260.492 157.153H257.918V159.58ZM257.918 155.909H259.958C260.276 155.909 260.549 155.864 260.776 155.773C261.007 155.682 261.183 155.553 261.305 155.386C261.43 155.216 261.492 155.015 261.492 154.784C261.492 154.447 261.354 154.184 261.077 153.994C260.801 153.805 260.422 153.71 259.941 153.71H257.918V155.909ZM269.06 161.176C268.242 161.176 267.528 160.989 266.918 160.614C266.308 160.239 265.835 159.714 265.498 159.04C265.161 158.366 264.992 157.578 264.992 156.676C264.992 155.771 265.161 154.979 265.498 154.301C265.835 153.623 266.308 153.097 266.918 152.722C267.528 152.347 268.242 152.159 269.06 152.159C269.879 152.159 270.593 152.347 271.202 152.722C271.812 153.097 272.286 153.623 272.623 154.301C272.96 154.979 273.129 155.771 273.129 156.676C273.129 157.578 272.96 158.366 272.623 159.04C272.286 159.714 271.812 160.239 271.202 160.614C270.593 160.989 269.879 161.176 269.06 161.176ZM269.066 159.75C269.596 159.75 270.036 159.61 270.384 159.33C270.733 159.049 270.99 158.676 271.157 158.21C271.327 157.744 271.413 157.231 271.413 156.67C271.413 156.114 271.327 155.602 271.157 155.136C270.99 154.667 270.733 154.29 270.384 154.006C270.036 153.722 269.596 153.58 269.066 153.58C268.532 153.58 268.089 153.722 267.737 154.006C267.388 154.29 267.129 154.667 266.958 155.136C266.791 155.602 266.708 156.114 266.708 156.67C266.708 157.231 266.791 157.744 266.958 158.21C267.129 158.676 267.388 159.049 267.737 159.33C268.089 159.61 268.532 159.75 269.066 159.75ZM275.025 164.273V152.273H276.684V153.688H276.826C276.924 153.506 277.067 153.295 277.252 153.057C277.438 152.818 277.695 152.61 278.025 152.432C278.354 152.25 278.79 152.159 279.332 152.159C280.036 152.159 280.665 152.337 281.218 152.693C281.771 153.049 282.205 153.562 282.519 154.233C282.837 154.903 282.996 155.71 282.996 156.653C282.996 157.597 282.839 158.405 282.525 159.08C282.21 159.75 281.779 160.267 281.229 160.631C280.68 160.991 280.053 161.17 279.349 161.17C278.818 161.17 278.385 161.081 278.048 160.903C277.714 160.725 277.453 160.517 277.263 160.278C277.074 160.04 276.928 159.828 276.826 159.642H276.724V164.273H275.025ZM276.69 156.636C276.69 157.25 276.779 157.788 276.957 158.25C277.135 158.712 277.392 159.074 277.729 159.335C278.067 159.593 278.479 159.722 278.968 159.722C279.476 159.722 279.9 159.587 280.241 159.318C280.582 159.045 280.839 158.676 281.013 158.21C281.192 157.744 281.281 157.22 281.281 156.636C281.281 156.061 281.193 155.544 281.019 155.085C280.849 154.627 280.591 154.265 280.246 154C279.906 153.735 279.479 153.602 278.968 153.602C278.476 153.602 278.059 153.729 277.718 153.983C277.381 154.237 277.125 154.591 276.951 155.045C276.777 155.5 276.69 156.03 276.69 156.636ZM284.9 161V152.273H286.599V155.932H287.417L290.298 152.273H292.4L289.019 156.517L292.44 161H290.332L287.701 157.511H286.599V161H284.9ZM205.035 172.273V179.608H206.313V183.812H204.637V181H197.915V172.273H199.58V179.534H203.376V172.273H205.035ZM209.862 178.619L213.708 172.273H215.538V181H213.873V174.648L210.043 181H208.197V172.273H209.862V178.619ZM217.822 181V172.273H221.441C222.426 172.273 223.206 172.483 223.782 172.903C224.358 173.32 224.646 173.886 224.646 174.602C224.646 175.114 224.483 175.519 224.157 175.818C223.831 176.117 223.399 176.318 222.862 176.42C223.252 176.466 223.61 176.583 223.935 176.773C224.261 176.958 224.522 177.208 224.719 177.523C224.92 177.837 225.021 178.212 225.021 178.648C225.021 179.11 224.901 179.519 224.663 179.875C224.424 180.227 224.077 180.504 223.623 180.705C223.172 180.902 222.629 181 221.992 181H217.822ZM219.418 179.58H221.992C222.413 179.58 222.742 179.479 222.981 179.278C223.219 179.078 223.339 178.805 223.339 178.46C223.339 178.055 223.219 177.737 222.981 177.506C222.742 177.271 222.413 177.153 221.992 177.153H219.418V179.58ZM219.418 175.909H221.458C221.776 175.909 222.049 175.864 222.276 175.773C222.507 175.682 222.683 175.553 222.805 175.386C222.93 175.216 222.992 175.015 222.992 174.784C222.992 174.447 222.854 174.184 222.577 173.994C222.301 173.805 221.922 173.71 221.441 173.71H219.418V175.909ZM228.549 178.619L232.396 172.273H234.225V181H232.56V174.648L228.731 181H226.884V172.273H228.549V178.619ZM235.822 181L235.816 179.528H236.129C236.371 179.528 236.574 179.477 236.737 179.375C236.903 179.269 237.04 179.091 237.146 178.841C237.252 178.591 237.333 178.246 237.39 177.807C237.447 177.364 237.488 176.807 237.515 176.136L237.668 172.273H243.759V181H242.094V173.739H239.242L239.106 176.705C239.072 177.424 238.998 178.053 238.884 178.591C238.774 179.129 238.613 179.578 238.401 179.938C238.189 180.294 237.916 180.561 237.583 180.739C237.25 180.913 236.844 181 236.367 181H235.822ZM247.69 178.619L251.536 172.273H253.366V181H251.701V174.648L247.871 181H246.025V172.273H247.69V178.619ZM255.133 178.693H256.871C256.894 179.049 257.055 179.324 257.354 179.517C257.657 179.71 258.049 179.807 258.531 179.807C259.019 179.807 259.436 179.703 259.781 179.494C260.125 179.282 260.298 178.955 260.298 178.511C260.298 178.246 260.231 178.015 260.099 177.818C259.97 177.617 259.786 177.462 259.548 177.352C259.313 177.242 259.034 177.188 258.712 177.188H257.292V175.852H258.712C259.193 175.852 259.553 175.742 259.792 175.523C260.031 175.303 260.15 175.028 260.15 174.699C260.15 174.343 260.021 174.057 259.763 173.841C259.51 173.621 259.156 173.511 258.701 173.511C258.239 173.511 257.854 173.616 257.548 173.824C257.241 174.028 257.08 174.294 257.065 174.619H255.349C255.36 174.131 255.508 173.703 255.792 173.335C256.08 172.964 256.466 172.676 256.951 172.472C257.44 172.263 257.995 172.159 258.616 172.159C259.263 172.159 259.824 172.263 260.298 172.472C260.771 172.68 261.137 172.968 261.394 173.335C261.656 173.703 261.786 174.125 261.786 174.602C261.786 175.083 261.642 175.477 261.354 175.784C261.07 176.087 260.699 176.305 260.241 176.438V176.528C260.578 176.551 260.877 176.653 261.138 176.835C261.4 177.017 261.604 177.258 261.752 177.557C261.9 177.856 261.974 178.195 261.974 178.574C261.974 179.108 261.826 179.57 261.531 179.96C261.239 180.35 260.834 180.652 260.315 180.864C259.799 181.072 259.21 181.176 258.548 181.176C257.904 181.176 257.326 181.076 256.815 180.875C256.307 180.67 255.904 180.383 255.604 180.011C255.309 179.64 255.152 179.201 255.133 178.693ZM266.268 181.193C265.715 181.193 265.215 181.091 264.768 180.886C264.321 180.678 263.967 180.377 263.705 179.983C263.448 179.589 263.319 179.106 263.319 178.534C263.319 178.042 263.414 177.636 263.603 177.318C263.792 177 264.048 176.748 264.37 176.562C264.692 176.377 265.052 176.237 265.45 176.142C265.847 176.047 266.253 175.975 266.665 175.926C267.188 175.866 267.612 175.816 267.938 175.778C268.264 175.737 268.501 175.67 268.648 175.58C268.796 175.489 268.87 175.341 268.87 175.136V175.097C268.87 174.6 268.73 174.216 268.45 173.943C268.173 173.67 267.76 173.534 267.211 173.534C266.639 173.534 266.188 173.661 265.859 173.915C265.533 174.165 265.308 174.443 265.183 174.75L263.586 174.386C263.775 173.856 264.052 173.428 264.415 173.102C264.783 172.773 265.205 172.534 265.683 172.386C266.16 172.235 266.662 172.159 267.188 172.159C267.537 172.159 267.906 172.201 268.296 172.284C268.69 172.364 269.058 172.511 269.398 172.727C269.743 172.943 270.025 173.252 270.245 173.653C270.465 174.051 270.575 174.568 270.575 175.205V181H268.915V179.807H268.847C268.737 180.027 268.573 180.242 268.353 180.455C268.133 180.667 267.851 180.843 267.506 180.983C267.162 181.123 266.749 181.193 266.268 181.193ZM266.637 179.83C267.107 179.83 267.508 179.737 267.842 179.551C268.179 179.366 268.434 179.123 268.609 178.824C268.787 178.521 268.876 178.197 268.876 177.852V176.727C268.815 176.788 268.698 176.845 268.523 176.898C268.353 176.947 268.158 176.991 267.938 177.028C267.719 177.062 267.504 177.095 267.296 177.125C267.088 177.152 266.914 177.174 266.773 177.193C266.444 177.235 266.143 177.305 265.87 177.403C265.601 177.502 265.385 177.644 265.222 177.83C265.063 178.011 264.984 178.254 264.984 178.557C264.984 178.977 265.139 179.295 265.45 179.511C265.76 179.723 266.156 179.83 266.637 179.83ZM279.957 172.273V179.608H281.235V183.812H279.559V181H272.837V172.273H274.502V179.534H278.298V172.273H279.957ZM284.783 178.619L288.63 172.273H290.46V181H288.795V174.648L284.965 181H283.119V172.273H284.783V178.619ZM294.408 178.619L298.255 172.273H300.085V181H298.42V174.648L294.59 181H292.744V172.273H294.408V178.619Z" fill="url(#paint6_linear_509_702)"/>
<defs>
<linearGradient id="paint0_linear_509_702" x1="72" y1="0" x2="72" y2="20" gradientUnits="userSpaceOnUse">
<stop stop-color="white"/>
<stop offset="1" stop-color="white" stop-opacity="0.7"/>
</linearGradient>
<linearGradient id="paint1_linear_509_702" x1="479" y1="104" x2="479" y2="124" gradientUnits="userSpaceOnUse">
<stop stop-color="white"/>
<stop offset="1" stop-color="white" stop-opacity="0.7"/>
</linearGradient>
<linearGradient id="paint2_linear_509_702" x1="50" y1="265" x2="50" y2="285" gradientUnits="userSpaceOnUse">
<stop stop-color="white"/>
<stop offset="1" stop-color="white" stop-opacity="0.7"/>
</linearGradient>
<linearGradient id="paint3_linear_509_702" x1="36" y1="161" x2="36" y2="181" gradientUnits="userSpaceOnUse">
<stop stop-color="white"/>
<stop offset="1" stop-color="white" stop-opacity="0.7"/>
</linearGradient>
<linearGradient id="paint4_linear_509_702" x1="458" y1="0" x2="458" y2="20" gradientUnits="userSpaceOnUse">
<stop stop-color="white"/>
<stop offset="1" stop-color="white" stop-opacity="0.7"/>
</linearGradient>
<linearGradient id="paint5_linear_509_702" x1="449.5" y1="265" x2="449.5" y2="285" gradientUnits="userSpaceOnUse">
<stop stop-color="white"/>
<stop offset="1" stop-color="white" stop-opacity="0.7"/>
</linearGradient>
<linearGradient id="paint6_linear_509_702" x1="249" y1="145" x2="249" y2="185" gradientUnits="userSpaceOnUse">
<stop stop-color="white"/>
<stop offset="1" stop-color="white" stop-opacity="0.7"/>
</linearGradient>
</defs>
</svg>
