<svg width="110" height="32" viewBox="0 0 107 29" fill="none" xmlns="http://www.w3.org/2000/svg">
<path d="M0.345567 10.704V0.572369H8.68585V2.91712H3.19604V4.40792H5.60915C6.88608 4.40792 7.86138 4.66844 8.53503 5.1895C9.20869 5.71055 9.54552 6.45354 9.54552 7.41846V7.44741C9.54552 8.46057 9.19361 9.25663 8.48979 9.83558C7.79602 10.4145 6.77045 10.704 5.41308 10.704H0.345567ZM3.19604 8.46057H5.27734C5.70969 8.46057 6.04149 8.37855 6.27275 8.21452C6.51406 8.04083 6.63471 7.80443 6.63471 7.5053V7.47635C6.63471 6.86846 6.1722 6.56451 5.24718 6.56451H3.19604V8.46057Z" fill="white"/>
<path d="M9.88486 10.704L14.3642 0.5H17.1845L21.6789 10.704H18.5419L17.7878 8.88031H13.7006L12.9465 10.704H9.88486ZM14.5602 6.69477H16.9281L15.7517 3.82897L14.5602 6.69477Z" fill="white"/>
<path d="M22.7033 10.704V0.572369H25.6292L25.6141 4.39344H26.142L29.3393 0.572369H32.8383L28.4495 5.47897L33.0495 10.704H29.4298L26.142 6.82503H25.6141L25.6292 10.704H22.7033Z" fill="white"/>
<path d="M43.7629 10.704H40.837V4.92897L36.3426 10.704H33.7938V0.572369H36.7197V6.13029L41.0632 0.572369H43.7629V10.704Z" fill="white"/>
<path d="M45.6354 10.704V0.572369H54.1265V2.94607H48.5311V4.49476H53.5987V6.70924H48.5311V8.31583H54.2019V10.704H45.6354Z" fill="white"/>
<path d="M55.7096 10.704V0.572369H61.124C62.401 0.572369 63.3612 0.871493 64.0047 1.46974C64.4571 1.92325 64.6834 2.47326 64.6834 3.11975V3.1487C64.6834 4.21011 64.1404 4.96274 63.0545 5.40661C63.7382 5.61889 64.2561 5.92284 64.608 6.31845C64.9699 6.70442 65.1509 7.22548 65.1509 7.88162V7.91057C65.1509 8.78864 64.799 9.47373 64.0952 9.96584C63.4014 10.4579 62.4211 10.704 61.1542 10.704H55.7096ZM61.8027 3.72765V3.6987C61.8027 3.11975 61.3603 2.83028 60.4755 2.83028H58.5601V4.61055H60.4001C61.3352 4.61055 61.8027 4.31625 61.8027 3.72765ZM62.225 7.51977V7.49083C62.225 6.88293 61.7474 6.57898 60.7922 6.57898H58.5601V8.4461H60.8224C61.7575 8.4461 62.225 8.13732 62.225 7.51977Z" fill="white"/>
<path d="M19.8263 23.9716V13.84H29.3732V23.9716H26.4473V16.3295H22.7522V23.9716H19.8263Z" fill="white"/>
<path d="M30.4113 23.9716L34.8907 13.7676H37.711L42.2054 23.9716H39.0684L38.3143 22.1479H34.2271L33.473 23.9716H30.4113ZM35.0867 19.9624H37.4546L36.2782 17.0966L35.0867 19.9624Z" fill="white"/>
<path d="M43.2298 23.9716V13.84H47.7694C49.1067 13.84 50.1674 14.1536 50.9517 14.7808C51.746 15.408 52.1432 16.2764 52.1432 17.3861V17.415C52.1432 18.5826 51.7259 19.4848 50.8914 20.1216C50.0568 20.7584 48.9659 21.0769 47.6186 21.0769H46.1557V23.9716H43.2298ZM46.1557 18.8769H47.5583C48.0711 18.8769 48.4783 18.7562 48.7799 18.515C49.0815 18.2738 49.2324 17.9505 49.2324 17.5453V17.5163C49.2324 17.0918 49.0815 16.7685 48.7799 16.5466C48.4883 16.315 48.0761 16.1992 47.5432 16.1992H46.1557V18.8769Z" fill="white"/>
<path d="M55.9566 23.9716V16.3005H52.8045V13.84H62.0497V16.3005H58.8825V23.9716H55.9566Z" fill="white"/>
<path d="M63.3341 23.9716V13.84H66.2599V17.6321H70.0153V13.84H72.9412V23.9716H70.0153V20.1216H66.2599V23.9716H63.3341Z" fill="white"/>
<path d="M74.8075 23.9716V13.84H83.2986V16.2137H77.7032V17.7624H82.7707V19.9769H77.7032V21.5834H83.374V23.9716H74.8075Z" fill="white"/>
<path d="M84.8817 23.9716V13.84H89.4214C90.7586 13.84 91.8194 14.1536 92.6036 14.7808C93.398 15.408 93.7951 16.2764 93.7951 17.3861V17.415C93.7951 18.5826 93.3778 19.4848 92.5433 20.1216C91.7088 20.7584 90.6179 21.0769 89.2705 21.0769H87.8076V23.9716H84.8817ZM87.8076 18.8769H89.2102C89.723 18.8769 90.1302 18.7562 90.4318 18.515C90.7335 18.2738 90.8843 17.9505 90.8843 17.5453V17.5163C90.8843 17.0918 90.7335 16.7685 90.4318 16.5466C90.1403 16.315 89.728 16.1992 89.1951 16.1992H87.8076V18.8769Z" fill="white"/>
<path d="M95.0296 23.9716V13.84H97.9555V16.865H99.5089C100.876 16.865 101.957 17.1641 102.752 17.7624C103.546 18.351 103.943 19.2097 103.943 20.3387V20.3677C103.943 21.4966 103.541 22.3795 102.736 23.0164C101.932 23.6532 100.826 23.9716 99.4184 23.9716H95.0296ZM105.074 23.9716V13.84H108V23.9716H105.074ZM97.9555 21.6413H99.343C99.8658 21.6413 100.278 21.5304 100.58 21.3084C100.881 21.0865 101.032 20.7729 101.032 20.3677V20.3387C101.032 19.5089 100.474 19.094 99.3581 19.094H97.9555V21.6413Z" fill="white"/>
<path d="M0.805923 29.2926C0.0352461 28.8656 -0.228807 27.9198 0.216143 27.1802L5.69459 18.0739C6.13954 17.3343 7.125 17.0809 7.89567 17.5079C8.66635 17.9349 8.9304 18.8806 8.48545 19.6202L3.00701 28.7266C2.56206 29.4662 1.5766 29.7196 0.805923 29.2926Z" fill="white"/>
<path d="M8.34687 25.6741C7.57619 25.2471 7.31214 24.3014 7.75709 23.5618L13.2355 14.4555C13.6805 13.7159 14.6659 13.4625 15.4366 13.8895C16.2073 14.3165 16.4713 15.2622 16.0264 16.0018L10.548 25.1081C10.103 25.8477 9.11754 26.1011 8.34687 25.6741Z" fill="white"/>
</svg>
