<svg width="593" height="291" viewBox="0 0 593 291" fill="none" xmlns="http://www.w3.org/2000/svg">
<path opacity="0.85" d="M451.052 126V114.364H458.308V115.875H452.808V119.057H455.41C456.273 119.057 457.006 119.197 457.609 119.477C458.215 119.758 458.677 120.153 458.995 120.665C459.317 121.176 459.478 121.778 459.478 122.472C459.478 123.165 459.317 123.777 458.995 124.307C458.677 124.837 458.215 125.252 457.609 125.551C457.006 125.85 456.273 126 455.41 126H451.052ZM452.808 124.523H455.41C455.91 124.523 456.332 124.424 456.677 124.227C457.025 124.03 457.289 123.775 457.467 123.46C457.648 123.146 457.739 122.809 457.739 122.449C457.739 121.926 457.539 121.477 457.137 121.102C456.736 120.723 456.16 120.534 455.41 120.534H452.808V124.523ZM463.08 123.619L466.927 117.273H468.756V126H467.092V119.648L463.262 126L461.415 126V117.273L463.08 117.273V123.619ZM470.523 123.693H472.262C472.285 124.049 472.446 124.324 472.745 124.517C473.048 124.71 473.44 124.807 473.921 124.807C474.41 124.807 474.826 124.703 475.171 124.494C475.516 124.282 475.688 123.955 475.688 123.511C475.688 123.246 475.622 123.015 475.489 122.818C475.361 122.617 475.177 122.462 474.938 122.352C474.703 122.242 474.425 122.187 474.103 122.187H472.683V120.852H474.103C474.584 120.852 474.944 120.742 475.183 120.523C475.421 120.303 475.54 120.028 475.54 119.699C475.54 119.343 475.412 119.057 475.154 118.841C474.9 118.621 474.546 118.511 474.092 118.511C473.629 118.511 473.245 118.616 472.938 118.824C472.631 119.028 472.47 119.294 472.455 119.619H470.739C470.751 119.131 470.898 118.703 471.183 118.335C471.47 117.964 471.857 117.676 472.342 117.472C472.83 117.263 473.385 117.159 474.006 117.159C474.654 117.159 475.215 117.263 475.688 117.472C476.162 117.68 476.527 117.968 476.785 118.335C477.046 118.703 477.177 119.125 477.177 119.602C477.177 120.083 477.033 120.477 476.745 120.784C476.461 121.087 476.09 121.305 475.631 121.437V121.528C475.969 121.551 476.268 121.653 476.529 121.835C476.79 122.017 476.995 122.258 477.143 122.557C477.29 122.856 477.364 123.195 477.364 123.574C477.364 124.108 477.217 124.57 476.921 124.96C476.629 125.35 476.224 125.652 475.705 125.864C475.19 126.072 474.601 126.176 473.938 126.176C473.294 126.176 472.717 126.076 472.205 125.875C471.698 125.67 471.294 125.383 470.995 125.011C470.7 124.64 470.542 124.201 470.523 123.693ZM485.033 120.903V122.375L480.306 122.375V120.903L485.033 120.903ZM480.783 117.273V126H479.119V117.273H480.783ZM486.221 117.273V126H484.562V117.273H486.221ZM492.255 126.176C491.395 126.176 490.655 125.992 490.033 125.625C489.416 125.254 488.939 124.733 488.602 124.062C488.268 123.388 488.102 122.598 488.102 121.693C488.102 120.799 488.268 120.011 488.602 119.33C488.939 118.648 489.408 118.116 490.011 117.733C490.617 117.35 491.325 117.159 492.136 117.159C492.628 117.159 493.105 117.241 493.567 117.403C494.03 117.566 494.444 117.822 494.812 118.17C495.179 118.519 495.469 118.972 495.681 119.528C495.893 120.081 495.999 120.754 495.999 121.545V122.148H489.062V120.875H494.335C494.335 120.428 494.244 120.032 494.062 119.687C493.88 119.339 493.624 119.064 493.295 118.864C492.969 118.663 492.586 118.562 492.147 118.562C491.67 118.562 491.253 118.68 490.897 118.915C490.545 119.146 490.272 119.449 490.079 119.824C489.889 120.195 489.795 120.598 489.795 121.034V122.028C489.795 122.612 489.897 123.108 490.102 123.517C490.31 123.926 490.6 124.239 490.971 124.455C491.342 124.667 491.776 124.773 492.272 124.773C492.594 124.773 492.888 124.727 493.153 124.636C493.418 124.542 493.647 124.402 493.84 124.216C494.033 124.03 494.181 123.801 494.283 123.528L495.891 123.818C495.763 124.292 495.531 124.706 495.198 125.062C494.869 125.415 494.454 125.689 493.954 125.886C493.458 126.08 492.891 126.176 492.255 126.176ZM501.56 126.176C500.716 126.176 499.988 125.985 499.379 125.602C498.772 125.216 498.307 124.684 497.981 124.006C497.655 123.328 497.492 122.551 497.492 121.676C497.492 120.79 497.659 120.008 497.992 119.33C498.326 118.648 498.795 118.116 499.401 117.733C500.007 117.35 500.721 117.159 501.543 117.159C502.206 117.159 502.797 117.282 503.316 117.528C503.835 117.771 504.254 118.112 504.572 118.551C504.894 118.991 505.085 119.504 505.146 120.091H503.492C503.401 119.682 503.193 119.33 502.867 119.034C502.545 118.739 502.113 118.591 501.572 118.591C501.098 118.591 500.683 118.716 500.327 118.966C499.975 119.212 499.701 119.564 499.504 120.023C499.307 120.477 499.208 121.015 499.208 121.636C499.208 122.273 499.305 122.822 499.498 123.284C499.691 123.746 499.964 124.104 500.316 124.358C500.672 124.612 501.091 124.739 501.572 124.739C501.894 124.739 502.185 124.68 502.447 124.562C502.712 124.441 502.933 124.269 503.112 124.045C503.293 123.822 503.42 123.553 503.492 123.239H505.146C505.085 123.803 504.901 124.307 504.594 124.75C504.288 125.193 503.877 125.542 503.362 125.795C502.85 126.049 502.25 126.176 501.56 126.176ZM512.104 120.347V121.818L506.945 121.818V120.347L512.104 120.347ZM514.369 126V117.273H521.488V126H519.823V118.739H516.022V126H514.369ZM523.759 129.273V117.273H525.418V118.687H525.56C525.659 118.506 525.801 118.295 525.987 118.057C526.172 117.818 526.43 117.61 526.759 117.432C527.089 117.25 527.524 117.159 528.066 117.159C528.771 117.159 529.399 117.337 529.952 117.693C530.505 118.049 530.939 118.562 531.254 119.233C531.572 119.903 531.731 120.71 531.731 121.653C531.731 122.597 531.574 123.405 531.259 124.08C530.945 124.75 530.513 125.267 529.964 125.631C529.415 125.991 528.788 126.17 528.083 126.17C527.553 126.17 527.119 126.081 526.782 125.903C526.449 125.725 526.187 125.517 525.998 125.278C525.808 125.04 525.663 124.828 525.56 124.642H525.458V129.273H523.759ZM525.424 121.636C525.424 122.25 525.513 122.788 525.691 123.25C525.869 123.712 526.127 124.074 526.464 124.335C526.801 124.593 527.214 124.722 527.702 124.722C528.21 124.722 528.634 124.587 528.975 124.318C529.316 124.045 529.574 123.676 529.748 123.21C529.926 122.744 530.015 122.22 530.015 121.636C530.015 121.061 529.928 120.544 529.754 120.085C529.583 119.627 529.326 119.265 528.981 119C528.64 118.735 528.214 118.602 527.702 118.602C527.21 118.602 526.793 118.729 526.452 118.983C526.115 119.237 525.86 119.591 525.685 120.045C525.511 120.5 525.424 121.03 525.424 121.636ZM537.31 126.176C536.492 126.176 535.778 125.989 535.168 125.614C534.558 125.239 534.085 124.714 533.748 124.04C533.411 123.366 533.242 122.578 533.242 121.676C533.242 120.771 533.411 119.979 533.748 119.301C534.085 118.623 534.558 118.097 535.168 117.722C535.778 117.347 536.492 117.159 537.31 117.159C538.129 117.159 538.843 117.347 539.452 117.722C540.062 118.097 540.536 118.623 540.873 119.301C541.21 119.979 541.379 120.771 541.379 121.676C541.379 122.578 541.21 123.366 540.873 124.04C540.536 124.714 540.062 125.239 539.452 125.614C538.843 125.989 538.129 126.176 537.31 126.176ZM537.316 124.75C537.846 124.75 538.286 124.61 538.634 124.33C538.983 124.049 539.24 123.676 539.407 123.21C539.577 122.744 539.663 122.231 539.663 121.67C539.663 121.114 539.577 120.602 539.407 120.136C539.24 119.667 538.983 119.29 538.634 119.006C538.286 118.722 537.846 118.58 537.316 118.58C536.782 118.58 536.339 118.722 535.987 119.006C535.638 119.29 535.379 119.667 535.208 120.136C535.041 120.602 534.958 121.114 534.958 121.67C534.958 122.231 535.041 122.744 535.208 123.21C535.379 123.676 535.638 124.049 535.987 124.33C536.339 124.61 536.782 124.75 537.316 124.75ZM550.394 117.273V124.608H551.673V128.812H549.996V126H543.275V117.273H544.94V124.534H548.735V117.273H550.394ZM557.224 126.176C556.364 126.176 555.623 125.992 555.002 125.625C554.385 125.254 553.907 124.733 553.57 124.062C553.237 123.388 553.07 122.598 553.07 121.693C553.07 120.799 553.237 120.011 553.57 119.33C553.907 118.648 554.377 118.116 554.979 117.733C555.585 117.35 556.294 117.159 557.104 117.159C557.597 117.159 558.074 117.241 558.536 117.403C558.998 117.566 559.413 117.822 559.781 118.17C560.148 118.519 560.438 118.972 560.65 119.528C560.862 120.081 560.968 120.754 560.968 121.545V122.148L554.031 122.148V120.875L559.303 120.875C559.303 120.428 559.212 120.032 559.031 119.687C558.849 119.339 558.593 119.064 558.263 118.864C557.938 118.663 557.555 118.562 557.116 118.562C556.638 118.562 556.222 118.68 555.866 118.915C555.513 119.146 555.241 119.449 555.048 119.824C554.858 120.195 554.763 120.598 554.763 121.034V122.028C554.763 122.612 554.866 123.108 555.07 123.517C555.279 123.926 555.568 124.239 555.94 124.455C556.311 124.667 556.745 124.773 557.241 124.773C557.563 124.773 557.856 124.727 558.121 124.636C558.387 124.542 558.616 124.402 558.809 124.216C559.002 124.03 559.15 123.801 559.252 123.528L560.86 123.818C560.731 124.292 560.5 124.706 560.167 125.062C559.837 125.415 559.423 125.689 558.923 125.886C558.426 126.08 557.86 126.176 557.224 126.176ZM566.529 126.176C565.684 126.176 564.957 125.985 564.347 125.602C563.741 125.216 563.275 124.684 562.95 124.006C562.624 123.328 562.461 122.551 562.461 121.676C562.461 120.79 562.628 120.008 562.961 119.33C563.294 118.648 563.764 118.116 564.37 117.733C564.976 117.35 565.69 117.159 566.512 117.159C567.175 117.159 567.766 117.282 568.285 117.528C568.804 117.771 569.222 118.112 569.54 118.551C569.862 118.991 570.054 119.504 570.114 120.091H568.461C568.37 119.682 568.162 119.33 567.836 119.034C567.514 118.739 567.082 118.591 566.54 118.591C566.067 118.591 565.652 118.716 565.296 118.966C564.944 119.212 564.669 119.564 564.472 120.023C564.275 120.477 564.177 121.015 564.177 121.636C564.177 122.273 564.273 122.822 564.467 123.284C564.66 123.746 564.933 124.104 565.285 124.358C565.641 124.612 566.059 124.739 566.54 124.739C566.862 124.739 567.154 124.68 567.415 124.562C567.681 124.441 567.902 124.269 568.08 124.045C568.262 123.822 568.389 123.553 568.461 123.239H570.114C570.054 123.803 569.87 124.307 569.563 124.75C569.256 125.193 568.845 125.542 568.33 125.795C567.819 126.049 567.219 126.176 566.529 126.176ZM575.607 126.176C574.763 126.176 574.035 125.985 573.425 125.602C572.819 125.216 572.353 124.684 572.028 124.006C571.702 123.328 571.539 122.551 571.539 121.676C571.539 120.79 571.706 120.008 572.039 119.33C572.372 118.648 572.842 118.116 573.448 117.733C574.054 117.35 574.768 117.159 575.59 117.159C576.253 117.159 576.844 117.282 577.363 117.528C577.882 117.771 578.3 118.112 578.619 118.551C578.941 118.991 579.132 119.504 579.192 120.091H577.539C577.448 119.682 577.24 119.33 576.914 119.034C576.592 118.739 576.16 118.591 575.619 118.591C575.145 118.591 574.73 118.716 574.374 118.966C574.022 119.212 573.747 119.564 573.55 120.023C573.353 120.477 573.255 121.015 573.255 121.636C573.255 122.273 573.352 122.822 573.545 123.284C573.738 123.746 574.011 124.104 574.363 124.358C574.719 124.612 575.138 124.739 575.619 124.739C575.941 124.739 576.232 124.68 576.494 124.562C576.759 124.441 576.98 124.269 577.158 124.045C577.34 123.822 577.467 123.553 577.539 123.239H579.192C579.132 123.803 578.948 124.307 578.641 124.75C578.335 125.193 577.924 125.542 577.408 125.795C576.897 126.049 576.297 126.176 575.607 126.176ZM582.288 120.273H584.822C585.89 120.273 586.712 120.538 587.288 121.068C587.863 121.598 588.151 122.282 588.151 123.119C588.151 123.665 588.022 124.155 587.765 124.591C587.507 125.027 587.13 125.371 586.634 125.625C586.138 125.875 585.534 126 584.822 126H581.009V117.273H582.674V124.534H584.822C585.31 124.534 585.712 124.407 586.026 124.153C586.341 123.896 586.498 123.568 586.498 123.17C586.498 122.75 586.341 122.407 586.026 122.142C585.712 121.873 585.31 121.739 584.822 121.739H582.288V120.273ZM589.39 126V117.273H591.089V126H589.39Z" fill="url(#paint0_linear_509_657)"/>
<path opacity="0.85" d="M2.21591 164V152.364H6.36364C7.26894 152.364 8.01894 152.528 8.61364 152.858C9.20833 153.187 9.65341 153.638 9.94886 154.21C10.2443 154.778 10.392 155.419 10.392 156.131C10.392 156.847 10.2424 157.491 9.94318 158.062C9.64773 158.631 9.20076 159.081 8.60227 159.415C8.00758 159.744 7.25947 159.909 6.35795 159.909H3.50568V158.42H6.19886C6.77083 158.42 7.23485 158.322 7.59091 158.125C7.94697 157.924 8.20833 157.652 8.375 157.307C8.54167 156.962 8.625 156.57 8.625 156.131C8.625 155.691 8.54167 155.301 8.375 154.96C8.20833 154.619 7.94508 154.352 7.58523 154.159C7.22917 153.966 6.75947 153.869 6.17614 153.869H3.97159V164H2.21591ZM13.5923 158.273H16.1264C17.1946 158.273 18.0166 158.538 18.5923 159.068C19.1681 159.598 19.456 160.282 19.456 161.119C19.456 161.665 19.3272 162.155 19.0696 162.591C18.812 163.027 18.4351 163.371 17.9389 163.625C17.4427 163.875 16.8385 164 16.1264 164H12.3139V155.273H13.9787V162.534H16.1264C16.6151 162.534 17.0166 162.407 17.331 162.153C17.6454 161.896 17.8026 161.568 17.8026 161.17C17.8026 160.75 17.6454 160.407 17.331 160.142C17.0166 159.873 16.6151 159.739 16.1264 159.739H13.5923V158.273ZM20.6946 164V155.273H22.3935V164H20.6946ZM30.5881 158.903V160.375H25.8608V158.903H30.5881ZM26.3381 155.273V164L24.6733 164V155.273H26.3381ZM31.7756 155.273V164H30.1165V155.273H31.7756ZM37.7244 164.176C36.9063 164.176 36.1922 163.989 35.5824 163.614C34.9725 163.239 34.4991 162.714 34.1619 162.04C33.8248 161.366 33.6562 160.578 33.6562 159.676C33.6562 158.771 33.8248 157.979 34.1619 157.301C34.4991 156.623 34.9725 156.097 35.5824 155.722C36.1922 155.347 36.9063 155.159 37.7244 155.159C38.5426 155.159 39.2566 155.347 39.8665 155.722C40.4763 156.097 40.9498 156.623 41.2869 157.301C41.6241 157.979 41.7926 158.771 41.7926 159.676C41.7926 160.578 41.6241 161.366 41.2869 162.04C40.9498 162.714 40.4763 163.239 39.8665 163.614C39.2566 163.989 38.5426 164.176 37.7244 164.176ZM37.7301 162.75C38.2604 162.75 38.6998 162.61 39.0483 162.33C39.3968 162.049 39.6544 161.676 39.821 161.21C39.9915 160.744 40.0767 160.231 40.0767 159.67C40.0767 159.114 39.9915 158.602 39.821 158.136C39.6544 157.667 39.3968 157.29 39.0483 157.006C38.6998 156.722 38.2604 156.58 37.7301 156.58C37.196 156.58 36.7528 156.722 36.4006 157.006C36.0521 157.29 35.7926 157.667 35.6222 158.136C35.4555 158.602 35.3722 159.114 35.3722 159.67C35.3722 160.231 35.4555 160.744 35.6222 161.21C35.7926 161.676 36.0521 162.049 36.4006 162.33C36.7528 162.61 37.196 162.75 37.7301 162.75ZM43.6889 164V155.273H45.3878V158.932H46.206L49.0866 155.273H51.1889L47.8082 159.517L51.2287 164H49.1207L46.4901 160.511H45.3878V164H43.6889ZM58.4474 161.619L62.294 155.273H64.1236V164H62.4588V157.648L58.6293 164H56.7827V155.273H58.4474V161.619ZM70.642 164V155.273H72.3409V158.932H73.1591L76.0398 155.273H78.142L74.7614 159.517L78.1818 164H76.0739L73.4432 160.511H72.3409V164H70.642ZM82.8182 164.176C82 164.176 81.286 163.989 80.6761 163.614C80.0663 163.239 79.5928 162.714 79.2557 162.04C78.9186 161.366 78.75 160.578 78.75 159.676C78.75 158.771 78.9186 157.979 79.2557 157.301C79.5928 156.623 80.0663 156.097 80.6761 155.722C81.286 155.347 82 155.159 82.8182 155.159C83.6364 155.159 84.3504 155.347 84.9602 155.722C85.5701 156.097 86.0436 156.623 86.3807 157.301C86.7178 157.979 86.8864 158.771 86.8864 159.676C86.8864 160.578 86.7178 161.366 86.3807 162.04C86.0436 162.714 85.5701 163.239 84.9602 163.614C84.3504 163.989 83.6364 164.176 82.8182 164.176ZM82.8239 162.75C83.3542 162.75 83.7936 162.61 84.142 162.33C84.4905 162.049 84.7481 161.676 84.9148 161.21C85.0852 160.744 85.1705 160.231 85.1705 159.67C85.1705 159.114 85.0852 158.602 84.9148 158.136C84.7481 157.667 84.4905 157.29 84.142 157.006C83.7936 156.722 83.3542 156.58 82.8239 156.58C82.2898 156.58 81.8466 156.722 81.4943 157.006C81.1458 157.29 80.8864 157.667 80.7159 158.136C80.5492 158.602 80.4659 159.114 80.4659 159.67C80.4659 160.231 80.5492 160.744 80.7159 161.21C80.8864 161.676 81.1458 162.049 81.4943 162.33C81.8466 162.61 82.2898 162.75 82.8239 162.75ZM94.6974 158.903V160.375H89.9702V158.903H94.6974ZM90.4474 155.273V164H88.7827V155.273H90.4474ZM95.8849 155.273V164H94.2259V155.273H95.8849ZM98.1577 164V155.273H99.8565V158.932H100.675L103.555 155.273H105.658L102.277 159.517L105.697 164H103.589L100.959 160.511H99.8565V164H98.1577ZM108.138 167.273C107.884 167.273 107.653 167.252 107.445 167.21C107.236 167.172 107.081 167.131 106.979 167.085L107.388 165.693C107.698 165.777 107.975 165.813 108.217 165.801C108.46 165.79 108.674 165.699 108.859 165.528C109.049 165.358 109.215 165.08 109.359 164.693L109.57 164.114L106.376 155.273H108.195L110.405 162.045H110.496L112.706 155.273H114.53L110.933 165.165C110.767 165.619 110.554 166.004 110.297 166.318C110.039 166.636 109.732 166.875 109.376 167.034C109.02 167.193 108.607 167.273 108.138 167.273ZM116.126 167.273V155.273L117.786 155.273V156.687H117.928C118.026 156.506 118.168 156.295 118.354 156.057C118.539 155.818 118.797 155.61 119.126 155.432C119.456 155.25 119.892 155.159 120.433 155.159C121.138 155.159 121.767 155.337 122.32 155.693C122.873 156.049 123.306 156.562 123.621 157.233C123.939 157.903 124.098 158.71 124.098 159.653C124.098 160.597 123.941 161.405 123.626 162.08C123.312 162.75 122.88 163.267 122.331 163.631C121.782 163.991 121.155 164.17 120.45 164.17C119.92 164.17 119.486 164.081 119.149 163.903C118.816 163.725 118.554 163.517 118.365 163.278C118.176 163.04 118.03 162.828 117.928 162.642H117.825V167.273H116.126ZM117.791 159.636C117.791 160.25 117.88 160.788 118.058 161.25C118.236 161.712 118.494 162.074 118.831 162.335C119.168 162.593 119.581 162.722 120.07 162.722C120.577 162.722 121.001 162.587 121.342 162.318C121.683 162.045 121.941 161.676 122.115 161.21C122.293 160.744 122.382 160.22 122.382 159.636C122.382 159.061 122.295 158.544 122.121 158.085C121.95 157.627 121.693 157.265 121.348 157C121.007 156.735 120.581 156.602 120.07 156.602C119.577 156.602 119.161 156.729 118.82 156.983C118.482 157.237 118.227 157.591 118.053 158.045C117.878 158.5 117.791 159.03 117.791 159.636ZM129.763 164.176C128.903 164.176 128.162 163.992 127.541 163.625C126.924 163.254 126.446 162.733 126.109 162.062C125.776 161.388 125.609 160.598 125.609 159.693C125.609 158.799 125.776 158.011 126.109 157.33C126.446 156.648 126.916 156.116 127.518 155.733C128.125 155.35 128.833 155.159 129.643 155.159C130.136 155.159 130.613 155.241 131.075 155.403C131.537 155.566 131.952 155.822 132.32 156.17C132.687 156.519 132.977 156.972 133.189 157.528C133.401 158.081 133.507 158.754 133.507 159.545V160.148H126.57V158.875H131.842C131.842 158.428 131.751 158.032 131.57 157.687C131.388 157.339 131.132 157.064 130.803 156.864C130.477 156.663 130.094 156.562 129.655 156.562C129.178 156.562 128.761 156.68 128.405 156.915C128.053 157.146 127.78 157.449 127.587 157.824C127.397 158.195 127.303 158.598 127.303 159.034V160.028C127.303 160.612 127.405 161.108 127.609 161.517C127.818 161.926 128.107 162.239 128.479 162.455C128.85 162.667 129.284 162.773 129.78 162.773C130.102 162.773 130.395 162.727 130.661 162.636C130.926 162.542 131.155 162.402 131.348 162.216C131.541 162.03 131.689 161.801 131.791 161.528L133.399 161.818C133.27 162.292 133.039 162.706 132.706 163.062C132.376 163.415 131.962 163.689 131.462 163.886C130.965 164.08 130.399 164.176 129.763 164.176ZM141.307 158.903V160.375H136.58V158.903H141.307ZM137.057 155.273V164H135.392V155.273H137.057ZM142.494 155.273V164H140.835V155.273H142.494ZM143.685 156.739V155.273H151.048V156.739H148.202V164H146.543V156.739H143.685ZM154.124 158.273H156.658C157.726 158.273 158.548 158.538 159.124 159.068C159.699 159.598 159.987 160.282 159.987 161.119C159.987 161.665 159.858 162.155 159.601 162.591C159.343 163.027 158.966 163.371 158.47 163.625C157.974 163.875 157.37 164 156.658 164H152.845V155.273H154.51V162.534H156.658C157.146 162.534 157.548 162.407 157.862 162.153C158.177 161.896 158.334 161.568 158.334 161.17C158.334 160.75 158.177 160.407 157.862 160.142C157.548 159.873 157.146 159.739 156.658 159.739H154.124V158.273ZM161.226 164V155.273L162.925 155.273V164H161.226Z" fill="url(#paint1_linear_509_657)"/>
<path opacity="0.85" d="M253.052 155.364H254.79V163.909H254.898L260.819 155.364H262.444V167H260.688V158.466H260.58L254.671 167H253.052V155.364ZM268.545 167.176C267.7 167.176 266.973 166.985 266.363 166.602C265.757 166.216 265.291 165.684 264.965 165.006C264.639 164.328 264.477 163.551 264.477 162.676C264.477 161.79 264.643 161.008 264.977 160.33C265.31 159.648 265.78 159.116 266.386 158.733C266.992 158.35 267.706 158.159 268.528 158.159C269.191 158.159 269.781 158.282 270.3 158.528C270.819 158.771 271.238 159.112 271.556 159.551C271.878 159.991 272.069 160.504 272.13 161.091H270.477C270.386 160.682 270.177 160.33 269.852 160.034C269.53 159.739 269.098 159.591 268.556 159.591C268.083 159.591 267.668 159.716 267.312 159.966C266.96 160.212 266.685 160.564 266.488 161.023C266.291 161.477 266.192 162.015 266.192 162.636C266.192 163.273 266.289 163.822 266.482 164.284C266.675 164.746 266.948 165.104 267.3 165.358C267.656 165.612 268.075 165.739 268.556 165.739C268.878 165.739 269.17 165.68 269.431 165.562C269.696 165.441 269.918 165.269 270.096 165.045C270.278 164.822 270.405 164.553 270.477 164.239H272.13C272.069 164.803 271.886 165.307 271.579 165.75C271.272 166.193 270.861 166.542 270.346 166.795C269.835 167.049 269.234 167.176 268.545 167.176ZM277.623 167.176C276.778 167.176 276.051 166.985 275.441 166.602C274.835 166.216 274.369 165.684 274.043 165.006C273.718 164.328 273.555 163.551 273.555 162.676C273.555 161.79 273.721 161.008 274.055 160.33C274.388 159.648 274.858 159.116 275.464 158.733C276.07 158.35 276.784 158.159 277.606 158.159C278.269 158.159 278.86 158.282 279.379 158.528C279.897 158.771 280.316 159.112 280.634 159.551C280.956 159.991 281.147 160.504 281.208 161.091H279.555C279.464 160.682 279.255 160.33 278.93 160.034C278.608 159.739 278.176 159.591 277.634 159.591C277.161 159.591 276.746 159.716 276.39 159.966C276.038 160.212 275.763 160.564 275.566 161.023C275.369 161.477 275.271 162.015 275.271 162.636C275.271 163.273 275.367 163.822 275.56 164.284C275.754 164.746 276.026 165.104 276.379 165.358C276.735 165.612 277.153 165.739 277.634 165.739C277.956 165.739 278.248 165.68 278.509 165.562C278.774 165.441 278.996 165.269 279.174 165.045C279.356 164.822 279.483 164.553 279.555 164.239H281.208C281.147 164.803 280.964 165.307 280.657 165.75C280.35 166.193 279.939 166.542 279.424 166.795C278.913 167.049 278.312 167.176 277.623 167.176ZM282.337 167L282.332 165.528H282.644C282.887 165.528 283.089 165.477 283.252 165.375C283.419 165.269 283.555 165.091 283.661 164.841C283.767 164.591 283.849 164.246 283.906 163.807C283.962 163.364 284.004 162.807 284.031 162.136L284.184 158.273H290.275V167H288.61V159.739H285.758L285.621 162.705C285.587 163.424 285.513 164.053 285.4 164.591C285.29 165.129 285.129 165.578 284.917 165.937C284.705 166.294 284.432 166.561 284.099 166.739C283.765 166.913 283.36 167 282.883 167H282.337ZM296.302 167.176C295.442 167.176 294.701 166.992 294.08 166.625C293.463 166.254 292.986 165.733 292.648 165.062C292.315 164.388 292.148 163.598 292.148 162.693C292.148 161.799 292.315 161.011 292.648 160.33C292.986 159.648 293.455 159.116 294.058 158.733C294.664 158.35 295.372 158.159 296.183 158.159C296.675 158.159 297.152 158.241 297.614 158.403C298.076 158.566 298.491 158.822 298.859 159.17C299.226 159.519 299.516 159.972 299.728 160.528C299.94 161.081 300.046 161.754 300.046 162.545V163.148H293.109V161.875H298.381C298.381 161.428 298.29 161.032 298.109 160.687C297.927 160.339 297.671 160.064 297.342 159.864C297.016 159.663 296.633 159.562 296.194 159.562C295.717 159.562 295.3 159.68 294.944 159.915C294.592 160.146 294.319 160.449 294.126 160.824C293.936 161.195 293.842 161.598 293.842 162.034V163.028C293.842 163.612 293.944 164.108 294.148 164.517C294.357 164.926 294.647 165.239 295.018 165.455C295.389 165.667 295.823 165.773 296.319 165.773C296.641 165.773 296.934 165.727 297.2 165.636C297.465 165.542 297.694 165.402 297.887 165.216C298.08 165.03 298.228 164.801 298.33 164.528L299.938 164.818C299.809 165.292 299.578 165.706 299.245 166.062C298.915 166.415 298.501 166.689 298.001 166.886C297.504 167.08 296.938 167.176 296.302 167.176ZM301.079 169.517V165.528H301.789C301.971 165.362 302.124 165.163 302.249 164.932C302.378 164.701 302.486 164.426 302.573 164.108C302.664 163.79 302.74 163.419 302.8 162.994C302.861 162.566 302.914 162.078 302.96 161.528L303.232 158.273H309.164V165.528H310.505V169.517H308.846V167H302.761V169.517H301.079ZM303.607 165.528H307.505V159.727H304.755L304.573 161.528C304.486 162.445 304.376 163.241 304.244 163.915C304.111 164.585 303.899 165.123 303.607 165.528ZM315.842 167.176C315.023 167.176 314.309 166.989 313.7 166.614C313.09 166.239 312.616 165.714 312.279 165.04C311.942 164.366 311.773 163.578 311.773 162.676C311.773 161.771 311.942 160.979 312.279 160.301C312.616 159.623 313.09 159.097 313.7 158.722C314.309 158.347 315.023 158.159 315.842 158.159C316.66 158.159 317.374 158.347 317.984 158.722C318.594 159.097 319.067 159.623 319.404 160.301C319.741 160.979 319.91 161.771 319.91 162.676C319.91 163.578 319.741 164.366 319.404 165.04C319.067 165.714 318.594 166.239 317.984 166.614C317.374 166.989 316.66 167.176 315.842 167.176ZM315.847 165.75C316.378 165.75 316.817 165.61 317.165 165.33C317.514 165.049 317.772 164.676 317.938 164.21C318.109 163.744 318.194 163.231 318.194 162.67C318.194 162.114 318.109 161.602 317.938 161.136C317.772 160.667 317.514 160.29 317.165 160.006C316.817 159.722 316.378 159.58 315.847 159.58C315.313 159.58 314.87 159.722 314.518 160.006C314.169 160.29 313.91 160.667 313.739 161.136C313.573 161.602 313.489 162.114 313.489 162.67C313.489 163.231 313.573 163.744 313.739 164.21C313.91 164.676 314.169 165.049 314.518 165.33C314.87 165.61 315.313 165.75 315.847 165.75ZM321.806 167V158.273H325.425C326.41 158.273 327.191 158.483 327.766 158.903C328.342 159.32 328.63 159.886 328.63 160.602C328.63 161.114 328.467 161.519 328.141 161.818C327.816 162.117 327.384 162.318 326.846 162.42C327.236 162.466 327.594 162.583 327.92 162.773C328.246 162.958 328.507 163.208 328.704 163.523C328.905 163.837 329.005 164.212 329.005 164.648C329.005 165.11 328.886 165.519 328.647 165.875C328.408 166.227 328.062 166.504 327.607 166.705C327.156 166.902 326.613 167 325.977 167H321.806ZM323.403 165.58H325.977C326.397 165.58 326.727 165.479 326.965 165.278C327.204 165.078 327.323 164.805 327.323 164.46C327.323 164.055 327.204 163.737 326.965 163.506C326.727 163.271 326.397 163.153 325.977 163.153H323.403V165.58ZM323.403 161.909H325.442C325.761 161.909 326.033 161.864 326.261 161.773C326.492 161.682 326.668 161.553 326.789 161.386C326.914 161.216 326.977 161.015 326.977 160.784C326.977 160.447 326.838 160.184 326.562 159.994C326.285 159.805 325.906 159.71 325.425 159.71H323.403V161.909ZM333.408 167.193C332.855 167.193 332.355 167.091 331.908 166.886C331.461 166.678 331.107 166.377 330.846 165.983C330.588 165.589 330.46 165.106 330.46 164.534C330.46 164.042 330.554 163.636 330.744 163.318C330.933 163 331.189 162.748 331.511 162.562C331.833 162.377 332.192 162.237 332.59 162.142C332.988 162.047 333.393 161.975 333.806 161.926C334.329 161.866 334.753 161.816 335.079 161.778C335.405 161.737 335.641 161.67 335.789 161.58C335.937 161.489 336.011 161.341 336.011 161.136V161.097C336.011 160.6 335.871 160.216 335.59 159.943C335.314 159.67 334.901 159.534 334.352 159.534C333.78 159.534 333.329 159.661 332.999 159.915C332.674 160.165 332.448 160.443 332.323 160.75L330.727 160.386C330.916 159.856 331.192 159.428 331.556 159.102C331.924 158.773 332.346 158.534 332.823 158.386C333.3 158.235 333.802 158.159 334.329 158.159C334.677 158.159 335.047 158.201 335.437 158.284C335.831 158.364 336.198 158.511 336.539 158.727C336.884 158.943 337.166 159.252 337.386 159.653C337.605 160.051 337.715 160.568 337.715 161.205V167H336.056V165.807H335.988C335.878 166.027 335.713 166.242 335.494 166.455C335.274 166.667 334.992 166.843 334.647 166.983C334.302 167.123 333.889 167.193 333.408 167.193ZM333.778 165.83C334.247 165.83 334.649 165.737 334.982 165.551C335.319 165.366 335.575 165.123 335.749 164.824C335.927 164.521 336.016 164.197 336.016 163.852V162.727C335.956 162.788 335.838 162.845 335.664 162.898C335.494 162.947 335.299 162.991 335.079 163.028C334.859 163.062 334.645 163.095 334.437 163.125C334.228 163.152 334.054 163.174 333.914 163.193C333.585 163.235 333.283 163.305 333.011 163.403C332.742 163.502 332.526 163.644 332.363 163.83C332.204 164.011 332.124 164.254 332.124 164.557C332.124 164.977 332.28 165.295 332.59 165.511C332.901 165.723 333.297 165.83 333.778 165.83ZM345.893 161.903V163.375H341.165V161.903H345.893ZM341.643 158.273V167H339.978V158.273H341.643ZM347.08 158.273V167H345.421V158.273H347.08ZM351.018 164.619L354.864 158.273H356.694V167H355.029V160.648L351.2 167H349.353V158.273H351.018V164.619ZM362.739 167.176C361.879 167.176 361.139 166.992 360.518 166.625C359.9 166.254 359.423 165.733 359.086 165.062C358.753 164.388 358.586 163.598 358.586 162.693C358.586 161.799 358.753 161.011 359.086 160.33C359.423 159.648 359.893 159.116 360.495 158.733C361.101 158.35 361.809 158.159 362.62 158.159C363.112 158.159 363.59 158.241 364.052 158.403C364.514 158.566 364.929 158.822 365.296 159.17C365.664 159.519 365.953 159.972 366.165 160.528C366.378 161.081 366.484 161.754 366.484 162.545V163.148H359.546V161.875H364.819C364.819 161.428 364.728 161.032 364.546 160.687C364.364 160.339 364.109 160.064 363.779 159.864C363.453 159.663 363.071 159.562 362.631 159.562C362.154 159.562 361.737 159.68 361.381 159.915C361.029 160.146 360.756 160.449 360.563 160.824C360.374 161.195 360.279 161.598 360.279 162.034V163.028C360.279 163.612 360.381 164.108 360.586 164.517C360.794 164.926 361.084 165.239 361.455 165.455C361.826 165.667 362.26 165.773 362.756 165.773C363.078 165.773 363.372 165.727 363.637 165.636C363.902 165.542 364.131 165.402 364.325 165.216C364.518 165.03 364.665 164.801 364.768 164.528L366.376 164.818C366.247 165.292 366.016 165.706 365.683 166.062C365.353 166.415 364.938 166.689 364.438 166.886C363.942 167.08 363.376 167.176 362.739 167.176Z" fill="url(#paint2_linear_509_657)"/>
<path opacity="0.85" d="M408.776 274L404.866 268.784H403.628V274H401.872V262.364H403.628V267.278H404.202L408.599 262.364H410.741L406.088 267.574L410.918 274H408.776ZM411.72 274L411.714 272.528H412.027C412.269 272.528 412.472 272.477 412.635 272.375C412.802 272.269 412.938 272.091 413.044 271.841C413.15 271.591 413.232 271.246 413.288 270.807C413.345 270.364 413.387 269.807 413.413 269.136L413.567 265.273H419.658V274H417.993V266.739H415.141L415.004 269.705C414.97 270.424 414.896 271.053 414.783 271.591C414.673 272.129 414.512 272.578 414.3 272.938C414.088 273.294 413.815 273.561 413.482 273.739C413.148 273.913 412.743 274 412.266 274H411.72ZM423.588 271.619L427.435 265.273H429.264V274H427.599V267.648L423.77 274H421.923V265.273H423.588V271.619ZM435.31 274.176C434.45 274.176 433.709 273.992 433.088 273.625C432.471 273.254 431.993 272.733 431.656 272.062C431.323 271.388 431.156 270.598 431.156 269.693C431.156 268.799 431.323 268.011 431.656 267.33C431.993 266.648 432.463 266.116 433.065 265.733C433.671 265.35 434.38 265.159 435.19 265.159C435.683 265.159 436.16 265.241 436.622 265.403C437.084 265.566 437.499 265.822 437.866 266.17C438.234 266.519 438.524 266.972 438.736 267.528C438.948 268.081 439.054 268.754 439.054 269.545V270.148H432.116V268.875H437.389C437.389 268.428 437.298 268.032 437.116 267.688C436.935 267.339 436.679 267.064 436.349 266.864C436.024 266.663 435.641 266.562 435.202 266.562C434.724 266.562 434.308 266.68 433.952 266.915C433.599 267.146 433.327 267.449 433.134 267.824C432.944 268.195 432.849 268.598 432.849 269.034V270.028C432.849 270.612 432.952 271.108 433.156 271.517C433.365 271.926 433.654 272.239 434.026 272.455C434.397 272.667 434.83 272.773 435.327 272.773C435.649 272.773 435.942 272.727 436.207 272.636C436.473 272.542 436.702 272.402 436.895 272.216C437.088 272.03 437.236 271.801 437.338 271.528L438.946 271.818C438.817 272.292 438.586 272.706 438.253 273.062C437.923 273.415 437.509 273.689 437.009 273.886C436.512 274.08 435.946 274.176 435.31 274.176ZM446.854 268.903V270.375H442.126V268.903H446.854ZM442.604 265.273V274H440.939V265.273H442.604ZM448.041 265.273V274H446.382V265.273L448.041 265.273ZM449.232 266.739V265.273H456.595V266.739H453.749V274H452.089V266.739H449.232ZM459.67 268.273H462.205C463.273 268.273 464.095 268.538 464.67 269.068C465.246 269.598 465.534 270.282 465.534 271.119C465.534 271.665 465.405 272.155 465.148 272.591C464.89 273.027 464.513 273.371 464.017 273.625C463.521 273.875 462.917 274 462.205 274H458.392V265.273H460.057V272.534H462.205C462.693 272.534 463.095 272.407 463.409 272.153C463.723 271.896 463.881 271.568 463.881 271.17C463.881 270.75 463.723 270.407 463.409 270.142C463.095 269.873 462.693 269.739 462.205 269.739H459.67V268.273ZM466.773 274V265.273H468.472V274H466.773ZM475.183 261.818L471.433 275.75H469.916L473.666 261.818H475.183ZM480.861 274V265.273H487.98V274H486.315V266.739H482.514V274H480.861ZM493.928 274.176C493.109 274.176 492.395 273.989 491.786 273.614C491.176 273.239 490.702 272.714 490.365 272.04C490.028 271.366 489.859 270.578 489.859 269.676C489.859 268.771 490.028 267.979 490.365 267.301C490.702 266.623 491.176 266.097 491.786 265.722C492.395 265.347 493.109 265.159 493.928 265.159C494.746 265.159 495.46 265.347 496.07 265.722C496.679 266.097 497.153 266.623 497.49 267.301C497.827 267.979 497.996 268.771 497.996 269.676C497.996 270.578 497.827 271.366 497.49 272.04C497.153 272.714 496.679 273.239 496.07 273.614C495.46 273.989 494.746 274.176 493.928 274.176ZM493.933 272.75C494.464 272.75 494.903 272.61 495.251 272.33C495.6 272.049 495.857 271.676 496.024 271.21C496.195 270.744 496.28 270.231 496.28 269.67C496.28 269.114 496.195 268.602 496.024 268.136C495.857 267.667 495.6 267.29 495.251 267.006C494.903 266.722 494.464 266.58 493.933 266.58C493.399 266.58 492.956 266.722 492.604 267.006C492.255 267.29 491.996 267.667 491.825 268.136C491.659 268.602 491.575 269.114 491.575 269.67C491.575 270.231 491.659 270.744 491.825 271.21C491.996 271.676 492.255 272.049 492.604 272.33C492.956 272.61 493.399 272.75 493.933 272.75ZM499.205 274L499.199 272.528H499.511C499.754 272.528 499.956 272.477 500.119 272.375C500.286 272.269 500.422 272.091 500.528 271.841C500.634 271.591 500.716 271.246 500.773 270.807C500.83 270.364 500.871 269.807 500.898 269.136L501.051 265.273H507.142V274H505.477V266.739H502.625L502.489 269.705C502.455 270.424 502.381 271.053 502.267 271.591C502.157 272.129 501.996 272.578 501.784 272.937C501.572 273.294 501.299 273.561 500.966 273.739C500.633 273.913 500.227 274 499.75 274H499.205ZM510.686 268.273H513.22C514.288 268.273 515.11 268.538 515.686 269.068C516.262 269.598 516.55 270.282 516.55 271.119C516.55 271.665 516.421 272.155 516.163 272.591C515.906 273.027 515.529 273.371 515.033 273.625C514.536 273.875 513.932 274 513.22 274H509.408V265.273H511.072V272.534H513.22C513.709 272.534 514.11 272.407 514.425 272.153C514.739 271.896 514.896 271.568 514.896 271.17C514.896 270.75 514.739 270.407 514.425 270.142C514.11 269.873 513.709 269.739 513.22 269.739H510.686V268.273ZM517.938 271.693H519.676C519.699 272.049 519.86 272.324 520.159 272.517C520.462 272.71 520.854 272.807 521.335 272.807C521.824 272.807 522.241 272.703 522.585 272.494C522.93 272.282 523.102 271.955 523.102 271.511C523.102 271.246 523.036 271.015 522.903 270.818C522.775 270.617 522.591 270.462 522.352 270.352C522.117 270.242 521.839 270.187 521.517 270.187H520.097V268.852H521.517C521.998 268.852 522.358 268.742 522.597 268.523C522.835 268.303 522.955 268.028 522.955 267.699C522.955 267.343 522.826 267.057 522.568 266.841C522.314 266.621 521.96 266.511 521.506 266.511C521.044 266.511 520.659 266.616 520.352 266.824C520.045 267.028 519.884 267.294 519.869 267.619H518.153C518.165 267.131 518.313 266.703 518.597 266.335C518.884 265.964 519.271 265.676 519.756 265.472C520.244 265.263 520.799 265.159 521.42 265.159C522.068 265.159 522.629 265.263 523.102 265.472C523.576 265.68 523.941 265.968 524.199 266.335C524.46 266.703 524.591 267.125 524.591 267.602C524.591 268.083 524.447 268.477 524.159 268.784C523.875 269.087 523.504 269.305 523.045 269.437V269.528C523.383 269.551 523.682 269.653 523.943 269.835C524.205 270.017 524.409 270.258 524.557 270.557C524.705 270.856 524.778 271.195 524.778 271.574C524.778 272.108 524.631 272.57 524.335 272.96C524.044 273.35 523.638 273.652 523.119 273.864C522.604 274.072 522.015 274.176 521.352 274.176C520.708 274.176 520.131 274.076 519.619 273.875C519.112 273.67 518.708 273.383 518.409 273.011C518.114 272.64 517.956 272.201 517.938 271.693ZM530.209 274.176C529.391 274.176 528.677 273.989 528.067 273.614C527.457 273.239 526.983 272.714 526.646 272.04C526.309 271.366 526.141 270.578 526.141 269.676C526.141 268.771 526.309 267.979 526.646 267.301C526.983 266.623 527.457 266.097 528.067 265.722C528.677 265.347 529.391 265.159 530.209 265.159C531.027 265.159 531.741 265.347 532.351 265.722C532.961 266.097 533.434 266.623 533.771 267.301C534.108 267.979 534.277 268.771 534.277 269.676C534.277 270.578 534.108 271.366 533.771 272.04C533.434 272.714 532.961 273.239 532.351 273.614C531.741 273.989 531.027 274.176 530.209 274.176ZM530.214 272.75C530.745 272.75 531.184 272.61 531.533 272.33C531.881 272.049 532.139 271.676 532.305 271.21C532.476 270.744 532.561 270.231 532.561 269.67C532.561 269.114 532.476 268.602 532.305 268.136C532.139 267.667 531.881 267.29 531.533 267.006C531.184 266.722 530.745 266.58 530.214 266.58C529.68 266.58 529.237 266.722 528.885 267.006C528.536 267.29 528.277 267.667 528.107 268.136C527.94 268.602 527.857 269.114 527.857 269.67C527.857 270.231 527.94 270.744 528.107 271.21C528.277 271.676 528.536 272.049 528.885 272.33C529.237 272.61 529.68 272.75 530.214 272.75ZM536.173 274V265.273L539.793 265.273C540.777 265.273 541.558 265.483 542.134 265.903C542.709 266.32 542.997 266.886 542.997 267.602C542.997 268.114 542.834 268.519 542.509 268.818C542.183 269.117 541.751 269.318 541.213 269.42C541.603 269.466 541.961 269.583 542.287 269.773C542.613 269.958 542.874 270.208 543.071 270.523C543.272 270.837 543.372 271.212 543.372 271.648C543.372 272.11 543.253 272.519 543.014 272.875C542.776 273.227 542.429 273.504 541.974 273.705C541.524 273.902 540.98 274 540.344 274L536.173 274ZM537.77 272.58H540.344C540.764 272.58 541.094 272.479 541.332 272.278C541.571 272.078 541.69 271.805 541.69 271.46C541.69 271.055 541.571 270.737 541.332 270.506C541.094 270.271 540.764 270.153 540.344 270.153H537.77V272.58ZM537.77 268.909H539.81C540.128 268.909 540.401 268.864 540.628 268.773C540.859 268.682 541.035 268.553 541.156 268.386C541.281 268.216 541.344 268.015 541.344 267.784C541.344 267.447 541.205 267.184 540.929 266.994C540.652 266.805 540.274 266.71 539.793 266.71H537.77V268.909ZM547.776 274.193C547.223 274.193 546.723 274.091 546.276 273.886C545.829 273.678 545.474 273.377 545.213 272.983C544.955 272.589 544.827 272.106 544.827 271.534C544.827 271.042 544.921 270.636 545.111 270.318C545.3 270 545.556 269.748 545.878 269.562C546.2 269.377 546.56 269.237 546.957 269.142C547.355 269.047 547.76 268.975 548.173 268.926C548.696 268.866 549.12 268.816 549.446 268.778C549.772 268.737 550.009 268.67 550.156 268.58C550.304 268.489 550.378 268.341 550.378 268.136V268.097C550.378 267.6 550.238 267.216 549.957 266.943C549.681 266.67 549.268 266.534 548.719 266.534C548.147 266.534 547.696 266.661 547.366 266.915C547.041 267.165 546.815 267.443 546.69 267.75L545.094 267.386C545.283 266.856 545.56 266.428 545.923 266.102C546.291 265.773 546.713 265.534 547.19 265.386C547.668 265.235 548.17 265.159 548.696 265.159C549.045 265.159 549.414 265.201 549.804 265.284C550.198 265.364 550.565 265.511 550.906 265.727C551.251 265.943 551.533 266.252 551.753 266.653C551.973 267.051 552.082 267.568 552.082 268.205V274H550.423V272.807H550.355C550.245 273.027 550.08 273.242 549.861 273.455C549.641 273.667 549.359 273.843 549.014 273.983C548.67 274.123 548.257 274.193 547.776 274.193ZM548.145 272.83C548.615 272.83 549.016 272.737 549.349 272.551C549.687 272.366 549.942 272.123 550.116 271.824C550.295 271.521 550.384 271.197 550.384 270.852V269.727C550.323 269.788 550.205 269.845 550.031 269.898C549.861 269.947 549.666 269.991 549.446 270.028C549.226 270.062 549.012 270.095 548.804 270.125C548.596 270.152 548.421 270.174 548.281 270.193C547.952 270.235 547.651 270.305 547.378 270.403C547.109 270.502 546.893 270.644 546.73 270.83C546.571 271.011 546.491 271.254 546.491 271.557C546.491 271.977 546.647 272.295 546.957 272.511C547.268 272.723 547.664 272.83 548.145 272.83ZM553.263 266.739V265.273H560.626V266.739H557.78V274H556.121V266.739H553.263ZM565.778 274.176C564.919 274.176 564.178 273.992 563.557 273.625C562.939 273.254 562.462 272.733 562.125 272.062C561.792 271.388 561.625 270.598 561.625 269.693C561.625 268.799 561.792 268.011 562.125 267.33C562.462 266.648 562.932 266.116 563.534 265.733C564.14 265.35 564.848 265.159 565.659 265.159C566.152 265.159 566.629 265.241 567.091 265.403C567.553 265.566 567.968 265.822 568.335 266.17C568.703 266.519 568.992 266.972 569.205 267.528C569.417 268.081 569.523 268.754 569.523 269.545V270.148H562.585V268.875H567.858C567.858 268.428 567.767 268.032 567.585 267.687C567.403 267.339 567.148 267.064 566.818 266.864C566.492 266.663 566.11 266.562 565.67 266.562C565.193 266.562 564.777 266.68 564.42 266.915C564.068 267.146 563.795 267.449 563.602 267.824C563.413 268.195 563.318 268.598 563.318 269.034V270.028C563.318 270.612 563.42 271.108 563.625 271.517C563.833 271.926 564.123 272.239 564.494 272.455C564.866 272.667 565.299 272.773 565.795 272.773C566.117 272.773 566.411 272.727 566.676 272.636C566.941 272.542 567.17 272.402 567.364 272.216C567.557 272.03 567.705 271.801 567.807 271.528L569.415 271.818C569.286 272.292 569.055 272.706 568.722 273.062C568.392 273.415 567.977 273.689 567.477 273.886C566.981 274.08 566.415 274.176 565.778 274.176ZM570.72 274L570.714 272.528H571.027C571.269 272.528 571.472 272.477 571.635 272.375C571.802 272.269 571.938 272.091 572.044 271.841C572.15 271.591 572.232 271.246 572.288 270.807C572.345 270.364 572.387 269.807 572.413 269.136L572.567 265.273H578.658V274H576.993V266.739H574.141L574.004 269.705C573.97 270.424 573.896 271.053 573.783 271.591C573.673 272.129 573.512 272.578 573.3 272.937C573.088 273.294 572.815 273.561 572.482 273.739C572.148 273.913 571.743 274 571.266 274H570.72ZM582.588 271.619L586.435 265.273H588.264V274H586.599V267.648L582.77 274H580.923V265.273H582.588V271.619Z" fill="url(#paint3_linear_509_657)"/>
<path opacity="0.85" d="M97.2415 18.8125V14.5114L98.0085 14.5114C98.2699 14.2917 98.5142 13.9792 98.7415 13.5739C98.9688 13.1686 99.1619 12.6212 99.321 11.9318C99.4801 11.2424 99.59 10.358 99.6506 9.27841L99.9233 4.36364L107.099 4.36364V14.5114H108.418V18.7955H106.736V16L98.9233 16V18.8125H97.2415ZM100.077 14.5114L105.418 14.5114V5.875L101.514 5.875L101.332 9.27841C101.283 10.1004 101.202 10.839 101.088 11.4943C100.978 12.1496 100.836 12.7292 100.662 13.233C100.491 13.733 100.296 14.1591 100.077 14.5114ZM113.881 16.1761C113.063 16.1761 112.348 15.9886 111.739 15.6136C111.129 15.2386 110.655 14.714 110.318 14.0398C109.981 13.3655 109.812 12.5777 109.812 11.6761C109.812 10.7708 109.981 9.97917 110.318 9.30114C110.655 8.62311 111.129 8.09659 111.739 7.72159C112.348 7.34659 113.063 7.15909 113.881 7.15909C114.699 7.15909 115.413 7.34659 116.023 7.72159C116.633 8.09659 117.106 8.62311 117.443 9.30114C117.78 9.97917 117.949 10.7708 117.949 11.6761C117.949 12.5777 117.78 13.3655 117.443 14.0398C117.106 14.714 116.633 15.2386 116.023 15.6136C115.413 15.9886 114.699 16.1761 113.881 16.1761ZM113.886 14.75C114.417 14.75 114.856 14.6098 115.205 14.3295C115.553 14.0492 115.811 13.6761 115.977 13.2102C116.148 12.7443 116.233 12.2311 116.233 11.6705C116.233 11.1136 116.148 10.6023 115.977 10.1364C115.811 9.66667 115.553 9.28977 115.205 9.00568C114.856 8.72159 114.417 8.57955 113.886 8.57955C113.352 8.57955 112.909 8.72159 112.557 9.00568C112.208 9.28977 111.949 9.66667 111.778 10.1364C111.612 10.6023 111.528 11.1136 111.528 11.6705C111.528 12.2311 111.612 12.7443 111.778 13.2102C111.949 13.6761 112.208 14.0492 112.557 14.3295C112.909 14.6098 113.352 14.75 113.886 14.75ZM123.521 16.1761C122.677 16.1761 121.949 15.9848 121.339 15.6023C120.733 15.2159 120.268 14.6837 119.942 14.0057C119.616 13.3277 119.453 12.5511 119.453 11.6761C119.453 10.7898 119.62 10.0076 119.953 9.32955C120.286 8.64773 120.756 8.11553 121.362 7.73295C121.968 7.35038 122.682 7.15909 123.504 7.15909C124.167 7.15909 124.758 7.2822 125.277 7.52841C125.796 7.77083 126.214 8.11174 126.533 8.55114C126.855 8.99053 127.046 9.50379 127.107 10.0909L125.453 10.0909C125.362 9.68182 125.154 9.32955 124.828 9.03409C124.506 8.73864 124.074 8.59091 123.533 8.59091C123.059 8.59091 122.644 8.71591 122.288 8.96591C121.936 9.21212 121.661 9.56439 121.464 10.0227C121.268 10.4773 121.169 11.0152 121.169 11.6364C121.169 12.2727 121.266 12.822 121.459 13.2841C121.652 13.7462 121.925 14.1042 122.277 14.358C122.633 14.6117 123.052 14.7386 123.533 14.7386C123.855 14.7386 124.146 14.6799 124.408 14.5625C124.673 14.4413 124.894 14.2689 125.072 14.0455C125.254 13.822 125.381 13.553 125.453 13.2386L127.107 13.2386C127.046 13.803 126.862 14.3068 126.555 14.75C126.249 15.1932 125.838 15.5417 125.322 15.7955C124.811 16.0492 124.211 16.1761 123.521 16.1761ZM128.263 8.73864V7.27273L135.626 7.27273V8.73864L132.78 8.73864V16L131.121 16V8.73864L128.263 8.73864ZM138.497 19.2727C138.243 19.2727 138.012 19.2519 137.804 19.2102C137.596 19.1723 137.44 19.1307 137.338 19.0852L137.747 17.6932C138.058 17.7765 138.334 17.8125 138.577 17.8011C138.819 17.7898 139.033 17.6989 139.219 17.5284C139.408 17.358 139.575 17.0795 139.719 16.6932L139.929 16.1136L136.736 7.27273L138.554 7.27273L140.764 14.0455H140.855L143.065 7.27273L144.889 7.27273L141.293 17.1648C141.126 17.6193 140.914 18.0038 140.656 18.3182C140.399 18.6364 140.092 18.875 139.736 19.0341C139.38 19.1932 138.967 19.2727 138.497 19.2727ZM146.486 16V7.27273L153.605 7.27273V16L151.94 16V8.73864L148.139 8.73864V16L146.486 16ZM161.791 10.9034V12.375L157.064 12.375V10.9034L161.791 10.9034ZM157.541 7.27273V16H155.876V7.27273L157.541 7.27273ZM162.979 7.27273V16L161.32 16V7.27273L162.979 7.27273ZM166.53 10.2727L169.064 10.2727C170.132 10.2727 170.954 10.5379 171.53 11.0682C172.106 11.5985 172.393 12.2822 172.393 13.1193C172.393 13.6648 172.265 14.1553 172.007 14.5909C171.75 15.0265 171.373 15.3712 170.876 15.625C170.38 15.875 169.776 16 169.064 16L165.251 16V7.27273L166.916 7.27273V14.5341L169.064 14.5341C169.553 14.5341 169.954 14.4072 170.268 14.1534C170.583 13.8958 170.74 13.5682 170.74 13.1705C170.74 12.75 170.583 12.4072 170.268 12.142C169.954 11.8731 169.553 11.7386 169.064 11.7386L166.53 11.7386V10.2727ZM173.632 16V7.27273L175.331 7.27273V16H173.632ZM181.372 16.1761C180.512 16.1761 179.772 15.9924 179.151 15.625C178.533 15.2538 178.056 14.733 177.719 14.0625C177.385 13.3883 177.219 12.5985 177.219 11.6932C177.219 10.7992 177.385 10.0114 177.719 9.32955C178.056 8.64773 178.526 8.11553 179.128 7.73295C179.734 7.35038 180.442 7.15909 181.253 7.15909C181.745 7.15909 182.223 7.24053 182.685 7.40341C183.147 7.56629 183.562 7.82197 183.929 8.17045C184.296 8.51894 184.586 8.97159 184.798 9.52841C185.01 10.0814 185.116 10.7538 185.116 11.5455V12.1477L178.179 12.1477V10.875L183.452 10.875C183.452 10.428 183.361 10.0322 183.179 9.6875C182.997 9.33902 182.741 9.06439 182.412 8.86364C182.086 8.66288 181.704 8.5625 181.264 8.5625C180.787 8.5625 180.37 8.67992 180.014 8.91477C179.662 9.14583 179.389 9.44886 179.196 9.82386C179.007 10.1951 178.912 10.5985 178.912 11.0341V12.0284C178.912 12.6117 179.014 13.108 179.219 13.517C179.427 13.9261 179.717 14.2386 180.088 14.4545C180.459 14.6667 180.893 14.7727 181.389 14.7727C181.711 14.7727 182.005 14.7273 182.27 14.6364C182.535 14.5417 182.764 14.4015 182.957 14.2159C183.151 14.0303 183.298 13.8011 183.401 13.5284L185.009 13.8182C184.88 14.2917 184.649 14.7064 184.315 15.0625C183.986 15.4148 183.571 15.6894 183.071 15.8864C182.575 16.0795 182.009 16.1761 181.372 16.1761ZM190.747 8.73864V7.27273L198.111 7.27273V8.73864L195.264 8.73864V16H193.605V8.73864L190.747 8.73864ZM203.263 16.1761C202.403 16.1761 201.662 15.9924 201.041 15.625C200.424 15.2538 199.946 14.733 199.609 14.0625C199.276 13.3883 199.109 12.5985 199.109 11.6932C199.109 10.7992 199.276 10.0114 199.609 9.32955C199.946 8.64773 200.416 8.11553 201.018 7.73295C201.625 7.35038 202.333 7.15909 203.143 7.15909C203.636 7.15909 204.113 7.24053 204.575 7.40341C205.037 7.56629 205.452 7.82197 205.82 8.17045C206.187 8.51894 206.477 8.97159 206.689 9.52841C206.901 10.0814 207.007 10.7538 207.007 11.5455V12.1477L200.07 12.1477V10.875L205.342 10.875C205.342 10.428 205.251 10.0322 205.07 9.6875C204.888 9.33902 204.632 9.06439 204.303 8.86364C203.977 8.66288 203.594 8.5625 203.155 8.5625C202.678 8.5625 202.261 8.67992 201.905 8.91477C201.553 9.14583 201.28 9.44886 201.087 9.82386C200.897 10.1951 200.803 10.5985 200.803 11.0341V12.0284C200.803 12.6117 200.905 13.108 201.109 13.517C201.318 13.9261 201.607 14.2386 201.979 14.4545C202.35 14.6667 202.784 14.7727 203.28 14.7727C203.602 14.7727 203.895 14.7273 204.161 14.6364C204.426 14.5417 204.655 14.4015 204.848 14.2159C205.041 14.0303 205.189 13.8011 205.291 13.5284L206.899 13.8182C206.77 14.2917 206.539 14.7064 206.206 15.0625C205.876 15.4148 205.462 15.6894 204.962 15.8864C204.465 16.0795 203.899 16.1761 203.263 16.1761ZM210.03 7.27273L211.956 10.6705L213.899 7.27273L215.757 7.27273L213.036 11.6364L215.78 16H213.922L211.956 12.7386L209.996 16H208.132L210.848 11.6364L208.166 7.27273L210.03 7.27273ZM223.416 10.9034V12.375L218.689 12.375V10.9034L223.416 10.9034ZM219.166 7.27273V16H217.501V7.27273L219.166 7.27273ZM224.604 7.27273V16H222.945V7.27273L224.604 7.27273ZM230.553 16.1761C229.734 16.1761 229.02 15.9886 228.411 15.6136C227.801 15.2386 227.327 14.714 226.99 14.0398C226.653 13.3655 226.484 12.5777 226.484 11.6761C226.484 10.7708 226.653 9.97917 226.99 9.30114C227.327 8.62311 227.801 8.09659 228.411 7.72159C229.02 7.34659 229.734 7.15909 230.553 7.15909C231.371 7.15909 232.085 7.34659 232.695 7.72159C233.304 8.09659 233.778 8.62311 234.115 9.30114C234.452 9.97917 234.621 10.7708 234.621 11.6761C234.621 12.5777 234.452 13.3655 234.115 14.0398C233.778 14.714 233.304 15.2386 232.695 15.6136C232.085 15.9886 231.371 16.1761 230.553 16.1761ZM230.558 14.75C231.089 14.75 231.528 14.6098 231.876 14.3295C232.225 14.0492 232.482 13.6761 232.649 13.2102C232.82 12.7443 232.905 12.2311 232.905 11.6705C232.905 11.1136 232.82 10.6023 232.649 10.1364C232.482 9.66667 232.225 9.28977 231.876 9.00568C231.528 8.72159 231.089 8.57955 230.558 8.57955C230.024 8.57955 229.581 8.72159 229.229 9.00568C228.88 9.28977 228.621 9.66667 228.45 10.1364C228.284 10.6023 228.2 11.1136 228.2 11.6705C228.2 12.2311 228.284 12.7443 228.45 13.2102C228.621 13.6761 228.88 14.0492 229.229 14.3295C229.581 14.6098 230.024 14.75 230.558 14.75ZM235.83 16L235.824 14.5284H236.136C236.379 14.5284 236.581 14.4773 236.744 14.375C236.911 14.2689 237.047 14.0909 237.153 13.8409C237.259 13.5909 237.341 13.2462 237.398 12.8068C237.455 12.3636 237.496 11.8068 237.523 11.1364L237.676 7.27273L243.767 7.27273V16L242.102 16V8.73864L239.25 8.73864L239.114 11.7045C239.08 12.4242 239.006 13.053 238.892 13.5909C238.782 14.1288 238.621 14.5777 238.409 14.9375C238.197 15.2936 237.924 15.5606 237.591 15.7386C237.258 15.9129 236.852 16 236.375 16H235.83ZM249.709 16.1761C248.891 16.1761 248.177 15.9886 247.567 15.6136C246.957 15.2386 246.483 14.714 246.146 14.0398C245.809 13.3655 245.641 12.5777 245.641 11.6761C245.641 10.7708 245.809 9.97917 246.146 9.30114C246.483 8.62311 246.957 8.09659 247.567 7.72159C248.177 7.34659 248.891 7.15909 249.709 7.15909C250.527 7.15909 251.241 7.34659 251.851 7.72159C252.461 8.09659 252.934 8.62311 253.271 9.30114C253.608 9.97917 253.777 10.7708 253.777 11.6761C253.777 12.5777 253.608 13.3655 253.271 14.0398C252.934 14.714 252.461 15.2386 251.851 15.6136C251.241 15.9886 250.527 16.1761 249.709 16.1761ZM249.714 14.75C250.245 14.75 250.684 14.6098 251.033 14.3295C251.381 14.0492 251.639 13.6761 251.805 13.2102C251.976 12.7443 252.061 12.2311 252.061 11.6705C252.061 11.1136 251.976 10.6023 251.805 10.1364C251.639 9.66667 251.381 9.28977 251.033 9.00568C250.684 8.72159 250.245 8.57955 249.714 8.57955C249.18 8.57955 248.737 8.72159 248.385 9.00568C248.036 9.28977 247.777 9.66667 247.607 10.1364C247.44 10.6023 247.357 11.1136 247.357 11.6705C247.357 12.2311 247.44 12.7443 247.607 13.2102C247.777 13.6761 248.036 14.0492 248.385 14.3295C248.737 14.6098 249.18 14.75 249.714 14.75ZM261.253 7.27273V8.73864L257.349 8.73864V16L255.673 16V7.27273L261.253 7.27273ZM264.713 13.6193L268.56 7.27273L270.389 7.27273V16H268.724V9.64773L264.895 16H263.048V7.27273L264.713 7.27273V13.6193ZM274.338 13.6193L278.185 7.27273L280.014 7.27273V16L278.349 16V9.64773L274.52 16L272.673 16V7.27273L274.338 7.27273V13.6193Z" fill="url(#paint4_linear_509_657)"/>
<circle cx="199.5" cy="161" r="4" fill="white"/>
<circle opacity="0.1" cx="199.5" cy="161" r="10" fill="white"/>
<circle cx="309.5" cy="51" r="4" fill="white"/>
<circle opacity="0.1" cx="309.5" cy="51" r="10" fill="white"/>
<circle cx="419.5" cy="161" r="4" fill="white"/>
<circle opacity="0.1" cx="419.5" cy="161" r="10" fill="white"/>
<circle cx="309.5" cy="271" r="4" fill="white"/>
<circle opacity="0.1" cx="309.5" cy="271" r="10" fill="white"/>
<rect opacity="0.7" x="309.5" y="72.1143" width="126.642" height="126.642" transform="rotate(45 309.5 72.1143)" stroke="white"/>
<rect opacity="0.5" x="309.5" y="52.1702" width="154.563" height="154.563" transform="rotate(45 309.5 52.1702)" stroke="white"/>
<path opacity="0.6" d="M199 161L178 180H0" stroke="white" stroke-opacity="0.85"/>
<path opacity="0.6" d="M419.5 161L440.5 142L592 142" stroke="white" stroke-opacity="0.85"/>
<path opacity="0.6" d="M309.5 271L330.5 290L589.5 290" stroke="white" stroke-opacity="0.85"/>
<path opacity="0.6" d="M309 51L288 32L95.5 32" stroke="white" stroke-opacity="0.85"/>
<defs>
<linearGradient id="paint0_linear_509_657" x1="521" y1="110" x2="521" y2="130" gradientUnits="userSpaceOnUse">
<stop stop-color="white"/>
<stop offset="1" stop-color="white" stop-opacity="0.7"/>
</linearGradient>
<linearGradient id="paint1_linear_509_657" x1="82.5" y1="148" x2="82.5" y2="168" gradientUnits="userSpaceOnUse">
<stop stop-color="white"/>
<stop offset="1" stop-color="white" stop-opacity="0.7"/>
</linearGradient>
<linearGradient id="paint2_linear_509_657" x1="309.5" y1="151" x2="309.5" y2="171" gradientUnits="userSpaceOnUse">
<stop stop-color="white"/>
<stop offset="1" stop-color="white" stop-opacity="0.7"/>
</linearGradient>
<linearGradient id="paint3_linear_509_657" x1="495" y1="258" x2="495" y2="278" gradientUnits="userSpaceOnUse">
<stop stop-color="white"/>
<stop offset="1" stop-color="white" stop-opacity="0.7"/>
</linearGradient>
<linearGradient id="paint4_linear_509_657" x1="189" y1="0" x2="189" y2="20" gradientUnits="userSpaceOnUse">
<stop stop-color="white"/>
<stop offset="1" stop-color="white" stop-opacity="0.7"/>
</linearGradient>
</defs>
</svg>
