<svg width="516" height="308" viewBox="0 0 516 308" fill="none" xmlns="http://www.w3.org/2000/svg">
<path opacity="0.7" d="M160.036 137.525L250.75 71.618L341.464 137.525L306.814 244.166H194.686L160.036 137.525Z" stroke="white"/>
<path opacity="0.5" d="M140.064 131.036L250.75 50.618L361.436 131.036L319.158 261.155H182.342L140.064 131.036Z" stroke="white"/>
<circle cx="182.75" cy="262" r="4" fill="white"/>
<circle opacity="0.1" cx="182.75" cy="262" r="10" fill="white"/>
<circle cx="319.75" cy="262" r="4" fill="white"/>
<circle opacity="0.1" cx="319.75" cy="262" r="10" fill="white"/>
<circle cx="360.75" cy="131" r="4" fill="white"/>
<circle opacity="0.1" cx="360.75" cy="131" r="10" fill="white"/>
<circle cx="140.75" cy="131" r="4" fill="white"/>
<circle opacity="0.1" cx="140.75" cy="131" r="10" fill="white"/>
<circle cx="250.75" cy="51" r="4" fill="white"/>
<circle opacity="0.1" cx="250.75" cy="51" r="10" fill="white"/>
<path opacity="0.6" d="M140.75 131L114.75 150H1.25" stroke="white" stroke-opacity="0.85"/>
<path opacity="0.6" d="M182.25 262L156.25 281H0.25" stroke="white" stroke-opacity="0.85"/>
<path opacity="0.6" d="M250.75 50L276.75 31L514.25 31" stroke="white" stroke-opacity="0.85"/>
<path opacity="0.6" d="M360.75 131L386.75 150L500.25 150" stroke="white" stroke-opacity="0.85"/>
<path opacity="0.6" d="M320.75 262L346.75 281L501.25 281" stroke="white" stroke-opacity="0.85"/>
<path opacity="0.85" d="M190.164 156.364L190.164 168H188.414L188.414 157.864H182.937L182.937 168H181.187L181.187 156.364H190.164ZM192.712 171.273L192.712 159.273H194.371L194.371 160.688H194.513C194.612 160.506 194.754 160.295 194.94 160.057C195.125 159.818 195.383 159.61 195.712 159.432C196.042 159.25 196.478 159.159 197.019 159.159C197.724 159.159 198.353 159.337 198.906 159.693C199.459 160.049 199.892 160.562 200.207 161.233C200.525 161.903 200.684 162.71 200.684 163.653C200.684 164.597 200.527 165.405 200.212 166.08C199.898 166.75 199.466 167.267 198.917 167.631C198.368 167.991 197.741 168.17 197.036 168.17C196.506 168.17 196.072 168.081 195.735 167.903C195.402 167.725 195.14 167.517 194.951 167.278C194.762 167.04 194.616 166.828 194.513 166.642H194.411L194.411 171.273H192.712ZM194.377 163.636C194.377 164.25 194.466 164.788 194.644 165.25C194.822 165.712 195.08 166.074 195.417 166.335C195.754 166.593 196.167 166.722 196.656 166.722C197.163 166.722 197.587 166.587 197.928 166.318C198.269 166.045 198.527 165.676 198.701 165.21C198.879 164.744 198.968 164.22 198.968 163.636C198.968 163.061 198.881 162.544 198.707 162.085C198.536 161.627 198.279 161.265 197.934 161C197.593 160.735 197.167 160.602 196.656 160.602C196.163 160.602 195.746 160.729 195.406 160.983C195.068 161.237 194.813 161.591 194.638 162.045C194.464 162.5 194.377 163.03 194.377 163.636ZM206.263 168.176C205.445 168.176 204.731 167.989 204.121 167.614C203.512 167.239 203.038 166.714 202.701 166.04C202.364 165.366 202.195 164.578 202.195 163.676C202.195 162.771 202.364 161.979 202.701 161.301C203.038 160.623 203.512 160.097 204.121 159.722C204.731 159.347 205.445 159.159 206.263 159.159C207.082 159.159 207.796 159.347 208.406 159.722C209.015 160.097 209.489 160.623 209.826 161.301C210.163 161.979 210.332 162.771 210.332 163.676C210.332 164.578 210.163 165.366 209.826 166.04C209.489 166.714 209.015 167.239 208.406 167.614C207.796 167.989 207.082 168.176 206.263 168.176ZM206.269 166.75C206.799 166.75 207.239 166.61 207.587 166.33C207.936 166.049 208.193 165.676 208.36 165.21C208.531 164.744 208.616 164.231 208.616 163.67C208.616 163.114 208.531 162.602 208.36 162.136C208.193 161.667 207.936 161.29 207.587 161.006C207.239 160.722 206.799 160.58 206.269 160.58C205.735 160.58 205.292 160.722 204.94 161.006C204.591 161.29 204.332 161.667 204.161 162.136C203.995 162.602 203.911 163.114 203.911 163.67C203.911 164.231 203.995 164.744 204.161 165.21C204.332 165.676 204.591 166.049 204.94 166.33C205.292 166.61 205.735 166.75 206.269 166.75ZM215.989 168.176C215.129 168.176 214.389 167.992 213.768 167.625C213.15 167.254 212.673 166.733 212.336 166.062C212.003 165.388 211.836 164.598 211.836 163.693C211.836 162.799 212.003 162.011 212.336 161.33C212.673 160.648 213.143 160.116 213.745 159.733C214.351 159.35 215.059 159.159 215.87 159.159C216.362 159.159 216.84 159.241 217.302 159.403C217.764 159.566 218.179 159.822 218.546 160.17C218.914 160.519 219.203 160.972 219.415 161.528C219.628 162.081 219.734 162.754 219.734 163.545L219.734 164.148H212.796L212.796 162.875H218.069C218.069 162.428 217.978 162.032 217.796 161.688C217.614 161.339 217.359 161.064 217.029 160.864C216.703 160.663 216.321 160.562 215.881 160.562C215.404 160.562 214.987 160.68 214.631 160.915C214.279 161.146 214.006 161.449 213.813 161.824C213.624 162.195 213.529 162.598 213.529 163.034L213.529 164.028C213.529 164.612 213.631 165.108 213.836 165.517C214.044 165.926 214.334 166.239 214.705 166.455C215.076 166.667 215.51 166.773 216.006 166.773C216.328 166.773 216.622 166.727 216.887 166.636C217.152 166.542 217.381 166.402 217.575 166.216C217.768 166.03 217.915 165.801 218.018 165.528L219.626 165.818C219.497 166.292 219.266 166.706 218.933 167.062C218.603 167.415 218.188 167.689 217.688 167.886C217.192 168.08 216.626 168.176 215.989 168.176ZM221.619 168L221.619 159.273H223.317L223.317 162.932H224.136L227.016 159.273H229.119L225.738 163.517L229.158 168H227.05L224.42 164.511H223.317L223.317 168H221.619ZM229.989 160.739L229.989 159.273H237.353L237.353 160.739H234.506L234.506 168H232.847L232.847 160.739H229.989ZM240.815 165.619L244.661 159.273H246.491L246.491 168H244.826L244.826 161.648L240.996 168H239.15L239.15 159.273H240.815L240.815 165.619ZM248.775 171.273L248.775 159.273H250.434L250.434 160.688H250.576C250.674 160.506 250.817 160.295 251.002 160.057C251.188 159.818 251.445 159.61 251.775 159.432C252.104 159.25 252.54 159.159 253.082 159.159C253.786 159.159 254.415 159.337 254.968 159.693C255.521 160.049 255.955 160.562 256.269 161.233C256.587 161.903 256.746 162.71 256.746 163.653C256.746 164.597 256.589 165.405 256.275 166.08C255.96 166.75 255.529 167.267 254.979 167.631C254.43 167.991 253.803 168.17 253.099 168.17C252.568 168.17 252.135 168.081 251.798 167.903C251.464 167.725 251.203 167.517 251.013 167.278C250.824 167.04 250.678 166.828 250.576 166.642H250.474L250.474 171.273H248.775ZM250.44 163.636C250.44 164.25 250.529 164.788 250.707 165.25C250.885 165.712 251.142 166.074 251.479 166.335C251.817 166.593 252.229 166.722 252.718 166.722C253.226 166.722 253.65 166.587 253.991 166.318C254.332 166.045 254.589 165.676 254.763 165.21C254.942 164.744 255.031 164.22 255.031 163.636C255.031 163.061 254.943 162.544 254.769 162.085C254.599 161.627 254.341 161.265 253.996 161C253.656 160.735 253.229 160.602 252.718 160.602C252.226 160.602 251.809 160.729 251.468 160.983C251.131 161.237 250.875 161.591 250.701 162.045C250.527 162.5 250.44 163.03 250.44 163.636ZM262.326 168.176C261.508 168.176 260.794 167.989 260.184 167.614C259.574 167.239 259.101 166.714 258.763 166.04C258.426 165.366 258.258 164.578 258.258 163.676C258.258 162.771 258.426 161.979 258.763 161.301C259.101 160.623 259.574 160.097 260.184 159.722C260.794 159.347 261.508 159.159 262.326 159.159C263.144 159.159 263.858 159.347 264.468 159.722C265.078 160.097 265.551 160.623 265.888 161.301C266.226 161.979 266.394 162.771 266.394 163.676C266.394 164.578 266.226 165.366 265.888 166.04C265.551 166.714 265.078 167.239 264.468 167.614C263.858 167.989 263.144 168.176 262.326 168.176ZM262.332 166.75C262.862 166.75 263.301 166.61 263.65 166.33C263.998 166.049 264.256 165.676 264.423 165.21C264.593 164.744 264.678 164.231 264.678 163.67C264.678 163.114 264.593 162.602 264.423 162.136C264.256 161.667 263.998 161.29 263.65 161.006C263.301 160.722 262.862 160.58 262.332 160.58C261.798 160.58 261.354 160.722 261.002 161.006C260.654 161.29 260.394 161.667 260.224 162.136C260.057 162.602 259.974 163.114 259.974 163.67C259.974 164.231 260.057 164.744 260.224 165.21C260.394 165.676 260.654 166.049 261.002 166.33C261.354 166.61 261.798 166.75 262.332 166.75ZM268.29 168L268.29 159.273H271.91C272.895 159.273 273.675 159.483 274.251 159.903C274.826 160.32 275.114 160.886 275.114 161.602C275.114 162.114 274.951 162.519 274.626 162.818C274.3 163.117 273.868 163.318 273.33 163.42C273.72 163.466 274.078 163.583 274.404 163.773C274.73 163.958 274.991 164.208 275.188 164.523C275.389 164.837 275.489 165.212 275.489 165.648C275.489 166.11 275.37 166.519 275.131 166.875C274.893 167.227 274.546 167.504 274.092 167.705C273.641 167.902 273.097 168 272.461 168H268.29ZM269.887 166.58H272.461C272.881 166.58 273.211 166.479 273.45 166.278C273.688 166.078 273.808 165.805 273.808 165.46C273.808 165.055 273.688 164.737 273.45 164.506C273.211 164.271 272.881 164.153 272.461 164.153H269.887L269.887 166.58ZM269.887 162.909H271.927C272.245 162.909 272.518 162.864 272.745 162.773C272.976 162.682 273.152 162.553 273.273 162.386C273.398 162.216 273.461 162.015 273.461 161.784C273.461 161.447 273.323 161.184 273.046 160.994C272.77 160.805 272.391 160.71 271.91 160.71H269.887L269.887 162.909ZM279.893 168.193C279.34 168.193 278.84 168.091 278.393 167.886C277.946 167.678 277.592 167.377 277.33 166.983C277.073 166.589 276.944 166.106 276.944 165.534C276.944 165.042 277.039 164.636 277.228 164.318C277.417 164 277.673 163.748 277.995 163.562C278.317 163.377 278.677 163.237 279.075 163.142C279.472 163.047 279.878 162.975 280.29 162.926C280.813 162.866 281.237 162.816 281.563 162.778C281.889 162.737 282.126 162.67 282.273 162.58C282.421 162.489 282.495 162.341 282.495 162.136L282.495 162.097C282.495 161.6 282.355 161.216 282.075 160.943C281.798 160.67 281.385 160.534 280.836 160.534C280.264 160.534 279.813 160.661 279.484 160.915C279.158 161.165 278.933 161.443 278.808 161.75L277.211 161.386C277.4 160.856 277.677 160.428 278.04 160.102C278.408 159.773 278.83 159.534 279.308 159.386C279.785 159.235 280.287 159.159 280.813 159.159C281.162 159.159 281.531 159.201 281.921 159.284C282.315 159.364 282.683 159.511 283.023 159.727C283.368 159.943 283.65 160.252 283.87 160.653C284.09 161.051 284.2 161.568 284.2 162.205L284.2 168H282.54L282.54 166.807H282.472C282.362 167.027 282.198 167.242 281.978 167.455C281.758 167.667 281.476 167.843 281.131 167.983C280.787 168.123 280.374 168.193 279.893 168.193ZM280.262 166.83C280.732 166.83 281.133 166.737 281.467 166.551C281.804 166.366 282.059 166.123 282.234 165.824C282.412 165.521 282.501 165.197 282.501 164.852L282.501 163.727C282.44 163.788 282.323 163.845 282.148 163.898C281.978 163.947 281.783 163.991 281.563 164.028C281.344 164.062 281.129 164.095 280.921 164.125C280.713 164.152 280.539 164.174 280.398 164.193C280.069 164.235 279.768 164.305 279.495 164.403C279.226 164.502 279.01 164.644 278.847 164.83C278.688 165.011 278.609 165.254 278.609 165.557C278.609 165.977 278.764 166.295 279.075 166.511C279.385 166.723 279.781 166.83 280.262 166.83ZM292.377 162.903L292.377 164.375H287.65L287.65 162.903H292.377ZM288.127 159.273L288.127 168H286.462L286.462 159.273H288.127ZM293.565 159.273L293.565 168H291.906L291.906 159.273H293.565ZM297.502 165.619L301.349 159.273H303.178L303.178 168H301.513L301.513 161.648L297.684 168H295.837L295.837 159.273H297.502L297.502 165.619ZM309.224 168.176C308.364 168.176 307.623 167.992 307.002 167.625C306.385 167.254 305.907 166.733 305.57 166.062C305.237 165.388 305.07 164.598 305.07 163.693C305.07 162.799 305.237 162.011 305.57 161.33C305.907 160.648 306.377 160.116 306.979 159.733C307.585 159.35 308.294 159.159 309.104 159.159C309.597 159.159 310.074 159.241 310.536 159.403C310.998 159.566 311.413 159.822 311.781 160.17C312.148 160.519 312.438 160.972 312.65 161.528C312.862 162.081 312.968 162.754 312.968 163.545L312.968 164.148H306.031L306.031 162.875H311.303C311.303 162.428 311.212 162.032 311.031 161.688C310.849 161.339 310.593 161.064 310.263 160.864C309.938 160.663 309.555 160.562 309.116 160.562C308.638 160.562 308.222 160.68 307.866 160.915C307.513 161.146 307.241 161.449 307.048 161.824C306.858 162.195 306.763 162.598 306.763 163.034L306.763 164.028C306.763 164.612 306.866 165.108 307.07 165.517C307.279 165.926 307.568 166.239 307.94 166.455C308.311 166.667 308.745 166.773 309.241 166.773C309.563 166.773 309.856 166.727 310.121 166.636C310.387 166.542 310.616 166.402 310.809 166.216C311.002 166.03 311.15 165.801 311.252 165.528L312.86 165.818C312.731 166.292 312.5 166.706 312.167 167.062C311.837 167.415 311.423 167.689 310.923 167.886C310.426 168.08 309.86 168.176 309.224 168.176Z" fill="url(#paint0_linear_509_1044)"/>
<path opacity="0.85" d="M408.282 123.705H410.379C411.265 123.705 412.051 123.9 412.737 124.29C413.426 124.676 413.966 125.22 414.356 125.92C414.75 126.617 414.947 127.428 414.947 128.352C414.947 129.269 414.75 130.074 414.356 130.767C413.966 131.46 413.426 132.002 412.737 132.392C412.051 132.778 411.265 132.972 410.379 132.972H408.282C407.396 132.972 406.608 132.78 405.918 132.398C405.229 132.011 404.687 131.473 404.293 130.784C403.903 130.095 403.708 129.29 403.708 128.369C403.708 127.441 403.905 126.627 404.299 125.926C404.693 125.225 405.233 124.68 405.918 124.29C406.608 123.9 407.396 123.705 408.282 123.705ZM408.282 125.222C407.676 125.222 407.159 125.348 406.731 125.602C406.303 125.852 405.975 126.212 405.748 126.682C405.521 127.152 405.407 127.714 405.407 128.369C405.407 129.009 405.521 129.561 405.748 130.023C405.979 130.481 406.308 130.835 406.737 131.085C407.165 131.331 407.68 131.455 408.282 131.455H410.384C410.987 131.455 411.5 131.331 411.924 131.085C412.352 130.835 412.678 130.479 412.901 130.017C413.129 129.551 413.242 128.996 413.242 128.352C413.242 127.705 413.129 127.148 412.901 126.682C412.678 126.212 412.352 125.852 411.924 125.602C411.5 125.348 410.987 125.222 410.384 125.222H408.282ZM410.197 122.159L410.197 134.477H408.475L408.475 122.159H410.197ZM418.067 137.273C417.814 137.273 417.583 137.252 417.374 137.21C417.166 137.172 417.011 137.131 416.908 137.085L417.317 135.693C417.628 135.777 417.905 135.813 418.147 135.801C418.389 135.79 418.603 135.699 418.789 135.528C418.978 135.358 419.145 135.08 419.289 134.693L419.499 134.114L416.306 125.273H418.124L420.335 132.045H420.425L422.636 125.273H424.46L420.863 135.165C420.696 135.619 420.484 136.004 420.227 136.318C419.969 136.636 419.662 136.875 419.306 137.034C418.95 137.193 418.537 137.273 418.067 137.273ZM431.971 128.903L431.971 130.375H427.244L427.244 128.903H431.971ZM427.721 125.273L427.721 134H426.056L426.056 125.273H427.721ZM433.158 125.273L433.158 134H431.499L431.499 125.273H433.158ZM435.431 134L435.431 125.273H437.13L437.13 128.932H437.948L440.829 125.273H442.931L439.55 129.517L442.971 134H440.863L438.232 130.511H437.13L437.13 134H435.431ZM451.41 125.273L451.41 132.608H452.688L452.688 136.812H451.012L451.012 134H444.29L444.29 125.273H445.955L445.955 132.534H449.751L449.751 125.273H451.41ZM456.237 131.619L460.083 125.273H461.913L461.913 134H460.248L460.248 127.648L456.418 134H454.572L454.572 125.273H456.237L456.237 131.619ZM467.873 134.176C467.055 134.176 466.341 133.989 465.731 133.614C465.121 133.239 464.647 132.714 464.31 132.04C463.973 131.366 463.805 130.578 463.805 129.676C463.805 128.771 463.973 127.979 464.31 127.301C464.647 126.623 465.121 126.097 465.731 125.722C466.341 125.347 467.055 125.159 467.873 125.159C468.691 125.159 469.405 125.347 470.015 125.722C470.625 126.097 471.098 126.623 471.435 127.301C471.772 127.979 471.941 128.771 471.941 129.676C471.941 130.578 471.772 131.366 471.435 132.04C471.098 132.714 470.625 133.239 470.015 133.614C469.405 133.989 468.691 134.176 467.873 134.176ZM467.879 132.75C468.409 132.75 468.848 132.61 469.197 132.33C469.545 132.049 469.803 131.676 469.969 131.21C470.14 130.744 470.225 130.231 470.225 129.67C470.225 129.114 470.14 128.602 469.969 128.136C469.803 127.667 469.545 127.29 469.197 127.006C468.848 126.722 468.409 126.58 467.879 126.58C467.344 126.58 466.901 126.722 466.549 127.006C466.201 127.29 465.941 127.667 465.771 128.136C465.604 128.602 465.521 129.114 465.521 129.67C465.521 130.231 465.604 130.744 465.771 131.21C465.941 131.676 466.201 132.049 466.549 132.33C466.901 132.61 467.344 132.75 467.879 132.75ZM479.752 128.903L479.752 130.375H475.025L475.025 128.903H479.752ZM475.502 125.273L475.502 134H473.837L473.837 125.273H475.502ZM480.94 125.273L480.94 134H479.281L479.281 125.273H480.94ZM485.752 134.193C485.199 134.193 484.699 134.091 484.252 133.886C483.805 133.678 483.451 133.377 483.19 132.983C482.932 132.589 482.803 132.106 482.803 131.534C482.803 131.042 482.898 130.636 483.087 130.318C483.277 130 483.532 129.748 483.854 129.562C484.176 129.377 484.536 129.237 484.934 129.142C485.332 129.047 485.737 128.975 486.15 128.926C486.673 128.866 487.097 128.816 487.423 128.778C487.748 128.737 487.985 128.67 488.133 128.58C488.281 128.489 488.354 128.341 488.354 128.136L488.354 128.097C488.354 127.6 488.214 127.216 487.934 126.943C487.657 126.67 487.245 126.534 486.695 126.534C486.123 126.534 485.673 126.661 485.343 126.915C485.017 127.165 484.792 127.443 484.667 127.75L483.07 127.386C483.26 126.856 483.536 126.428 483.9 126.102C484.267 125.773 484.69 125.534 485.167 125.386C485.644 125.235 486.146 125.159 486.673 125.159C487.021 125.159 487.39 125.201 487.781 125.284C488.174 125.364 488.542 125.511 488.883 125.727C489.228 125.943 489.51 126.252 489.729 126.653C489.949 127.051 490.059 127.568 490.059 128.205L490.059 134H488.4L488.4 132.807H488.332C488.222 133.027 488.057 133.242 487.837 133.455C487.618 133.667 487.335 133.843 486.991 133.983C486.646 134.123 486.233 134.193 485.752 134.193ZM486.121 132.83C486.591 132.83 486.993 132.737 487.326 132.551C487.663 132.366 487.919 132.123 488.093 131.824C488.271 131.521 488.36 131.197 488.36 130.852L488.36 129.727C488.299 129.788 488.182 129.845 488.008 129.898C487.837 129.947 487.642 129.991 487.423 130.028C487.203 130.062 486.989 130.095 486.781 130.125C486.572 130.152 486.398 130.174 486.258 130.193C485.928 130.235 485.627 130.305 485.354 130.403C485.085 130.502 484.87 130.644 484.707 130.83C484.548 131.011 484.468 131.254 484.468 131.557C484.468 131.977 484.623 132.295 484.934 132.511C485.245 132.723 485.64 132.83 486.121 132.83ZM491.634 134L491.629 132.528H491.941C492.183 132.528 492.386 132.477 492.549 132.375C492.716 132.269 492.852 132.091 492.958 131.841C493.064 131.591 493.146 131.246 493.202 130.807C493.259 130.364 493.301 129.807 493.327 129.136L493.481 125.273H499.572L499.572 134H497.907L497.907 126.739H495.055L494.918 129.705C494.884 130.424 494.81 131.053 494.697 131.591C494.587 132.129 494.426 132.578 494.214 132.938C494.002 133.294 493.729 133.561 493.396 133.739C493.062 133.913 492.657 134 492.18 134H491.634Z" fill="url(#paint1_linear_509_1044)"/>
<path opacity="0.85" d="M479.519 259.182C479.519 260.424 479.292 261.492 478.837 262.386C478.383 263.277 477.76 263.962 476.968 264.443C476.18 264.92 475.284 265.159 474.281 265.159C473.273 265.159 472.373 264.92 471.582 264.443C470.794 263.962 470.173 263.275 469.718 262.381C469.263 261.487 469.036 260.42 469.036 259.182C469.036 257.939 469.263 256.873 469.718 255.983C470.173 255.089 470.794 254.403 471.582 253.926C472.373 253.445 473.273 253.205 474.281 253.205C475.284 253.205 476.18 253.445 476.968 253.926C477.76 254.403 478.383 255.089 478.837 255.983C479.292 256.873 479.519 257.939 479.519 259.182ZM477.781 259.182C477.781 258.235 477.627 257.437 477.32 256.79C477.017 256.138 476.601 255.646 476.07 255.312C475.544 254.975 474.947 254.807 474.281 254.807C473.61 254.807 473.012 254.975 472.485 255.312C471.959 255.646 471.542 256.138 471.235 256.79C470.932 257.437 470.781 258.235 470.781 259.182C470.781 260.129 470.932 260.928 471.235 261.58C471.542 262.227 471.959 262.72 472.485 263.057C473.012 263.39 473.61 263.557 474.281 263.557C474.947 263.557 475.544 263.39 476.07 263.057C476.601 262.72 477.017 262.227 477.32 261.58C477.627 260.928 477.781 260.129 477.781 259.182ZM481.708 265L481.708 253.364H483.464L483.464 258.92H483.606L488.487 253.364H490.697L486.004 258.602L490.714 265H488.6L484.839 259.801L483.464 261.381L483.464 265H481.708ZM492.333 265L492.333 253.364H496.481C497.382 253.364 498.13 253.519 498.725 253.83C499.324 254.14 499.771 254.57 500.066 255.119C500.362 255.665 500.509 256.295 500.509 257.011C500.509 257.723 500.36 258.35 500.06 258.892C499.765 259.43 499.318 259.848 498.719 260.148C498.125 260.447 497.377 260.597 496.475 260.597H493.333L493.333 259.085H496.316C496.884 259.085 497.346 259.004 497.702 258.841C498.062 258.678 498.326 258.441 498.492 258.131C498.659 257.82 498.742 257.447 498.742 257.011C498.742 256.572 498.657 256.191 498.487 255.869C498.32 255.547 498.057 255.301 497.697 255.131C497.341 254.956 496.873 254.869 496.293 254.869H494.089L494.089 265H492.333ZM498.077 259.75L500.952 265H498.952L496.134 259.75H498.077Z" fill="url(#paint2_linear_509_1044)"/>
<path opacity="0.85" d="M12.5348 128.182C12.5348 129.424 12.3075 130.492 11.853 131.386C11.3984 132.277 10.7753 132.962 9.98367 133.443C9.19579 133.92 8.29995 134.159 7.29616 134.159C6.28859 134.159 5.38897 133.92 4.5973 133.443C3.80942 132.962 3.18821 132.275 2.73366 131.381C2.27912 130.487 2.05185 129.42 2.05185 128.182C2.05185 126.939 2.27912 125.873 2.73366 124.983C3.18821 124.089 3.80942 123.403 4.5973 122.926C5.38897 122.445 6.28859 122.205 7.29616 122.205C8.29995 122.205 9.19579 122.445 9.98367 122.926C10.7753 123.403 11.3984 124.089 11.853 124.983C12.3075 125.873 12.5348 126.939 12.5348 128.182ZM10.7962 128.182C10.7962 127.235 10.6428 126.437 10.3359 125.79C10.0329 125.138 9.61624 124.646 9.08594 124.312C8.55942 123.975 7.96283 123.807 7.29616 123.807C6.62571 123.807 6.02723 123.975 5.50071 124.312C4.9742 124.646 4.55753 125.138 4.25071 125.79C3.94768 126.437 3.79616 127.235 3.79616 128.182C3.79616 129.129 3.94768 129.928 4.25071 130.58C4.55753 131.227 4.9742 131.72 5.50071 132.057C6.02723 132.39 6.62571 132.557 7.29616 132.557C7.96283 132.557 8.55942 132.39 9.08594 132.057C9.61624 131.72 10.0329 131.227 10.3359 130.58C10.6428 129.928 10.7962 129.129 10.7962 128.182ZM20.5021 128.903L20.5021 130.375H15.7749L15.7749 128.903H20.5021ZM16.2521 125.273L16.2521 134H14.5874L14.5874 125.273H16.2521ZM21.6896 125.273L21.6896 134H20.0305L20.0305 125.273H21.6896ZM22.88 126.739L22.88 125.273H30.2436L30.2436 126.739H27.397L27.397 134H25.7379L25.7379 126.739H22.88ZM35.3104 134.176C34.4922 134.176 33.7782 133.989 33.1683 133.614C32.5585 133.239 32.085 132.714 31.7479 132.04C31.4107 131.366 31.2422 130.578 31.2422 129.676C31.2422 128.771 31.4107 127.979 31.7479 127.301C32.085 126.623 32.5585 126.097 33.1683 125.722C33.7782 125.347 34.4922 125.159 35.3104 125.159C36.1286 125.159 36.8426 125.347 37.4524 125.722C38.0623 126.097 38.5357 126.623 38.8729 127.301C39.21 127.979 39.3786 128.771 39.3786 129.676C39.3786 130.578 39.21 131.366 38.8729 132.04C38.5357 132.714 38.0623 133.239 37.4524 133.614C36.8426 133.989 36.1286 134.176 35.3104 134.176ZM35.3161 132.75C35.8464 132.75 36.2857 132.61 36.6342 132.33C36.9827 132.049 37.2403 131.676 37.407 131.21C37.5774 130.744 37.6626 130.231 37.6626 129.67C37.6626 129.114 37.5774 128.602 37.407 128.136C37.2403 127.667 36.9827 127.29 36.6342 127.006C36.2857 126.722 35.8464 126.58 35.3161 126.58C34.782 126.58 34.3388 126.722 33.9865 127.006C33.638 127.29 33.3786 127.667 33.2081 128.136C33.0414 128.602 32.9581 129.114 32.9581 129.67C32.9581 130.231 33.0414 130.744 33.2081 131.21C33.3786 131.676 33.638 132.049 33.9865 132.33C34.3388 132.61 34.782 132.75 35.3161 132.75ZM40.5874 134L40.5817 132.528H40.8942C41.1366 132.528 41.3393 132.477 41.5021 132.375C41.6688 132.269 41.8052 132.091 41.9112 131.841C42.0173 131.591 42.0987 131.246 42.1555 130.807C42.2124 130.364 42.254 129.807 42.2805 129.136L42.4339 125.273H48.5249L48.5249 134H46.8601L46.8601 126.739H44.0078L43.8714 129.705C43.8374 130.424 43.7635 131.053 43.6499 131.591C43.54 132.129 43.379 132.578 43.1669 132.938C42.9548 133.294 42.6821 133.561 42.3487 133.739C42.0154 133.913 41.6101 134 41.1328 134H40.5874ZM54.4666 134.176C53.6484 134.176 52.9344 133.989 52.3246 133.614C51.7147 133.239 51.2412 132.714 50.9041 132.04C50.567 131.366 50.3984 130.578 50.3984 129.676C50.3984 128.771 50.567 127.979 50.9041 127.301C51.2412 126.623 51.7147 126.097 52.3246 125.722C52.9344 125.347 53.6484 125.159 54.4666 125.159C55.2848 125.159 55.9988 125.347 56.6087 125.722C57.2185 126.097 57.692 126.623 58.0291 127.301C58.3662 127.979 58.5348 128.771 58.5348 129.676C58.5348 130.578 58.3662 131.366 58.0291 132.04C57.692 132.714 57.2185 133.239 56.6087 133.614C55.9988 133.989 55.2848 134.176 54.4666 134.176ZM54.4723 132.75C55.0026 132.75 55.442 132.61 55.7905 132.33C56.139 132.049 56.3965 131.676 56.5632 131.21C56.7337 130.744 56.8189 130.231 56.8189 129.67C56.8189 129.114 56.7337 128.602 56.5632 128.136C56.3965 127.667 56.139 127.29 55.7905 127.006C55.442 126.722 55.0026 126.58 54.4723 126.58C53.9382 126.58 53.495 126.722 53.1428 127.006C52.7943 127.29 52.5348 127.667 52.3643 128.136C52.1977 128.602 52.1143 129.114 52.1143 129.67C52.1143 130.231 52.1977 130.744 52.3643 131.21C52.5348 131.676 52.7943 132.049 53.1428 132.33C53.495 132.61 53.9382 132.75 54.4723 132.75ZM66.0107 125.273L66.0107 126.739H62.1072L62.1072 134H60.4311L60.4311 125.273H66.0107ZM69.4709 131.619L73.3175 125.273H75.147L75.147 134H73.4822L73.4822 127.648L69.6527 134H67.8061L67.8061 125.273H69.4709L69.4709 131.619ZM82.6357 134L82.6357 126.722H80.5447C80.0485 126.722 79.6622 126.837 79.3857 127.068C79.1091 127.299 78.9709 127.602 78.9709 127.977C78.9709 128.348 79.0978 128.648 79.3516 128.875C79.6091 129.098 79.969 129.21 80.4311 129.21H83.13L83.13 130.585H80.4311C79.7872 130.585 79.2304 130.479 78.7607 130.267C78.2947 130.051 77.9349 129.746 77.6811 129.352C77.4311 128.958 77.3061 128.492 77.3061 127.955C77.3061 127.405 77.4349 126.932 77.6925 126.534C77.9538 126.133 78.3269 125.822 78.8118 125.602C79.3004 125.383 79.8781 125.273 80.5447 125.273H84.2322L84.2322 134H82.6357ZM76.9084 134L79.3686 129.591H81.1072L78.647 134H76.9084Z" fill="url(#paint3_linear_509_1044)"/>
<path opacity="0.85" d="M9.24432 265L5.33523 259.784H4.09659L4.09659 265H2.34091L2.34091 253.364H4.09659L4.09659 258.278H4.67045L9.06818 253.364H11.2102L6.55682 258.574L11.3864 265H9.24432ZM15.9119 265.176C15.0938 265.176 14.3797 264.989 13.7699 264.614C13.16 264.239 12.6866 263.714 12.3494 263.04C12.0123 262.366 11.8437 261.578 11.8437 260.676C11.8437 259.771 12.0123 258.979 12.3494 258.301C12.6866 257.623 13.16 257.097 13.7699 256.722C14.3797 256.347 15.0938 256.159 15.9119 256.159C16.7301 256.159 17.4441 256.347 18.054 256.722C18.6638 257.097 19.1373 257.623 19.4744 258.301C19.8116 258.979 19.9801 259.771 19.9801 260.676C19.9801 261.578 19.8116 262.366 19.4744 263.04C19.1373 263.714 18.6638 264.239 18.054 264.614C17.4441 264.989 16.7301 265.176 15.9119 265.176ZM15.9176 263.75C16.4479 263.75 16.8873 263.61 17.2358 263.33C17.5843 263.049 17.8419 262.676 18.0085 262.21C18.179 261.744 18.2642 261.231 18.2642 260.67C18.2642 260.114 18.179 259.602 18.0085 259.136C17.8419 258.667 17.5843 258.29 17.2358 258.006C16.8873 257.722 16.4479 257.58 15.9176 257.58C15.3835 257.58 14.9403 257.722 14.5881 258.006C14.2396 258.29 13.9801 258.667 13.8097 259.136C13.643 259.602 13.5597 260.114 13.5597 260.67C13.5597 261.231 13.643 261.744 13.8097 262.21C13.9801 262.676 14.2396 263.049 14.5881 263.33C14.9403 263.61 15.3835 263.75 15.9176 263.75ZM26.7741 262.898L29.5923 256.273H31.0582L27.4048 265H26.1435L22.5639 256.273H24.0128L26.7741 262.898ZM23.5412 256.273L23.5412 265H21.8764L21.8764 256.273H23.5412ZM30.0526 265L30.0526 256.273H31.706L31.706 265H30.0526ZM33.9702 265L33.9702 256.273H41.0895L41.0895 265H39.4247L39.4247 257.739H35.6236L35.6236 265H33.9702ZM47.0369 265.176C46.2188 265.176 45.5047 264.989 44.8949 264.614C44.285 264.239 43.8116 263.714 43.4744 263.04C43.1373 262.366 42.9687 261.578 42.9687 260.676C42.9687 259.771 43.1373 258.979 43.4744 258.301C43.8116 257.623 44.285 257.097 44.8949 256.722C45.5047 256.347 46.2188 256.159 47.0369 256.159C47.8551 256.159 48.5691 256.347 49.179 256.722C49.7888 257.097 50.2623 257.623 50.5994 258.301C50.9366 258.979 51.1051 259.771 51.1051 260.676C51.1051 261.578 50.9366 262.366 50.5994 263.04C50.2623 263.714 49.7888 264.239 49.179 264.614C48.5691 264.989 47.8551 265.176 47.0369 265.176ZM47.0426 263.75C47.5729 263.75 48.0123 263.61 48.3608 263.33C48.7093 263.049 48.9669 262.676 49.1335 262.21C49.304 261.744 49.3892 261.231 49.3892 260.67C49.3892 260.114 49.304 259.602 49.1335 259.136C48.9669 258.667 48.7093 258.29 48.3608 258.006C48.0123 257.722 47.5729 257.58 47.0426 257.58C46.5085 257.58 46.0653 257.722 45.7131 258.006C45.3646 258.29 45.1051 258.667 44.9347 259.136C44.768 259.602 44.6847 260.114 44.6847 260.67C44.6847 261.231 44.768 261.744 44.9347 262.21C45.1051 262.676 45.3646 263.049 45.7131 263.33C46.0653 263.61 46.5085 263.75 47.0426 263.75ZM58.9162 259.903L58.9162 261.375H54.1889L54.1889 259.903H58.9162ZM54.6662 256.273L54.6662 265H53.0014L53.0014 256.273H54.6662ZM60.1037 256.273L60.1037 265H58.4446L58.4446 256.273H60.1037ZM66.1378 265.176C65.2779 265.176 64.5374 264.992 63.9162 264.625C63.2988 264.254 62.8215 263.733 62.4844 263.062C62.151 262.388 61.9844 261.598 61.9844 260.693C61.9844 259.799 62.151 259.011 62.4844 258.33C62.8215 257.648 63.2912 257.116 63.8935 256.733C64.4995 256.35 65.2079 256.159 66.0185 256.159C66.5109 256.159 66.9882 256.241 67.4503 256.403C67.9124 256.566 68.3272 256.822 68.6946 257.17C69.062 257.519 69.3518 257.972 69.5639 258.528C69.776 259.081 69.8821 259.754 69.8821 260.545L69.8821 261.148H62.9446L62.9446 259.875H68.2173C68.2173 259.428 68.1264 259.032 67.9446 258.688C67.7628 258.339 67.5071 258.064 67.1776 257.864C66.8518 257.663 66.4692 257.562 66.0298 257.562C65.5526 257.562 65.1359 257.68 64.7798 257.915C64.4276 258.146 64.1548 258.449 63.9616 258.824C63.7723 259.195 63.6776 259.598 63.6776 260.034L63.6776 261.028C63.6776 261.612 63.7798 262.108 63.9844 262.517C64.1927 262.926 64.4825 263.239 64.8537 263.455C65.2249 263.667 65.6586 263.773 66.1548 263.773C66.4768 263.773 66.7704 263.727 67.0355 263.636C67.3007 263.542 67.5298 263.402 67.723 263.216C67.9162 263.03 68.0639 262.801 68.1662 262.528L69.7741 262.818C69.6454 263.292 69.4143 263.706 69.081 264.062C68.7514 264.415 68.3366 264.689 67.8366 264.886C67.3404 265.08 66.7741 265.176 66.1378 265.176ZM77.6818 259.903L77.6818 261.375H72.9545L72.9545 259.903H77.6818ZM73.4318 256.273L73.4318 265H71.767L71.767 256.273H73.4318ZM78.8693 256.273L78.8693 265H77.2102L77.2102 256.273H78.8693ZM80.0597 257.739L80.0597 256.273H87.4233L87.4233 257.739H84.5767L84.5767 265H82.9176L82.9176 257.739H80.0597ZM90.4986 259.273H93.0327C94.1009 259.273 94.9228 259.538 95.4986 260.068C96.0743 260.598 96.3622 261.282 96.3622 262.119C96.3622 262.665 96.2334 263.155 95.9759 263.591C95.7183 264.027 95.3414 264.371 94.8452 264.625C94.349 264.875 93.7448 265 93.0327 265H89.2202L89.2202 256.273H90.8849L90.8849 263.534H93.0327C93.5213 263.534 93.9228 263.407 94.2372 263.153C94.5516 262.896 94.7088 262.568 94.7088 262.17C94.7088 261.75 94.5516 261.407 94.2372 261.142C93.9228 260.873 93.5213 260.739 93.0327 260.739H90.4986L90.4986 259.273ZM97.6009 265L97.6009 256.273H99.2997L99.2997 265H97.6009Z" fill="url(#paint4_linear_509_1044)"/>
<path opacity="0.85" d="M287.406 4.36364L287.406 16H285.656L285.656 5.86364H280.179L280.179 16H278.429L278.429 4.36364H287.406ZM293.631 16.1761C292.813 16.1761 292.098 15.9886 291.489 15.6136C290.879 15.2386 290.405 14.714 290.068 14.0398C289.731 13.3655 289.562 12.5777 289.562 11.6761C289.562 10.7708 289.731 9.97917 290.068 9.30114C290.405 8.62311 290.879 8.09659 291.489 7.72159C292.098 7.34659 292.813 7.15909 293.631 7.15909C294.449 7.15909 295.163 7.34659 295.773 7.72159C296.383 8.09659 296.856 8.62311 297.193 9.30114C297.53 9.97917 297.699 10.7708 297.699 11.6761C297.699 12.5777 297.53 13.3655 297.193 14.0398C296.856 14.714 296.383 15.2386 295.773 15.6136C295.163 15.9886 294.449 16.1761 293.631 16.1761ZM293.636 14.75C294.167 14.75 294.606 14.6098 294.955 14.3295C295.303 14.0492 295.561 13.6761 295.727 13.2102C295.898 12.7443 295.983 12.2311 295.983 11.6705C295.983 11.1136 295.898 10.6023 295.727 10.1364C295.561 9.66667 295.303 9.28977 294.955 9.00568C294.606 8.72159 294.167 8.57955 293.636 8.57955C293.102 8.57955 292.659 8.72159 292.307 9.00568C291.958 9.28977 291.699 9.66667 291.528 10.1364C291.362 10.6023 291.278 11.1136 291.278 11.6705C291.278 12.2311 291.362 12.7443 291.528 13.2102C291.699 13.6761 291.958 14.0492 292.307 14.3295C292.659 14.6098 293.102 14.75 293.636 14.75ZM298.908 16L298.902 14.5284H299.214C299.457 14.5284 299.66 14.4773 299.822 14.375C299.989 14.2689 300.125 14.0909 300.232 13.8409C300.338 13.5909 300.419 13.2462 300.476 12.8068C300.533 12.3636 300.574 11.8068 300.601 11.1364L300.754 7.27273H306.845L306.845 16H305.18L305.18 8.73864H302.328L302.192 11.7045C302.158 12.4242 302.084 13.053 301.97 13.5909C301.86 14.1288 301.699 14.5777 301.487 14.9375C301.275 15.2936 301.002 15.5606 300.669 15.7386C300.336 15.9129 299.93 16 299.453 16H298.908ZM310.389 10.2727H312.923C313.991 10.2727 314.813 10.5379 315.389 11.0682C315.965 11.5985 316.253 12.2822 316.253 13.1193C316.253 13.6648 316.124 14.1553 315.866 14.5909C315.609 15.0265 315.232 15.3712 314.736 15.625C314.24 15.875 313.635 16 312.923 16H309.111L309.111 7.27273H310.776L310.776 14.5341H312.923C313.412 14.5341 313.813 14.4072 314.128 14.1534C314.442 13.8958 314.599 13.5682 314.599 13.1705C314.599 12.75 314.442 12.4072 314.128 12.142C313.813 11.8731 313.412 11.7386 312.923 11.7386H310.389L310.389 10.2727ZM317.641 13.6932H319.379C319.402 14.0492 319.563 14.3239 319.862 14.517C320.165 14.7102 320.557 14.8068 321.038 14.8068C321.527 14.8068 321.944 14.7027 322.288 14.4943C322.633 14.2822 322.805 13.9545 322.805 13.5114C322.805 13.2462 322.739 13.0152 322.607 12.8182C322.478 12.6174 322.294 12.4621 322.055 12.3523C321.821 12.2424 321.542 12.1875 321.22 12.1875H319.8L319.8 10.8523H321.22C321.701 10.8523 322.061 10.7424 322.3 10.5227C322.538 10.303 322.658 10.0284 322.658 9.69886C322.658 9.3428 322.529 9.05682 322.271 8.84091C322.018 8.62121 321.663 8.51136 321.209 8.51136C320.747 8.51136 320.362 8.61553 320.055 8.82386C319.749 9.02841 319.588 9.29356 319.572 9.61932H317.857C317.868 9.13068 318.016 8.70265 318.3 8.33523C318.588 7.96402 318.974 7.67614 319.459 7.47159C319.947 7.26326 320.502 7.15909 321.124 7.15909C321.771 7.15909 322.332 7.26326 322.805 7.47159C323.279 7.67992 323.644 7.9678 323.902 8.33523C324.163 8.70265 324.294 9.125 324.294 9.60227C324.294 10.0833 324.15 10.4773 323.862 10.7841C323.578 11.0871 323.207 11.3049 322.749 11.4375L322.749 11.5284C323.086 11.5511 323.385 11.6534 323.646 11.8352C323.908 12.017 324.112 12.2576 324.26 12.5568C324.408 12.8561 324.482 13.1951 324.482 13.5739C324.482 14.108 324.334 14.5701 324.038 14.9602C323.747 15.3504 323.341 15.6515 322.822 15.8636C322.307 16.072 321.718 16.1761 321.055 16.1761C320.411 16.1761 319.834 16.0758 319.322 15.875C318.815 15.6705 318.411 15.3826 318.112 15.0114C317.817 14.6402 317.66 14.2008 317.641 13.6932ZM329.912 16.1761C329.094 16.1761 328.38 15.9886 327.77 15.6136C327.16 15.2386 326.687 14.714 326.349 14.0398C326.012 13.3655 325.844 12.5777 325.844 11.6761C325.844 10.7708 326.012 9.97917 326.349 9.30114C326.687 8.62311 327.16 8.09659 327.77 7.72159C328.38 7.34659 329.094 7.15909 329.912 7.15909C330.73 7.15909 331.444 7.34659 332.054 7.72159C332.664 8.09659 333.137 8.62311 333.474 9.30114C333.812 9.97917 333.98 10.7708 333.98 11.6761C333.98 12.5777 333.812 13.3655 333.474 14.0398C333.137 14.714 332.664 15.2386 332.054 15.6136C331.444 15.9886 330.73 16.1761 329.912 16.1761ZM329.918 14.75C330.448 14.75 330.887 14.6098 331.236 14.3295C331.584 14.0492 331.842 13.6761 332.009 13.2102C332.179 12.7443 332.264 12.2311 332.264 11.6705C332.264 11.1136 332.179 10.6023 332.009 10.1364C331.842 9.66667 331.584 9.28977 331.236 9.00568C330.887 8.72159 330.448 8.57955 329.918 8.57955C329.384 8.57955 328.94 8.72159 328.588 9.00568C328.24 9.28977 327.98 9.66667 327.81 10.1364C327.643 10.6023 327.56 11.1136 327.56 11.6705C327.56 12.2311 327.643 12.7443 327.81 13.2102C327.98 13.6761 328.24 14.0492 328.588 14.3295C328.94 14.6098 329.384 14.75 329.918 14.75ZM335.876 16L335.876 7.27273H339.496C340.481 7.27273 341.261 7.48295 341.837 7.90341C342.412 8.32008 342.7 8.88636 342.7 9.60227C342.7 10.1136 342.537 10.5189 342.212 10.8182C341.886 11.1174 341.454 11.3182 340.916 11.4205C341.306 11.4659 341.664 11.5833 341.99 11.7727C342.316 11.9583 342.577 12.2083 342.774 12.5227C342.975 12.8371 343.075 13.2121 343.075 13.6477C343.075 14.1098 342.956 14.5189 342.717 14.875C342.479 15.2273 342.132 15.5038 341.678 15.7045C341.227 15.9015 340.683 16 340.047 16H335.876ZM337.473 14.5795H340.047C340.467 14.5795 340.797 14.4792 341.036 14.2784C341.274 14.0777 341.393 13.8049 341.393 13.4602C341.393 13.0549 341.274 12.7367 341.036 12.5057C340.797 12.2708 340.467 12.1534 340.047 12.1534H337.473L337.473 14.5795ZM337.473 10.9091H339.513C339.831 10.9091 340.104 10.8636 340.331 10.7727C340.562 10.6818 340.738 10.553 340.859 10.3864C340.984 10.2159 341.047 10.0152 341.047 9.78409C341.047 9.44697 340.909 9.18371 340.632 8.99432C340.356 8.80492 339.977 8.71023 339.496 8.71023H337.473L337.473 10.9091ZM347.479 16.1932C346.926 16.1932 346.426 16.0909 345.979 15.8864C345.532 15.678 345.178 15.3769 344.916 14.983C344.659 14.589 344.53 14.1061 344.53 13.5341C344.53 13.0417 344.625 12.6364 344.814 12.3182C345.003 12 345.259 11.7481 345.581 11.5625C345.903 11.3769 346.263 11.2367 346.661 11.142C347.058 11.0473 347.464 10.9754 347.876 10.9261C348.399 10.8655 348.823 10.8163 349.149 10.7784C349.475 10.7367 349.712 10.6705 349.859 10.5795C350.007 10.4886 350.081 10.3409 350.081 10.1364L350.081 10.0966C350.081 9.60038 349.941 9.21591 349.661 8.94318C349.384 8.67045 348.971 8.53409 348.422 8.53409C347.85 8.53409 347.399 8.66098 347.07 8.91477C346.744 9.16477 346.518 9.44318 346.393 9.75L344.797 9.38636C344.986 8.85606 345.263 8.42803 345.626 8.10227C345.994 7.77273 346.416 7.53409 346.893 7.38636C347.371 7.23485 347.873 7.15909 348.399 7.15909C348.748 7.15909 349.117 7.20076 349.507 7.28409C349.901 7.36364 350.268 7.51136 350.609 7.72727C350.954 7.94318 351.236 8.25189 351.456 8.65341C351.676 9.05114 351.786 9.56818 351.786 10.2045L351.786 16H350.126L350.126 14.8068H350.058C349.948 15.0265 349.784 15.2424 349.564 15.4545C349.344 15.6667 349.062 15.8428 348.717 15.983C348.373 16.1231 347.96 16.1932 347.479 16.1932ZM347.848 14.8295C348.318 14.8295 348.719 14.7367 349.053 14.5511C349.39 14.3655 349.645 14.1231 349.82 13.8239C349.998 13.5208 350.087 13.197 350.087 12.8523L350.087 11.7273C350.026 11.7879 349.909 11.8447 349.734 11.8977C349.564 11.947 349.369 11.9905 349.149 12.0284C348.929 12.0625 348.715 12.0947 348.507 12.125C348.299 12.1515 348.125 12.1742 347.984 12.1932C347.655 12.2348 347.354 12.3049 347.081 12.4034C346.812 12.5019 346.596 12.6439 346.433 12.8295C346.274 13.0114 346.195 13.2538 346.195 13.5568C346.195 13.9773 346.35 14.2955 346.661 14.5114C346.971 14.7235 347.367 14.8295 347.848 14.8295ZM352.966 8.73864L352.966 7.27273H360.33L360.33 8.73864H357.483L357.483 16H355.824L355.824 8.73864H352.966ZM365.482 16.1761C364.622 16.1761 363.881 15.9924 363.26 15.625C362.643 15.2538 362.165 14.733 361.828 14.0625C361.495 13.3883 361.328 12.5985 361.328 11.6932C361.328 10.7992 361.495 10.0114 361.828 9.32955C362.165 8.64773 362.635 8.11553 363.237 7.73295C363.843 7.35038 364.552 7.15909 365.362 7.15909C365.855 7.15909 366.332 7.24053 366.794 7.40341C367.256 7.56629 367.671 7.82197 368.038 8.17045C368.406 8.51894 368.696 8.97159 368.908 9.52841C369.12 10.0814 369.226 10.7538 369.226 11.5455L369.226 12.1477H362.288L362.288 10.875H367.561C367.561 10.428 367.47 10.0322 367.288 9.6875C367.107 9.33902 366.851 9.06439 366.521 8.86364C366.196 8.66288 365.813 8.5625 365.374 8.5625C364.896 8.5625 364.48 8.67992 364.124 8.91477C363.771 9.14583 363.499 9.44886 363.305 9.82386C363.116 10.1951 363.021 10.5985 363.021 11.0341L363.021 12.0284C363.021 12.6117 363.124 13.108 363.328 13.517C363.536 13.9261 363.826 14.2386 364.197 14.4545C364.569 14.6667 365.002 14.7727 365.499 14.7727C365.821 14.7727 366.114 14.7273 366.379 14.6364C366.644 14.5417 366.874 14.4015 367.067 14.2159C367.26 14.0303 367.408 13.8011 367.51 13.5284L369.118 13.8182C368.989 14.2917 368.758 14.7064 368.425 15.0625C368.095 15.4148 367.68 15.6894 367.18 15.8864C366.684 16.0795 366.118 16.1761 365.482 16.1761ZM370.423 16L370.418 14.5284H370.73C370.973 14.5284 371.175 14.4773 371.338 14.375C371.505 14.2689 371.641 14.0909 371.747 13.8409C371.853 13.5909 371.935 13.2462 371.991 12.8068C372.048 12.3636 372.09 11.8068 372.116 11.1364L372.27 7.27273H378.361L378.361 16H376.696L376.696 8.73864H373.844L373.707 11.7045C373.673 12.4242 373.599 13.053 373.486 13.5909C373.376 14.1288 373.215 14.5777 373.003 14.9375C372.791 15.2936 372.518 15.5606 372.185 15.7386C371.851 15.9129 371.446 16 370.969 16H370.423ZM381.905 10.2727H384.439C385.507 10.2727 386.329 10.5379 386.905 11.0682C387.481 11.5985 387.768 12.2822 387.768 13.1193C387.768 13.6648 387.64 14.1553 387.382 14.5909C387.125 15.0265 386.748 15.3712 386.251 15.625C385.755 15.875 385.151 16 384.439 16H380.626L380.626 7.27273H382.291L382.291 14.5341H384.439C384.928 14.5341 385.329 14.4072 385.643 14.1534C385.958 13.8958 386.115 13.5682 386.115 13.1705C386.115 12.75 385.958 12.4072 385.643 12.142C385.329 11.8731 384.928 11.7386 384.439 11.7386H381.905L381.905 10.2727ZM393.349 16.1761C392.505 16.1761 391.777 15.9848 391.168 15.6023C390.562 15.2159 390.096 14.6837 389.77 14.0057C389.444 13.3277 389.281 12.5511 389.281 11.6761C389.281 10.7898 389.448 10.0076 389.781 9.32955C390.115 8.64773 390.584 8.11553 391.19 7.73295C391.796 7.35038 392.51 7.15909 393.332 7.15909C393.995 7.15909 394.586 7.2822 395.105 7.52841C395.624 7.77083 396.043 8.11174 396.361 8.55114C396.683 8.99053 396.874 9.50379 396.935 10.0909H395.281C395.19 9.68182 394.982 9.32955 394.656 9.03409C394.334 8.73864 393.902 8.59091 393.361 8.59091C392.887 8.59091 392.473 8.71591 392.116 8.96591C391.764 9.21212 391.49 9.56439 391.293 10.0227C391.096 10.4773 390.997 11.0152 390.997 11.6364C390.997 12.2727 391.094 12.822 391.287 13.2841C391.48 13.7462 391.753 14.1042 392.105 14.358C392.461 14.6117 392.88 14.7386 393.361 14.7386C393.683 14.7386 393.974 14.6799 394.236 14.5625C394.501 14.4413 394.723 14.2689 394.901 14.0455C395.082 13.822 395.209 13.553 395.281 13.2386H396.935C396.874 13.803 396.69 14.3068 396.384 14.75C396.077 15.1932 395.666 15.5417 395.151 15.7955C394.639 16.0492 394.039 16.1761 393.349 16.1761ZM398.751 16L398.751 7.27273H400.45L400.45 10.9318H401.268L404.149 7.27273H406.251L402.871 11.517L406.291 16H404.183L401.553 12.5114H400.45L400.45 16H398.751ZM409.276 13.6193L413.122 7.27273H414.952L414.952 16H413.287L413.287 9.64773L409.457 16H407.611L407.611 7.27273H409.276L409.276 13.6193ZM418.901 13.6193L422.747 7.27273H424.577L424.577 16H422.912L422.912 9.64773L419.082 16H417.236L417.236 7.27273H418.901L418.901 13.6193ZM422.02 4.31818H423.418C423.418 4.95833 423.19 5.47917 422.736 5.88068C422.285 6.27841 421.675 6.47727 420.906 6.47727C420.141 6.47727 419.533 6.27841 419.082 5.88068C418.632 5.47917 418.406 4.95833 418.406 4.31818H419.798C419.798 4.60227 419.882 4.85417 420.048 5.07386C420.215 5.28977 420.501 5.39773 420.906 5.39773C421.304 5.39773 421.588 5.28977 421.759 5.07386C421.933 4.85795 422.02 4.60606 422.02 4.31818ZM432.76 13.6193L436.607 7.27273H438.436L438.436 16H436.771L436.771 9.64773L432.942 16H431.095L431.095 7.27273H432.76L432.76 13.6193ZM446.635 10.9034L446.635 12.375H441.908L441.908 10.9034H446.635ZM442.385 7.27273L442.385 16H440.72L440.72 7.27273H442.385ZM447.822 7.27273L447.822 16H446.163L446.163 7.27273H447.822ZM449.013 8.73864L449.013 7.27273H456.376L456.376 8.73864H453.53L453.53 16H451.871L451.871 8.73864H449.013ZM461.528 16.1761C460.669 16.1761 459.928 15.9924 459.307 15.625C458.689 15.2538 458.212 14.733 457.875 14.0625C457.542 13.3883 457.375 12.5985 457.375 11.6932C457.375 10.7992 457.542 10.0114 457.875 9.32955C458.212 8.64773 458.682 8.11553 459.284 7.73295C459.89 7.35038 460.598 7.15909 461.409 7.15909C461.902 7.15909 462.379 7.24053 462.841 7.40341C463.303 7.56629 463.718 7.82197 464.085 8.17045C464.453 8.51894 464.742 8.97159 464.955 9.52841C465.167 10.0814 465.273 10.7538 465.273 11.5455L465.273 12.1477H458.335L458.335 10.875H463.608C463.608 10.428 463.517 10.0322 463.335 9.6875C463.153 9.33902 462.898 9.06439 462.568 8.86364C462.242 8.66288 461.86 8.5625 461.42 8.5625C460.943 8.5625 460.527 8.67992 460.17 8.91477C459.818 9.14583 459.545 9.44886 459.352 9.82386C459.163 10.1951 459.068 10.5985 459.068 11.0341L459.068 12.0284C459.068 12.6117 459.17 13.108 459.375 13.517C459.583 13.9261 459.873 14.2386 460.244 14.4545C460.616 14.6667 461.049 14.7727 461.545 14.7727C461.867 14.7727 462.161 14.7273 462.426 14.6364C462.691 14.5417 462.92 14.4015 463.114 14.2159C463.307 14.0303 463.455 13.8011 463.557 13.5284L465.165 13.8182C465.036 14.2917 464.805 14.7064 464.472 15.0625C464.142 15.4148 463.727 15.6894 463.227 15.8864C462.731 16.0795 462.165 16.1761 461.528 16.1761ZM467.158 19.2727L467.158 7.27273H468.817L468.817 8.6875H468.959C469.057 8.50568 469.199 8.29545 469.385 8.05682C469.571 7.81818 469.828 7.60985 470.158 7.43182C470.487 7.25 470.923 7.15909 471.464 7.15909C472.169 7.15909 472.798 7.33712 473.351 7.69318C473.904 8.04924 474.338 8.5625 474.652 9.23295C474.97 9.90341 475.129 10.7102 475.129 11.6534C475.129 12.5966 474.972 13.4053 474.658 14.0795C474.343 14.75 473.911 15.267 473.362 15.6307C472.813 15.9905 472.186 16.1705 471.482 16.1705C470.951 16.1705 470.518 16.0814 470.18 15.9034C469.847 15.7254 469.586 15.517 469.396 15.2784C469.207 15.0398 469.061 14.8277 468.959 14.642H468.857L468.857 19.2727H467.158ZM468.822 11.6364C468.822 12.25 468.911 12.7879 469.089 13.25C469.268 13.7121 469.525 14.0739 469.862 14.3352C470.199 14.5928 470.612 14.7216 471.101 14.7216C471.608 14.7216 472.033 14.5871 472.374 14.3182C472.714 14.0455 472.972 13.6761 473.146 13.2102C473.324 12.7443 473.413 12.2197 473.413 11.6364C473.413 11.0606 473.326 10.5436 473.152 10.0852C472.982 9.62689 472.724 9.26515 472.379 9C472.038 8.73485 471.612 8.60227 471.101 8.60227C470.608 8.60227 470.192 8.72917 469.851 8.98295C469.514 9.23674 469.258 9.59091 469.084 10.0455C468.91 10.5 468.822 11.0303 468.822 11.6364ZM480.788 18.9716L480.788 4.36364H482.487L482.487 18.9716H480.788ZM480.788 16.1761C480.171 16.1761 479.608 16.0701 479.101 15.858C478.593 15.642 478.156 15.3352 477.788 14.9375C477.421 14.5398 477.137 14.0644 476.936 13.5114C476.739 12.9583 476.641 12.3466 476.641 11.6761C476.641 10.9981 476.739 10.3826 476.936 9.82955C477.137 9.27652 477.421 8.80114 477.788 8.40341C478.156 8.00568 478.593 7.69886 479.101 7.48295C479.608 7.26705 480.171 7.15909 480.788 7.15909H481.209L481.209 16.1761H480.788ZM480.788 14.7443H481.027L481.027 8.59091H480.788C480.379 8.59091 480.023 8.67424 479.72 8.84091C479.417 9.00379 479.165 9.22917 478.964 9.51705C478.764 9.80114 478.612 10.1288 478.51 10.5C478.411 10.8712 478.362 11.2633 478.362 11.6761C478.362 12.2292 478.451 12.7386 478.629 13.2045C478.807 13.6667 479.076 14.0398 479.436 14.3239C479.796 14.6042 480.247 14.7443 480.788 14.7443ZM482.487 16.1761H482.061L482.061 7.15909H482.487C483.105 7.15909 483.667 7.26705 484.175 7.48295C484.682 7.69886 485.118 8.00568 485.482 8.40341C485.849 8.80114 486.131 9.27652 486.328 9.82955C486.529 10.3826 486.629 10.9981 486.629 11.6761C486.629 12.3466 486.529 12.9583 486.328 13.5114C486.131 14.0644 485.849 14.5398 485.482 14.9375C485.118 15.3352 484.682 15.642 484.175 15.858C483.667 16.0701 483.105 16.1761 482.487 16.1761ZM482.487 14.7443C482.896 14.7443 483.252 14.6648 483.555 14.5057C483.858 14.3428 484.11 14.1193 484.311 13.8352C484.512 13.5473 484.661 13.2197 484.76 12.8523C484.858 12.4811 484.908 12.089 484.908 11.6761C484.908 11.1269 484.819 10.6193 484.641 10.1534C484.466 9.68371 484.199 9.30682 483.839 9.02273C483.48 8.73485 483.029 8.59091 482.487 8.59091H482.243L482.243 14.7443H482.487ZM492.278 16.1761C491.419 16.1761 490.678 15.9924 490.057 15.625C489.439 15.2538 488.962 14.733 488.625 14.0625C488.292 13.3883 488.125 12.5985 488.125 11.6932C488.125 10.7992 488.292 10.0114 488.625 9.32955C488.962 8.64773 489.432 8.11553 490.034 7.73295C490.64 7.35038 491.348 7.15909 492.159 7.15909C492.652 7.15909 493.129 7.24053 493.591 7.40341C494.053 7.56629 494.468 7.82197 494.835 8.17045C495.203 8.51894 495.492 8.97159 495.705 9.52841C495.917 10.0814 496.023 10.7538 496.023 11.5455L496.023 12.1477H489.085L489.085 10.875H494.358C494.358 10.428 494.267 10.0322 494.085 9.6875C493.903 9.33902 493.648 9.06439 493.318 8.86364C492.992 8.66288 492.61 8.5625 492.17 8.5625C491.693 8.5625 491.277 8.67992 490.92 8.91477C490.568 9.14583 490.295 9.44886 490.102 9.82386C489.913 10.1951 489.818 10.5985 489.818 11.0341L489.818 12.0284C489.818 12.6117 489.92 13.108 490.125 13.517C490.333 13.9261 490.623 14.2386 490.994 14.4545C491.366 14.6667 491.799 14.7727 492.295 14.7727C492.617 14.7727 492.911 14.7273 493.176 14.6364C493.441 14.5417 493.67 14.4015 493.864 14.2159C494.057 14.0303 494.205 13.8011 494.307 13.5284L495.915 13.8182C495.786 14.2917 495.555 14.7064 495.222 15.0625C494.892 15.4148 494.477 15.6894 493.977 15.8864C493.481 16.0795 492.915 16.1761 492.278 16.1761ZM499.572 13.6193L503.419 7.27273H505.249L505.249 16H503.584L503.584 9.64773L499.754 16H497.908L497.908 7.27273H499.572L499.572 13.6193ZM502.692 4.31818H504.089C504.089 4.95833 503.862 5.47917 503.408 5.88068C502.957 6.27841 502.347 6.47727 501.578 6.47727C500.813 6.47727 500.205 6.27841 499.754 5.88068C499.304 5.47917 499.078 4.95833 499.078 4.31818H500.47C500.47 4.60227 500.554 4.85417 500.72 5.07386C500.887 5.28977 501.173 5.39773 501.578 5.39773C501.976 5.39773 502.26 5.28977 502.43 5.07386C502.605 4.85795 502.692 4.60606 502.692 4.31818ZM511.209 16.1761C510.364 16.1761 509.637 15.9848 509.027 15.6023C508.421 15.2159 507.955 14.6837 507.629 14.0057C507.304 13.3277 507.141 12.5511 507.141 11.6761C507.141 10.7898 507.307 10.0076 507.641 9.32955C507.974 8.64773 508.444 8.11553 509.05 7.73295C509.656 7.35038 510.37 7.15909 511.192 7.15909C511.855 7.15909 512.446 7.2822 512.964 7.52841C513.483 7.77083 513.902 8.11174 514.22 8.55114C514.542 8.99053 514.733 9.50379 514.794 10.0909H513.141C513.05 9.68182 512.841 9.32955 512.516 9.03409C512.194 8.73864 511.762 8.59091 511.22 8.59091C510.747 8.59091 510.332 8.71591 509.976 8.96591C509.624 9.21212 509.349 9.56439 509.152 10.0227C508.955 10.4773 508.857 11.0152 508.857 11.6364C508.857 12.2727 508.953 12.822 509.146 13.2841C509.339 13.7462 509.612 14.1042 509.964 14.358C510.321 14.6117 510.739 14.7386 511.22 14.7386C511.542 14.7386 511.834 14.6799 512.095 14.5625C512.36 14.4413 512.582 14.2689 512.76 14.0455C512.942 13.822 513.069 13.553 513.141 13.2386H514.794C514.733 13.803 514.55 14.3068 514.243 14.75C513.936 15.1932 513.525 15.5417 513.01 15.7955C512.499 16.0492 511.898 16.1761 511.209 16.1761Z" fill="url(#paint5_linear_509_1044)"/>
<defs>
<linearGradient id="paint0_linear_509_1044" x1="246.75" y1="152" x2="246.75" y2="172" gradientUnits="userSpaceOnUse">
<stop stop-color="white"/>
<stop offset="1" stop-color="white" stop-opacity="0.7"/>
</linearGradient>
<linearGradient id="paint1_linear_509_1044" x1="451.75" y1="118" x2="451.75" y2="138" gradientUnits="userSpaceOnUse">
<stop stop-color="white"/>
<stop offset="1" stop-color="white" stop-opacity="0.7"/>
</linearGradient>
<linearGradient id="paint2_linear_509_1044" x1="484.75" y1="249" x2="484.75" y2="269" gradientUnits="userSpaceOnUse">
<stop stop-color="white"/>
<stop offset="1" stop-color="white" stop-opacity="0.7"/>
</linearGradient>
<linearGradient id="paint3_linear_509_1044" x1="43.25" y1="118" x2="43.25" y2="138" gradientUnits="userSpaceOnUse">
<stop stop-color="white"/>
<stop offset="1" stop-color="white" stop-opacity="0.7"/>
</linearGradient>
<linearGradient id="paint4_linear_509_1044" x1="50.75" y1="249" x2="50.75" y2="269" gradientUnits="userSpaceOnUse">
<stop stop-color="white"/>
<stop offset="1" stop-color="white" stop-opacity="0.7"/>
</linearGradient>
<linearGradient id="paint5_linear_509_1044" x1="396.25" y1="0" x2="396.25" y2="20" gradientUnits="userSpaceOnUse">
<stop stop-color="white"/>
<stop offset="1" stop-color="white" stop-opacity="0.7"/>
</linearGradient>
</defs>
</svg>
