<?xml version="1.0" encoding="utf-8"?><svg viewBox="0 0 37 37" xmlns="http://www.w3.org/2000/svg" xmlns:xlink="http://www.w3.org/1999/xlink"><style>:root>svg{display:none}:root>svg:target{display:block}</style><svg viewBox="0 0 37 37" id="attach" xmlns="http://www.w3.org/2000/svg"><path d="M18.034 6.59a8.941 8.941 0 0 1 12.904 12.371l-.28.294-13.114 13.111-.055.045A5.549 5.549 0 0 1 9.309 25c.035-.067.077-.132.127-.194l.08-.088.13-.131.21-.22.004.004L20.94 13.26a1.118 1.118 0 0 1 1.455-.11l.126.108c.397.397.434 1.017.11 1.455l-.108.126-11.317 11.345a3.322 3.322 0 0 0 4.73 4.628l13.162-13.16a6.709 6.709 0 0 0-.003-9.483 6.706 6.706 0 0 0-9.233-.238l-.25.238-.019.021-14.21 14.211a1.118 1.118 0 0 1-1.69-1.455l.109-.125 14.23-14.233.002.001Z"/></svg><svg viewBox="0 0 37 37" id="emoji" xmlns="http://www.w3.org/2000/svg"><path d="M18.738 3.99c8.232 0 14.904 6.673 14.904 14.904 0 8.232-6.673 14.904-14.904 14.904S3.834 27.126 3.834 18.894c0-8.231 6.673-14.904 14.904-14.904Zm0 2.236c-6.997 0-12.669 5.672-12.669 12.668 0 6.997 5.672 12.67 12.67 12.67 6.996 0 12.668-5.673 12.668-12.67 0-6.996-5.672-12.668-12.669-12.668Zm-5.272 16.816a6.693 6.693 0 0 0 5.272 2.56c2.08 0 4.002-.951 5.268-2.554a1.118 1.118 0 0 1 1.754 1.386 8.928 8.928 0 0 1-7.022 3.404 8.928 8.928 0 0 1-7.028-3.413 1.118 1.118 0 0 1 1.756-1.383Zm.802-8.99a1.862 1.862 0 1 1 0 3.724 1.862 1.862 0 0 1 0-3.724Zm8.941 0a1.862 1.862 0 1 1 0 3.724 1.862 1.862 0 0 1 0-3.724Z"/></svg><svg viewBox="0 0 37 37" id="mic" xmlns="http://www.w3.org/2000/svg"><path d="M27.618 17.403c.566 0 1.034.42 1.108.966l.01.152v.745c0 5.304-4.106 9.65-9.312 10.032l-.002 3.38a1.118 1.118 0 0 1-2.225.151l-.01-.151v-3.38a10.061 10.061 0 0 1-9.308-9.68l-.006-.352v-.745a1.118 1.118 0 0 1 2.225-.152l.01.152v.745a7.824 7.824 0 0 0 7.502 7.817l.322.007h.745a7.824 7.824 0 0 0 7.817-7.502l.007-.322v-.745c0-.617.5-1.118 1.117-1.118ZM18.305 3.992a5.96 5.96 0 0 1 5.96 5.96v8.941a5.96 5.96 0 0 1-11.921 0v-8.94a5.96 5.96 0 0 1 5.96-5.961Zm0 2.235a3.725 3.725 0 0 0-3.726 3.725v8.941a3.726 3.726 0 0 0 7.451 0v-8.94a3.725 3.725 0 0 0-3.725-3.726Z"/></svg><svg viewBox="0 0 7 9" id="play" xmlns="http://www.w3.org/2000/svg"><path opacity=".8" d="M6.345 3.296c.656.412.656 1.469 0 1.882L1.562 8.19C.919 8.595.125 8.075.125 7.25V1.224c0-.826.794-1.346 1.437-.94l4.783 3.012Z"/></svg></svg>